<?xml version="1.0" standalone="no"?>
<!DOCTYPE svg PUBLIC "-//W3C//DTD SVG 1.1//EN" "http://www.w3.org/Graphics/SVG/1.1/DTD/svg11.dtd" >
<svg>
<metadata>
Created by FontForge 20090914 at Wed Aug 25 20:33:17 2021
 By www-data
&#60; info@fontfont.de &#62; Copyright Ole Schaefer, 1999. Published by FontShop International for  FontFont Release 25, Fago Condensed is a trademark of FSI Fonts and Software GmbH.
</metadata>
<defs>
<font id="FagoCoLf-ExtraBoldCaps" horiz-adv-x="544" >
  <font-face 
    font-family="FagoCoLf"
    font-weight="800"
    font-variant="small-caps"
    font-stretch="normal"
    units-per-em="1000"
    panose-1="2 0 9 6 4 0 0 2 0 4"
    ascent="800"
    descent="-200"
    x-height="560"
    cap-height="700"
    bbox="-120 -215 1190 945.002"
    underline-thickness="50"
    underline-position="-50"
    unicode-range="U+0020-U+FB02"
  />
<missing-glyph horiz-adv-x="287" 
 />
    <glyph glyph-name="fi" unicode="fi" horiz-adv-x="296" 
d="M243 379c0 -13.333 -2.33301 -25.833 -7 -37.5s-11.167 -22 -19.5 -31s-18.166 -16.167 -29.499 -21.5s-24 -8 -38 -8s-26.833 2.66699 -38.5 8s-21.667 12.5 -30 21.5s-15 19.333 -20 31s-7.5 24.167 -7.5 37.5c0 26.667 9.16699 49.334 27.5 68.001
s41.166 28 68.499 28c28 0 50.667 -9.33301 68 -28s26 -41.334 26 -68.001z" />
    <glyph glyph-name="fl" unicode="fl" horiz-adv-x="296" 
d="M243 379c0 -13.333 -2.33301 -25.833 -7 -37.5s-11.167 -22 -19.5 -31s-18.166 -16.167 -29.499 -21.5s-24 -8 -38 -8s-26.833 2.66699 -38.5 8s-21.667 12.5 -30 21.5s-15 19.333 -20 31s-7.5 24.167 -7.5 37.5c0 26.667 9.16699 49.334 27.5 68.001
s41.166 28 68.499 28c28 0 50.667 -9.33301 68 -28s26 -41.334 26 -68.001z" />
    <glyph glyph-name=".notdef" horiz-adv-x="287" 
 />
    <glyph glyph-name="space" unicode=" " horiz-adv-x="287" 
 />
    <glyph glyph-name="space" unicode="&#xa0;" horiz-adv-x="287" 
 />
    <glyph glyph-name="exclam" unicode="!" horiz-adv-x="296" 
d="M243 58c0 -13.333 -2.33301 -25.833 -7 -37.5s-11.167 -22 -19.5 -31s-18.166 -16.167 -29.499 -21.5s-24 -8 -38 -8s-26.833 2.66699 -38.5 8s-21.667 12.5 -30 21.5s-15 19.333 -20 31s-7.5 24.167 -7.5 37.5c0 26.667 9.16699 49.5 27.5 68.5s41.166 28.5 68.499 28.5
c28 0 50.667 -9.5 68 -28.5s26 -41.833 26 -68.5zM206 240h-115l-30 460h175z" />
    <glyph glyph-name="quotedbl" unicode="&#x22;" horiz-adv-x="477" 
d="M186 405h-120l-26 295h173zM411 405h-121l-25 295h172z" />
    <glyph glyph-name="numbersign" unicode="#" horiz-adv-x="639" 
d="M365 422h-91v-144h91v144zM600 422h-86v-144h90v-123h-90v-155h-149v155h-91v-155h-148v155h-91v123h91v144h-91v123h91v155h148v-155h91v155h149v-155h95z" />
    <glyph glyph-name="dollar" unicode="$" horiz-adv-x="384" 
d="M361 185c0 -46.667 -10.332 -84.8291 -30.999 -114.496s-50.334 -50.167 -89.001 -61.5v-129h-89v119c-16.667 0.666992 -32.167 2.16699 -46.5 4.5s-27.166 4.83301 -38.499 7.5c-12.667 2.66699 -25 5.66699 -37 9v125c14.667 -4.66699 28.667 -8.66699 42 -12
c11.333 -3.33301 23.333 -6 36 -8s23.667 -3 33 -3c20.667 0 36 4.16699 46 12.5s15 23.5 15 45.5c0 17.333 -5.66699 32.166 -17 44.499l-37 39.5l-44 46c-9.33301 9.33301 -18.666 19.666 -27.999 30.999s-18 23.833 -26 37.5s-14.5 28.834 -19.5 45.501
s-7.5 35.667 -7.5 57c0 44 12 81.5 36 112.5s58.333 51.167 103 60.5v126h89v-121c12 -1.33301 23 -3 33 -5s18.667 -4.33301 26 -7c8.66699 -2.66699 16.667 -5.66699 24 -9v-120c-10.667 4 -21.667 7.66699 -33 11c-9.33301 3.33301 -19.833 6.16602 -31.5 8.49902
s-23.167 3.5 -34.5 3.5c-16 0 -29.333 -3.66699 -40 -11s-16 -20.333 -16 -39s5.83301 -34.167 17.5 -46.5l38.5 -39.5l48 -49c10 -10 19.667 -20.833 29 -32.5s17.666 -24.334 24.999 -38.001s13.166 -28.834 17.499 -45.501s6.5 -35 6.5 -55z" />
    <glyph glyph-name="percent" unicode="%" horiz-adv-x="854" 
d="M226 525c0 21.333 -0.5 38.833 -1.5 52.5s-3 24.5 -6 32.5s-6.83301 13.5 -11.5 16.5s-10.667 4.5 -18 4.5c-14.667 0 -24.5 -7.66699 -29.5 -23s-7.5 -43 -7.5 -83c0 -34.667 2.33301 -60.667 7 -78s14.667 -26 30 -26s25.333 8.5 30 25.5s7 43.167 7 78.5zM702 180
c0 21.333 -0.666992 38.835 -2 52.502s-3.5 24.5 -6.5 32.5s-6.83301 13.5 -11.5 16.5s-10.667 4.5 -18 4.5c-14.667 0 -24.5 -7.66699 -29.5 -23s-7.5 -43 -7.5 -83c0 -34.667 2.33301 -60.834 7 -78.501s14.667 -26.5 30 -26.5s25.5 8.66699 30.5 26
s7.5 43.666 7.5 78.999zM355 525.002c0 -36.667 -4.5 -67.167 -13.5 -91.5s-21 -43.833 -36 -58.5s-32.5 -25 -52.5 -31s-41.333 -9 -64 -9c-21.333 0 -42 2.83301 -62 8.5s-37.667 15.667 -53 30s-27.666 33.666 -36.999 57.999s-14 55.5 -14 93.5
c0 36.667 4.5 67.334 13.5 92.001s21.167 44.167 36.5 58.5s33 24.5 53 30.5s41 9 63 9c23.333 0 45.166 -3 65.499 -9s38 -16.333 53 -31s26.667 -34.167 35 -58.5s12.5 -54.833 12.5 -91.5zM358 -9.99805h-140l276 720h139zM831 180.002
c0 -36.667 -4.5 -67.167 -13.5 -91.5s-21.167 -43.833 -36.5 -58.5s-33 -25 -53 -31s-41.333 -9 -64 -9c-21.333 0 -42 2.83301 -62 8.5s-37.667 15.667 -53 30s-27.666 33.666 -36.999 57.999s-14 55.5 -14 93.5c0 36.667 4.5 67.334 13.5 92.001s21.167 44.167 36.5 58.5
s33 24.5 53 30.5s41 9 63 9c23.333 0 45.166 -3 65.499 -9s38 -16.333 53 -31s26.833 -34.167 35.5 -58.5s13 -54.833 13 -91.5z" />
    <glyph glyph-name="ampersand" unicode="&#x26;" horiz-adv-x="650" 
d="M243 296c-11.333 -4 -21.334 -10.334 -30.001 -19.001c-7.33301 -7.33301 -14 -18 -20 -32s-9 -32.333 -9 -55c0 -34.667 6.83301 -59 20.5 -73s32.167 -21 55.5 -21c20.667 0 39.334 4.33301 56.001 13s31.667 19.334 45 32.001zM319.999 541.999
c0 20.667 -2.49902 38 -7.49902 52s-16.833 21 -35.5 21c-17.333 0 -29.166 -7 -35.499 -21s-9.5 -33 -9.5 -57c0 -17.333 1.83301 -32 5.5 -44s8.16699 -21.667 13.5 -29c5.33301 -8.66699 11.666 -16 18.999 -22c9.33301 6.66699 17.666 14.667 24.999 24
c6 8 11.667 18.333 17 31s8 27.667 8 45zM470 -10.001l-45.001 62.9971c-25.333 -19.333 -50.833 -34.666 -76.5 -45.999s-57.834 -17 -96.501 -17c-29.333 0 -57.666 2.66699 -84.999 8s-51.5 15.166 -72.5 29.499s-37.833 33.833 -50.5 58.5s-19 56.334 -19 95.001
c0 40 8.33301 72.5 25 97.5s35.334 44.833 56.001 59.5c23.333 17.333 50.333 30 81 38c-20 8.66699 -38 20.667 -54 36c-13.333 12.667 -25.5 29.334 -36.5 50.001s-16.5 46 -16.5 76c0 60.667 17.5 104.5 52.5 131.5s82.5 40.5 142.5 40.5
c64.667 0 113.667 -12.5 147 -37.5s50 -65.833 50 -122.5c0 -30.667 -5.33301 -56.667 -16 -78s-23.167 -38.833 -37.5 -52.5s-28.666 -24 -42.999 -31s-25.5 -11.5 -33.5 -13.5l97 -124c5.33301 12 9.66602 25.5 12.999 40.5s6 30.5 8 46.5s3.33301 31.667 4 47s1 29 1 41
h139c0.666992 -23.333 -0.5 -47.333 -3.5 -72s-7.66699 -49.167 -14 -73.5s-15 -47.666 -26 -69.999s-24.167 -42.5 -39.5 -60.5l124 -150z" />
    <glyph glyph-name="quotesingle" unicode="'" horiz-adv-x="253" 
d="M186 405h-120l-26 295h173z" />
    <glyph glyph-name="parenleft" unicode="(" horiz-adv-x="297" 
d="M175 -130c-27.333 42.667 -51.666 89.6709 -72.999 141.004c-18 44 -34.5 94.833 -49.5 152.5s-22.5 119.834 -22.5 186.501c0 66 7.5 127.833 22.5 185.5s31.5 108.5 49.5 152.5c21.333 51.333 45.666 98.666 72.999 141.999h142c-22 -39.333 -41.667 -84 -59 -134
c-15.333 -42.667 -29 -93.334 -41 -152.001s-18 -123.334 -18 -194.001s6 -135.334 18 -194.001s25.667 -109.334 41 -152.001c17.333 -50 37 -94.667 59 -134h-142z" />
    <glyph glyph-name="parenright" unicode=")" horiz-adv-x="297" 
d="M267 350c0 -66.667 -7.66699 -128.838 -23 -186.505s-32 -108.5 -50 -152.5c-21.333 -51.333 -45.333 -98.333 -72 -141h-142c22 39.333 41.667 84 59 134c15.333 42.667 29.166 93.334 41.499 152.001s18.5 123.334 18.5 194.001s-6.16699 135.334 -18.5 194.001
s-26.166 109.334 -41.499 152.001c-17.333 50 -37 94.667 -59 134h142c26.667 -43.333 50.667 -90.666 72 -141.999c18 -44 34.667 -94.833 50 -152.5s23 -119.5 23 -185.5z" />
    <glyph glyph-name="asterisk" unicode="*" horiz-adv-x="473" 
d="M375 376l-98 92l29 -131h-138l28 130l-99 -91l-69 119l131 43l-131 43l69 119l100 -92l-29 132h138l-29 -132l98 92l70 -119l-132 -43l132 -43z" />
    <glyph glyph-name="plus" unicode="+" horiz-adv-x="575" 
d="M369 268v-173h-158v173h-168v139h168v168h158v-168h163v-139h-163z" />
    <glyph glyph-name="comma" unicode="," horiz-adv-x="278" 
d="M169 -170h-105l13 315h159z" />
    <glyph glyph-name="hyphen" unicode="-" horiz-adv-x="445" 
d="M43 256v134h359v-134h-359z" />
    <glyph glyph-name="hyphen" unicode="&#xad;" horiz-adv-x="445" 
d="M43 256v134h359v-134h-359z" />
    <glyph glyph-name="period" unicode="." horiz-adv-x="296" 
d="M243 78c0 -13.333 -2.33301 -25.833 -7 -37.5s-11.167 -22 -19.5 -31s-18.166 -16.167 -29.499 -21.5s-24 -8 -38 -8s-26.833 2.66699 -38.5 8s-21.667 12.5 -30 21.5s-15 19.333 -20 31s-7.5 24.167 -7.5 37.5c0 26.667 9.16699 49.5 27.5 68.5s41.166 28.5 68.499 28.5
c28 0 50.667 -9.5 68 -28.5s26 -41.833 26 -68.5z" />
    <glyph glyph-name="slash" unicode="/" horiz-adv-x="296" 
d="M151 -10h-136l130 720h136z" />
    <glyph glyph-name="zero" unicode="0" horiz-adv-x="499" 
d="M310 330c0 44.667 -0.669922 82.166 -2.00293 112.499s-4 54.5 -8 72.5s-10 30.833 -18 38.5s-18.667 11.5 -32 11.5s-24 -3.66699 -32 -11s-14.167 -20 -18.5 -38s-7.16602 -42.167 -8.49902 -72.5s-2 -68.166 -2 -113.499c0 -44 0.833008 -81 2.5 -111
s4.83398 -54 9.50098 -72s11 -31 19 -39s18 -12 30 -12c11.333 0 20.833 3.66699 28.5 11s13.834 20 18.501 38s8 42 10 72s3 67.667 3 113zM468.997 329.999c0 -74.667 -6.00098 -134.331 -18.001 -178.998s-28.167 -79 -48.5 -103s-43.666 -39.667 -69.999 -47
s-53.833 -11 -82.5 -11c-30.667 0 -59.334 4.16699 -86.001 12.5s-50 24.666 -70 48.999s-35.667 58.833 -47 103.5s-17 103 -17 175c0 74 6.33301 133.333 19 178s29.5 79 50.5 103s44.5 39.833 70.5 47.5s52.667 11.5 80 11.5c26.667 0 53.167 -3.66699 79.5 -11
s49.833 -23 70.5 -47s37.334 -58.333 50.001 -103s19 -104.334 19 -179.001z" />
    <glyph glyph-name="one" unicode="1" horiz-adv-x="329" 
d="M118 0v507l-110 -54v122l144 85h124v-660h-158z" />
    <glyph glyph-name="two" unicode="2" horiz-adv-x="406" 
d="M368 0l-349.999 -0.00195312v124l115 139c24 29.333 44.167 58.833 60.5 88.5s24.5 62.834 24.5 99.501c0 34 -5.16699 59.5 -15.5 76.5s-29.833 25.5 -58.5 25.5c-13.333 0 -27.333 -1.16699 -42 -3.5s-27.667 -5.16602 -39 -8.49902c-14 -3.33301 -27.333 -7 -40 -11
v113c12 4.66699 25.667 9 41 13c13.333 3.33301 29.333 6.5 48 9.5s39.667 4.5 63 4.5c133.333 0 200 -68.333 200 -205c0 -30.667 -4.16699 -59.167 -12.5 -85.5s-19 -50.833 -32 -73.5s-27.833 -44 -44.5 -64s-33.334 -39 -50.001 -57l-59 -64h203z" />
    <glyph glyph-name="three" unicode="3" horiz-adv-x="422" 
d="M392 196c0 -44 -8.50293 -79.832 -25.5029 -107.499s-39.5 -49.834 -67.5 -66.501c-19.333 -11.333 -40.5 -20.666 -63.5 -27.999s-46.833 -13 -71.5 -17s-49.5 -6.66699 -74.5 -8s-48.833 -2.33301 -71.5 -3v110c25.333 1.33301 51.666 3.5 78.999 6.5
s52.333 9.83301 75 20.5c18 8.66699 32.833 20 44.5 34s17.5 35 17.5 63c0 30.667 -8.5 53 -25.5 67s-43.833 21 -80.5 21h-54v107h55c30 0 52.167 6.83301 66.5 20.5s21.5 36.5 21.5 68.5c0 26.667 -5.83301 45.334 -17.5 56.001s-29.167 16 -52.5 16
c-14.667 0 -29.5 -1 -44.5 -3s-28.833 -4 -41.5 -6c-14.667 -2.66699 -29 -5.66699 -43 -9v109c12 4 25.333 7.66699 40 11c12.667 3.33301 27.5 6.16602 44.5 8.49902s36.167 3.5 57.5 3.5c30.667 0 59.334 -2.33301 86.001 -7s49.5 -13.334 68.5 -26.001
s34 -29.667 45 -51s16.5 -48.333 16.5 -81c0 -25.333 -3.83301 -47 -11.5 -65s-17.5 -33.167 -29.5 -45.5s-25.667 -22.166 -41 -29.499s-30.666 -13 -45.999 -17c20.667 -3.33301 39.834 -8.33301 57.501 -15s32.834 -15.834 45.501 -27.501s22.667 -26.5 30 -44.5
s11 -39.667 11 -65z" />
    <glyph glyph-name="four" unicode="4" horiz-adv-x="502" 
d="M484 116h-65v-128l-159 -25v153h-245v118l64 426h173l-86 -421h94l37 231h122v-231h80z" />
    <glyph glyph-name="five" unicode="5" horiz-adv-x="446" 
d="M418 242c0 -58.667 -12.1641 -106.166 -36.4971 -142.499s-55.5 -64.166 -93.5 -83.499c-36 -17.333 -75.667 -29.666 -119 -36.999s-86.333 -11.666 -129 -12.999v114c24 1.33301 49.667 4.16602 77 8.49902s51.666 12.166 72.999 23.499c20 10.667 36.5 24.667 49.5 42
s19.5 41.333 19.5 72c0 28 -4.16699 48.667 -12.5 62s-24.166 20 -47.499 20c-10 0 -19.833 -1.83301 -29.5 -5.5s-18.5 -7.83398 -26.5 -12.501c-9.33301 -5.33301 -18.333 -11.333 -27 -18l-81 28l9 360h354l-15 -123h-192l-9 -140c6.66699 4.66699 14.334 9 23.001 13
c7.33301 3.33301 16.666 6.33301 27.999 9s24.666 4 39.999 4c18.667 0 36.667 -2.5 54 -7.5s32.666 -14.167 45.999 -27.5s24.166 -31.833 32.499 -55.5s12.5 -53.834 12.5 -90.501z" />
    <glyph glyph-name="six" unicode="6" horiz-adv-x="504" 
d="M320 223c0 45.333 -3.66699 76.667 -11 94s-22.333 26 -45 26c-12 0 -22.5 -1.66699 -31.5 -5s-16.833 -6.66602 -23.5 -9.99902c-7.33301 -4.66699 -13.666 -9.66699 -18.999 -15c-0.666992 -6 -1 -12.333 -1 -19c-0.666992 -5.33301 -1 -11.166 -1 -17.499v-16.5
c0 -59.333 4.5 -101.5 13.5 -126.5s26.167 -37.5 51.5 -37.5c12 0 22.167 2 30.5 6s15.166 10.667 20.499 20s9.33301 22.166 12 38.499s4 37.166 4 62.499zM479 235.001c0 -49.333 -6.16602 -89.667 -18.499 -121s-29 -56.333 -50 -75s-45 -31.5 -72 -38.5
s-54.833 -10.5 -83.5 -10.5c-30.667 0 -59.667 4 -87 12s-51.166 22.833 -71.499 44.5s-36.5 51.834 -48.5 90.501s-18 89 -18 151c0 70 9.5 130.833 28.5 182.5s45.667 94.334 80 128.001s75.666 58.667 123.999 75s101.5 24.5 159.5 24.5v-113
c-32 0 -61.333 -2.66699 -88 -8s-49.834 -14.5 -69.501 -27.5s-35.667 -31 -48 -54s-20.5 -51.833 -24.5 -86.5c8 7.33301 18 14 30 20c10 5.33301 22.167 10.166 36.5 14.499s30.833 6.5 49.5 6.5c22 0 43.167 -3.33301 63.5 -10s38.5 -18.334 54.5 -35.001
s28.833 -38.667 38.5 -66s14.5 -62 14.5 -104z" />
    <glyph glyph-name="seven" unicode="7" horiz-adv-x="399" 
d="M394 547c-37.333 -42 -66.833 -82.834 -88.5 -122.501s-38.167 -81 -49.5 -124s-18.5 -88.833 -21.5 -137.5s-4.5 -103 -4.5 -163h-159c0 60 2.66699 115.5 8 166.5s15 98.333 29 142s32.833 84.334 56.5 122.001s54.167 73.167 91.5 106.5h-251v123h389v-113z" />
    <glyph glyph-name="eight" unicode="8" horiz-adv-x="525" 
d="M337 179c0 30.667 -6.33203 53 -18.999 67s-31.334 25.667 -56.001 35l-23 9c-10 -7.33301 -18.667 -16.333 -26 -27c-6.66699 -9.33301 -12.5 -20.833 -17.5 -34.5s-7.5 -30.167 -7.5 -49.5c0 -28.667 5.5 -51.167 16.5 -67.5s30.5 -24.5 58.5 -24.5
c23.333 0 41.5 7.83301 54.5 23.5s19.5 38.5 19.5 68.5zM321.001 488c0 12 -0.666016 23.1689 -1.99902 33.502s-4 19.166 -8 26.499s-9.83301 13.166 -17.5 17.499s-17.834 6.5 -30.501 6.5c-23.333 0 -38.833 -8.5 -46.5 -25.5s-11.5 -36.5 -11.5 -58.5
c0 -24 4.16699 -43.167 12.5 -57.5s19.833 -24.833 34.5 -31.5l25 -11c8 5.33301 15.333 12.666 22 21.999c5.33301 8 10.333 18.333 15 31s7 28.334 7 47.001zM495.002 177.002c0 -34 -5.49609 -62.998 -16.4961 -86.998s-26.667 -43.333 -47 -58
s-44.833 -25.334 -73.5 -32.001s-60.334 -10 -95.001 -10c-78 0 -136.333 13.667 -175 41s-58 74 -58 140c0 30.667 5.5 56.5 16.5 77.5s23.667 37.833 38 50.5s28.666 22.167 42.999 28.5s25.166 10.5 32.499 12.5c-6 1.33301 -15.167 4.5 -27.5 9.5
s-24.833 13.333 -37.5 25s-23.834 27 -33.501 46s-14.5 43.167 -14.5 72.5c0 32 5 59.333 15 82s24.5 41 43.5 55s41.667 24.167 68 30.5s56.166 9.5 89.499 9.5c32 0 61.167 -3 87.5 -9s49 -16 68 -30s33.667 -32.167 44 -54.5s15.5 -49.833 15.5 -82.5
c0 -26.667 -4.83301 -49 -14.5 -67s-21 -32.833 -34 -44.5s-26 -20.5 -39 -26.5s-23.167 -10 -30.5 -12c8.66699 -2 20.667 -5.83301 36 -11.5s30.333 -14.834 45 -27.501s27.334 -29.167 38.001 -49.5s16 -46.5 16 -78.5z" />
    <glyph glyph-name="nine" unicode="9" horiz-adv-x="506" 
d="M320 341c0 32 -0.5 61.6689 -1.5 89.002s-3.66699 50.833 -8 70.5s-11.166 35.167 -20.499 46.5s-22 17 -38 17c-27.333 0 -45.5 -11 -54.5 -33s-13.5 -54 -13.5 -96c0 -38.667 4.16699 -68.167 12.5 -88.5s24.166 -30.5 47.499 -30.5c10 0 19.5 1.16699 28.5 3.5
s17.167 5.16602 24.5 8.49902c8 3.33301 15.667 7.66602 23 12.999zM476 361.002c0 -70 -8.33496 -129.832 -25.002 -179.499s-41.167 -90.334 -73.5 -122.001s-72.166 -55.167 -119.499 -70.5s-101.666 -23.333 -162.999 -24v113
c31.333 0.666992 60.166 4.33398 86.499 11.001s49.166 16.5 68.499 29.5s35 29.667 47 50s19.333 44.5 22 72.5c-8 -6.66699 -17.667 -12.334 -29 -17.001c-9.33301 -4 -20.666 -7.66699 -33.999 -11s-28.333 -5 -45 -5c-26 0 -50.167 4.16699 -72.5 12.5
s-42 21.5 -59 39.5s-30.333 40.833 -40 68.5s-14.5 61.167 -14.5 100.5c0 41.333 5.33301 77.166 16 107.499s25.667 55.333 45 75s42.5 34.334 69.5 44.001s56.5 14.5 88.5 14.5c34.667 0 66.334 -6 95.001 -18s53.167 -30.667 73.5 -56s36 -57.5 47 -96.5
s16.5 -85.167 16.5 -138.5z" />
    <glyph glyph-name="colon" unicode=":" horiz-adv-x="296" 
d="M243 78c0 -13.333 -2.33301 -25.833 -7 -37.5s-11.167 -22 -19.5 -31s-18.166 -16.167 -29.499 -21.5s-24 -8 -38 -8s-26.833 2.66699 -38.5 8s-21.667 12.5 -30 21.5s-15 19.333 -20 31s-7.5 24.167 -7.5 37.5c0 26.667 9.16699 49.5 27.5 68.5s41.166 28.5 68.499 28.5
c28 0 50.667 -9.5 68 -28.5s26 -41.833 26 -68.5zM243 453c0 -13.333 -2.33301 -25.833 -7 -37.5s-11.167 -22 -19.5 -31s-18.166 -16.167 -29.499 -21.5s-24 -8 -38 -8s-26.833 2.66699 -38.5 8s-21.667 12.5 -30 21.5s-15 19.333 -20 31s-7.5 24.167 -7.5 37.5
c0 26.667 9.16699 49.5 27.5 68.5s41.166 28.5 68.499 28.5c28 0 50.667 -9.5 68 -28.5s26 -41.833 26 -68.5z" />
    <glyph glyph-name="semicolon" unicode=";" horiz-adv-x="299" 
d="M169 -170h-105l13 315h159zM248 453c0 -13.333 -2.33301 -25.833 -7 -37.5s-11.167 -22 -19.5 -31s-18.166 -16.167 -29.499 -21.5s-24 -8 -38 -8s-26.833 2.66699 -38.5 8s-21.667 12.5 -30 21.5s-15 19.333 -20 31s-7.5 24.167 -7.5 37.5
c0 26.667 9.16699 49.5 27.5 68.5s41.166 28.5 68.499 28.5c28 0 50.667 -9.5 68 -28.5s26 -41.833 26 -68.5z" />
    <glyph glyph-name="semicolon" unicode="&#x37e;" horiz-adv-x="299" 
d="M169 -170h-105l13 315h159zM248 453c0 -13.333 -2.33301 -25.833 -7 -37.5s-11.167 -22 -19.5 -31s-18.166 -16.167 -29.499 -21.5s-24 -8 -38 -8s-26.833 2.66699 -38.5 8s-21.667 12.5 -30 21.5s-15 19.333 -20 31s-7.5 24.167 -7.5 37.5
c0 26.667 9.16699 49.5 27.5 68.5s41.166 28.5 68.499 28.5c28 0 50.667 -9.5 68 -28.5s26 -41.833 26 -68.5z" />
    <glyph glyph-name="less" unicode="&#x3c;" horiz-adv-x="526" 
d="M33 275v120l450 229v-173l-288 -114l288 -118v-173z" />
    <glyph glyph-name="equal" unicode="=" horiz-adv-x="535" 
d="M43 151v139h449v-139h-449zM43 380v139h449v-139h-449z" />
    <glyph glyph-name="greater" unicode="&#x3e;" horiz-adv-x="525" 
d="M43 46v173l287 118l-287 114v173l449 -229v-120z" />
    <glyph glyph-name="question" unicode="?" horiz-adv-x="362" 
d="M259 58c0 -13.333 -2.33301 -25.833 -7 -37.5s-11.167 -22 -19.5 -31s-18.166 -16.167 -29.499 -21.5s-24 -8 -38 -8s-26.833 2.66699 -38.5 8s-21.667 12.5 -30 21.5s-15 19.333 -20 31s-7.5 24.167 -7.5 37.5c0 26.667 9.16699 49.5 27.5 68.5s41.166 28.5 68.499 28.5
c28 0 50.667 -9.5 68 -28.5s26 -41.833 26 -68.5zM342 562c0 -19.333 -2.33203 -36.334 -6.99902 -51.001s-10.834 -27.667 -18.501 -39s-16 -21.5 -25 -30.5l-25.5 -26.5c-12 -12 -22.167 -25.667 -30.5 -41s-12.5 -38 -12.5 -68c0 -20.667 2.33301 -42.667 7 -66h-138
c-4 24.667 -6 47 -6 67c0 22 1.66699 41 5 57s7.5 29.833 12.5 41.5s10.667 21.834 17 30.501s12.833 16.667 19.5 24c11.333 13.333 21.666 26.333 30.999 39s14 29 14 49c0 15.333 -4.16699 25.5 -12.5 30.5s-19.166 7.5 -32.499 7.5c-10 0 -21.333 -1.16699 -34 -3.5
s-24.667 -4.83301 -36 -7.5c-13.333 -3.33301 -26.666 -7 -39.999 -11v121c15.333 4.66699 31.666 8.66699 48.999 12c14.667 3.33301 31 6.33301 49 9s36 4 54 4c22 0 42.667 -2.5 62 -7.5s36.333 -13.167 51 -24.5s26.167 -26.5 34.5 -45.5s12.5 -42.5 12.5 -70.5z" />
    <glyph glyph-name="at" unicode="@" horiz-adv-x="918" 
d="M530 379c-4.66699 3.33301 -9.66602 6.33594 -14.999 9.00293c-4.66699 2 -10.334 4 -17.001 6s-14 3 -22 3c-14 0 -27.167 -5.5 -39.5 -16.5s-23 -25.833 -32 -44.5s-16 -39.834 -21 -63.501s-7.5 -47.834 -7.5 -72.501c0 -34.667 3.16699 -58.334 9.5 -71.001
s16.833 -19 31.5 -19c12.667 0 24.5 5.5 35.5 16.5s20.167 23.167 27.5 36.5c8.66699 16 16.667 34 24 54zM888.001 331.003c0 -58 -5.83789 -107.501 -17.5049 -148.501s-27 -74.5 -46 -100.5s-41 -44.833 -66 -56.5s-50.833 -17.5 -77.5 -17.5
c-32 0 -56.667 5.83301 -74 17.5s-30 24.834 -38 39.501c-10 17.333 -15.667 36.666 -17 57.999c-9.33301 -22 -21.666 -41.667 -36.999 -59c-13.333 -15.333 -30.166 -29 -50.499 -41s-44.833 -18 -73.5 -18c-18 0 -36 3 -54 9s-34.333 16.333 -49 31
s-26.667 34.334 -36 59.001s-14 56 -14 94c0 48 6.16699 90.667 18.5 128s29 68.666 50 93.999s45 44.666 72 57.999s55.5 20 85.5 20c16 0 29.667 -2 41 -6s20.666 -8.33301 27.999 -13c8.66699 -6 16 -12.333 22 -19l24 30h104l-44 -269
c-2 -14.667 -2.83301 -28.334 -2.5 -41.001s2.16602 -23.667 5.49902 -33s8.33301 -16.666 15 -21.999s15.334 -8 26.001 -8c12 0 22.333 3.66699 31 11s16 19.166 22 35.499s10.5 37.833 13.5 64.5s4.5 59.334 4.5 98.001c0 90.667 -21.333 159.834 -64 207.501
s-109.334 71.5 -200.001 71.5c-49.333 0 -94.166 -8.66699 -134.499 -26s-74.666 -42.333 -102.999 -75s-50.166 -72.5 -65.499 -119.5s-23 -99.833 -23 -158.5c0 -61.333 7.66699 -112.333 23 -153s35.5 -73.334 60.5 -98.001s53.333 -42.167 85 -52.5
s64.167 -15.5 97.5 -15.5c31.333 0 60.5 1.5 87.5 4.5s50.5 6.5 70.5 10.5c23.333 4 45 9 65 15v-115c-19.333 -6 -40.666 -11 -63.999 -15c-20 -3.33301 -43.5 -6.5 -70.5 -9.5s-56.5 -4.5 -88.5 -4.5c-48.667 0 -96.834 6.83301 -144.501 20.5s-90.5 37 -128.5 70
s-68.667 77.333 -92 133s-35 125.5 -35 209.5c0 82 12.833 153.833 38.5 215.5s60 112.834 103 153.501s92 71.167 147 91.5s112.167 30.5 171.5 30.5c56.667 0 109.334 -7.83301 158.001 -23.5s90.834 -39.5 126.501 -71.5s63.5 -72.167 83.5 -120.5
s30 -105.166 30 -170.499z" />
    <glyph glyph-name="A" unicode="A" horiz-adv-x="524" 
d="M294 400c-2.66699 16.667 -5.83301 37.667 -9.5 63l-10.5 74l-12 87c-4.66699 -30 -8.66699 -59 -12 -87l-10 -74c-3.33301 -25.333 -6.33301 -46.333 -9 -63l-23 -151h108zM355.001 0l-22 132h-142l-22 -132h-166l166 700h187l165 -700h-166z" />
    <glyph glyph-name="B" unicode="B" horiz-adv-x="532" 
d="M333 201c0 22 -1.83203 39.667 -5.49902 53s-9.33398 23.833 -17.001 31.5s-17.5 12.834 -29.5 15.501s-26 4 -42 4h-17v-198h29c12 0 23 1.16699 33 3.5s18.667 7 26 14s13 16.667 17 29s6 28.166 6 47.499zM316.001 510c0 17.333 -1.33496 31.333 -4.00195 42
s-6.66699 19 -12 25s-12.166 10.167 -20.499 12.5s-18.166 3.5 -29.499 3.5h-28v-183h20c26.667 0 45.667 6.83301 57 20.5s17 40.167 17 79.5zM491.999 200c0 -38 -4.66602 -69.835 -13.999 -95.502s-23.666 -46.167 -42.999 -61.5s-43.5 -26.333 -72.5 -33
s-63.5 -10 -103.5 -10h-196v700h196c72.667 0 126.334 -13.833 161.001 -41.5s52 -73.5 52 -137.5c0 -28 -3.33301 -51.333 -10 -70s-15.334 -33.834 -26.001 -45.501s-22.834 -20.667 -36.501 -27s-27.5 -11.166 -41.5 -14.499
c16.667 -3.33301 33.167 -8.16602 49.5 -14.499s30.666 -15.833 42.999 -28.5s22.333 -28.667 30 -48s11.5 -43.666 11.5 -72.999z" />
    <glyph glyph-name="C" unicode="C" horiz-adv-x="417" 
d="M399 15c-12 -5.33301 -24.668 -9.66895 -38.001 -13.002c-11.333 -3.33301 -24.833 -6.16602 -40.5 -8.49902s-32.167 -3.5 -49.5 -3.5c-26 0 -52.5 3 -79.5 9s-51.833 20.667 -74.5 44s-41.167 58.5 -55.5 105.5s-21.5 111.5 -21.5 193.5s8.5 147.333 25.5 196
s38 85.667 63 111s52 41.833 81 49.5s55.833 11.5 80.5 11.5c17.333 0 32.833 -1.16699 46.5 -3.5s25.167 -5.16602 34.5 -8.49902c10.667 -3.33301 20 -7 28 -11v-122c-10 4 -20.667 7.33301 -32 10c-9.33301 2.66699 -20.166 5.16699 -32.499 7.5s-25.166 3.5 -38.499 3.5
c-14 0 -26.833 -3.66699 -38.5 -11s-21.834 -20.166 -30.501 -38.499s-15.5 -43.333 -20.5 -75s-7.5 -71.5 -7.5 -119.5c0 -44.667 1.83301 -81.5 5.5 -110.5s9.16699 -52 16.5 -69s16.333 -29 27 -36s23 -10.5 37 -10.5c12.667 0 25.667 1.33301 39 4
s25.666 5.66699 36.999 9c12.667 3.33301 25.334 7.66602 38.001 12.999v-127z" />
    <glyph glyph-name="D" unicode="D" horiz-adv-x="542" 
d="M343 355c0 49.333 -2.16797 88.833 -6.50098 118.5s-10.666 52.334 -18.999 68.001s-18.5 26 -30.5 31s-26 7.5 -42 7.5h-23v-458h18c18.667 0 34.5 2.5 47.5 7.5s23.667 15.833 32 32.5s14.333 40.167 18 70.5s5.5 71.166 5.5 122.499zM501.999 355
c0 -78.667 -6.99902 -141.33 -20.999 -187.997s-33.167 -82.334 -57.5 -107.001s-52.833 -40.834 -85.5 -48.501s-67.334 -11.5 -104.001 -11.5h-171v700h171c34.667 0 68 -3.5 100 -10.5s60.5 -22.333 85.5 -46s45 -58.334 60 -104.001s22.5 -107.167 22.5 -184.5z" />
    <glyph glyph-name="E" unicode="E" horiz-adv-x="442" 
d="M402 572h-180v-147h165v-117h-165v-180h190v-128h-349v700h354z" />
    <glyph glyph-name="F" unicode="F" horiz-adv-x="422" 
d="M392 571h-170v-146h165v-117h-165v-308h-159v700h349z" />
    <glyph glyph-name="G" unicode="G" horiz-adv-x="567" 
d="M509 26c-24 -6.66699 -48.3301 -12.6602 -72.9971 -17.9932c-21.333 -4.66699 -44.666 -8.83398 -69.999 -12.501s-49.666 -5.5 -72.999 -5.5c-16.667 0 -34.334 0.666992 -53.001 2s-37.334 5.5 -56.001 12.5s-36.667 17.667 -54 32s-32.666 34.5 -45.999 60.5
s-24 58.667 -32 98s-12 87.666 -12 144.999c0 54 4.5 100.833 13.5 140.5s21 73.167 36 100.5s32.167 49.5 51.5 66.5s39.666 30 60.999 39s42.833 15.167 64.5 18.5s42.167 5 61.5 5c23.333 0 44.333 -1.66699 63 -5s34.667 -7 48 -11
c15.333 -4.66699 28.666 -9.66699 39.999 -15v-122c-14.667 5.33301 -30.334 10 -47.001 14c-14 3.33301 -30.167 6.66602 -48.5 9.99902s-37.166 5 -56.499 5c-18 0 -34.833 -3.16699 -50.5 -9.5s-29.167 -18.333 -40.5 -36s-20.333 -42.5 -27 -74.5s-10 -74 -10 -126
c0 -52.667 2.83301 -93.834 8.5 -123.501s13.167 -51.834 22.5 -66.501s19.666 -23.834 30.999 -27.501s22.666 -5.5 33.999 -5.5c12.667 0 24.667 1 36 3c6.66699 1.33301 13 2.66602 19 3.99902v185h-65l-10 116h234v-399z" />
    <glyph glyph-name="H" unicode="H" horiz-adv-x="575" 
d="M353 0v308h-131v-308h-159v700h159v-275h131v275h159v-700h-159z" />
    <glyph glyph-name="I" unicode="I" horiz-adv-x="287" 
d="M63 0v700h161v-700h-161z" />
    <glyph glyph-name="J" unicode="J" horiz-adv-x="337" 
d="M274 143c0 -32 -3.99902 -58 -11.999 -78s-18.833 -35.5 -32.5 -46.5s-29.334 -18.5 -47.001 -22.5s-36.167 -6 -55.5 -6c-17.333 0 -33 0.833008 -47 2.5s-26.333 3.83398 -37 6.50098c-12 2.66699 -23 5.66699 -33 9v117l29 -6c7.33301 -1.33301 15 -2.5 23 -3.5
s14.333 -1.5 19 -1.5c11.333 0 19.833 3.16699 25.5 9.5s8.5 18.166 8.5 35.499v541h159v-557z" />
    <glyph glyph-name="K" unicode="K" horiz-adv-x="534" 
d="M63 0v700h159v-700h-159zM352 -10l-128 381l113 329h179l-139 -323l149 -377z" />
    <glyph glyph-name="L" unicode="L" horiz-adv-x="385" 
d="M352 0h-289v700h159v-572h150z" />
    <glyph glyph-name="M" unicode="M" horiz-adv-x="715" 
d="M499 0l-4.99902 237.998c-0.666992 23.333 -0.333984 48.333 0.999023 75s3 51.667 5 75c2 26.667 4.33301 53.334 7 80.001l-24 -60l-23.5 -55c-8.33301 -19.333 -16.5 -37 -24.5 -53l-78 -155l-81 161c-7.33301 14.667 -15 31.334 -23 50.001s-15.333 36.667 -22 54
l-23 60l7 -84l4.5 -78c1.66699 -28 2.16699 -53.667 1.5 -77l-5 -231h-158l24 700h138l137 -305l139 305h137l24 -700h-158z" />
    <glyph glyph-name="N" unicode="N" horiz-adv-x="565" 
d="M366 0l-81 196c-11.333 26.667 -22.166 54.667 -32.499 84l-27.5 81l-27 85c4 -28 7.33301 -56.333 10 -85c2.66699 -24.667 5 -51.667 7 -81s3 -57.333 3 -84v-196h-155v700h146l78 -192c11.333 -28 21.833 -56 31.5 -84s18.167 -53.667 25.5 -77l23 -77
c-4.66699 26 -8.33398 53 -11.001 81c-2.66699 24 -5 51 -7 81s-3 60 -3 90v178h156v-700h-136z" />
    <glyph glyph-name="O" unicode="O" 
d="M348 350c0 48.667 -1.49902 89.0039 -4.49902 121.004s-7.5 57.167 -13.5 75.5s-13.833 31.166 -23.5 38.499s-21.167 11 -34.5 11c-12.667 0 -23.834 -3 -33.501 -9s-17.667 -18 -24 -36s-11 -43 -14 -75s-4.5 -74 -4.5 -126c0 -53.333 1.83301 -96 5.5 -128
s8.83398 -56.833 15.501 -74.5s14.667 -29.334 24 -35.001s19.666 -8.5 30.999 -8.5c10.667 0 20.667 2.66699 30 8s17.5 16.666 24.5 33.999s12.333 42.166 16 74.499s5.5 75.5 5.5 129.5zM506.001 350.004c0 -53.333 -3.16699 -99.333 -9.5 -138s-15 -71.334 -26 -98.001
s-24.167 -48 -39.5 -64s-31.666 -28.5 -48.999 -37.5s-35.333 -15 -54 -18s-37.334 -4.5 -56.001 -4.5c-18 0 -36.167 1.33301 -54.5 4s-36.166 8.16699 -53.499 16.5s-33.666 20.5 -48.999 36.5s-28.666 37.333 -39.999 64s-20.333 59.5 -27 98.5s-10 85.833 -10 140.5
c0 53.333 3.33301 99.333 10 138s15.667 71.334 27 98.001s24.666 48 39.999 64s31.666 28.5 48.999 37.5s35.166 15 53.499 18s36.5 4.5 54.5 4.5c26 0 52.667 -3.83301 80 -11.5s52.5 -24 75.5 -49s41.833 -61.167 56.5 -108.5s22 -111 22 -191z" />
    <glyph glyph-name="P" unicode="P" horiz-adv-x="498" 
d="M317 460c0 26 -1.33008 47.333 -3.99707 64s-6.83398 29.834 -12.501 39.501s-12.834 16.167 -21.501 19.5s-19.334 5 -32.001 5h-25v-272c21.333 2 38.333 6.16699 51 12.5s22.167 15.166 28.5 26.499s10.5 25.5 12.5 42.5s3 37.833 3 62.5zM473.003 460
c0 -45.333 -5.50098 -83.499 -16.501 -114.499s-27.167 -56.167 -48.5 -75.5s-47.5 -33.5 -78.5 -42.5s-66.833 -14.167 -107.5 -15.5v-212h-159v700h176c40.667 0 75.834 -4 105.501 -12s54 -21.333 73 -40s33 -43.334 42 -74.001s13.5 -68.667 13.5 -114z" />
    <glyph glyph-name="Q" unicode="Q" 
d="M348 350c0 48.667 -1.49805 88.998 -4.49805 120.998s-7.5 57.167 -13.5 75.5s-13.833 31.166 -23.5 38.499s-21.167 11 -34.5 11c-12.667 0 -23.834 -3 -33.501 -9s-17.667 -18 -24 -36s-11 -43 -14 -75s-4.5 -74 -4.5 -126c0 -53.333 1.66699 -96.166 5 -128.499
s8.16602 -57.5 14.499 -75.5s14.333 -30 24 -36s20.5 -9 32.5 -9s22.667 2.83301 32 8.5s17.333 17.334 24 35.001s11.667 42.834 15 75.501s5 76 5 130zM506.002 349.998c0 -68 -4.99609 -124.004 -14.9961 -168.004s-23.5 -79.333 -40.5 -106s-36.5 -46.167 -58.5 -58.5
s-45.333 -20.166 -70 -23.499l108 -184h-174l-37 184c-22.667 4 -44.834 11.833 -66.501 23.5s-41 30.834 -58 57.501s-30.667 62 -41 106s-15.5 100.333 -15.5 169c0 54 3.33301 100.333 10 139s15.667 71.334 27 98.001s24.666 48.167 39.999 64.5
s31.666 28.833 48.999 37.5s35.166 14.334 53.499 17.001s36.5 4 54.5 4c26 0 52.667 -3.83301 80 -11.5s52.5 -24 75.5 -49s41.833 -61.167 56.5 -108.5s22 -111 22 -191z" />
    <glyph glyph-name="R" unicode="R" horiz-adv-x="522" 
d="M323 496c0 19.333 -1.5 35.001 -4.5 47.001s-7.33301 21.167 -13 27.5s-13 10.666 -22 12.999s-19.5 3.5 -31.5 3.5h-30v-204c19.333 2 35.5 4.66699 48.5 8s23.333 9 31 17s13.167 19 16.5 33s5 32.333 5 55zM323 0.000976562l-23 159.999
c-4.66699 32 -10 58.333 -16 79s-13.667 35.667 -23 45l-39 -4v-280h-159v700h201c32 0 61.5 -2.66699 88.5 -8s50 -15.333 69 -30s33.833 -35.167 44.5 -61.5s16 -60.5 16 -102.5c0 -46.667 -8.5 -84.167 -25.5 -112.5s-40.167 -50.166 -69.5 -65.499
c20 -10 35.667 -29 47 -57s20.333 -60 27 -96l31 -167h-169z" />
    <glyph glyph-name="S" unicode="S" horiz-adv-x="427" 
d="M395 193c0 -44 -6.66211 -79.165 -19.9951 -105.498s-30.5 -46.833 -51.5 -61.5s-44.833 -24.334 -71.5 -29.001s-53.334 -7 -80.001 -7c-19.333 0 -37.166 1 -53.499 3s-30.5 4.33301 -42.5 7c-14 2.66699 -27 6 -39 10v127c16 -4.66699 31.333 -8.33398 46 -11.001
c12.667 -2.66699 25.667 -5 39 -7s24.666 -3 33.999 -3c22 0 40.833 4.83301 56.5 14.5s23.5 28.5 23.5 56.5c0 20 -5.16699 36.167 -15.5 48.5s-23.833 25.833 -40.5 40.5l-53 46c-10.667 9.33301 -21.5 19.666 -32.5 30.999s-20.833 24.333 -29.5 39
s-15.667 31.5 -21 50.5s-8 40.833 -8 65.5c0 39.333 6.5 72 19.5 98s29.667 46.667 50 62s43.166 26.166 68.499 32.499s50 9.5 74 9.5c19.333 0 37.166 -1.16699 53.499 -3.5s30.166 -4.83301 41.499 -7.5c13.333 -3.33301 25.333 -7 36 -11v-123
c-12.667 4 -25.334 7.66699 -38.001 11c-11.333 2.66699 -23.833 5.16699 -37.5 7.5s-27.167 3.5 -40.5 3.5c-21.333 0 -38.333 -5.5 -51 -16.5s-19 -28.5 -19 -52.5c0 -21.333 5.5 -38.166 16.5 -50.499s24.5 -25.166 40.5 -38.499l49 -41c12 -10 23.833 -21 35.5 -33
s22 -25.667 31 -41s16.167 -32.833 21.5 -52.5s8 -42.5 8 -68.5z" />
    <glyph glyph-name="T" unicode="T" horiz-adv-x="429" 
d="M429 571h-120v-571h-159v571h-140v129h439z" />
    <glyph glyph-name="U" unicode="U" horiz-adv-x="550" 
d="M490 194c0 -37.333 -4.66699 -69 -14 -95s-23.166 -47 -41.499 -63s-40.833 -27.667 -67.5 -35s-57.334 -11 -92.001 -11c-36 0 -67.5 3.5 -94.5 10.5s-49.333 18.5 -67 34.5s-31 37 -40 63s-13.5 58 -13.5 96v506h159v-524c0 -22.667 4 -39.167 12 -49.5
s22.667 -15.5 44 -15.5c37.333 0 56 21.667 56 65v524h159v-506z" />
    <glyph glyph-name="V" unicode="V" horiz-adv-x="489" 
d="M346 0h-204l-144 700h175l43 -352l7.5 -73.5c3 -30.333 6.16699 -60.5 9.5 -90.5l11 -110l11 110c3.33301 30 6.5 60.167 9.5 90.5s5.83301 54.833 8.5 73.5l43 352h175z" />
    <glyph glyph-name="W" unicode="W" horiz-adv-x="799" 
d="M685 0l-205.001 0.000976562l-50 348c-3.33301 22 -6.66602 48.667 -9.99902 80l-10 90c-3.33301 33.333 -7 67.666 -11 102.999c-4 -34.667 -7.66699 -68.667 -11 -102l-10 -90c-3.33301 -31.333 -6.66602 -58.333 -9.99902 -81l-47 -348h-207l-101 700h169l21 -335
c0.666992 -22 2.16699 -49.167 4.5 -81.5l6.5 -92.5c2.66699 -34.667 5 -70.334 7 -107.001l11 110l10 93c3.33301 32 6.66602 58 9.99902 78l46 335h202l47 -335c3.33301 -21.333 6.5 -47.833 9.5 -79.5s6.16699 -62.5 9.5 -92.5c3.33301 -35.333 7 -71.666 11 -108.999
l8 109l6 92.5l5 79.5l21 335h169z" />
    <glyph glyph-name="X" unicode="X" horiz-adv-x="494" 
d="M316 0l-69 255l-70 -255h-179l145 364l-135 336h181l58 -245l58 245h181l-134 -336l144 -364h-180z" />
    <glyph glyph-name="Y" unicode="Y" horiz-adv-x="494" 
d="M326 276v-276h-158v276l-170 424h177l72 -290l72 290h177z" />
    <glyph glyph-name="Z" unicode="Z" horiz-adv-x="454" 
d="M402 0h-359v115l208 462h-208v123h368v-115l-208 -462h213z" />
    <glyph glyph-name="bracketleft" unicode="[" horiz-adv-x="302" 
d="M53 -130v960h274v-125h-115v-710h115v-125h-274z" />
    <glyph glyph-name="backslash" unicode="\" horiz-adv-x="296" 
d="M145 -10l-130 720h136l130 -720h-136z" />
    <glyph glyph-name="bracketright" unicode="]" horiz-adv-x="303" 
d="M-24 -130v125h115v710h-115v125h274v-960h-274z" />
    <glyph glyph-name="asciicircum" unicode="^" horiz-adv-x="475" 
d="M294 401l-57 229l-56 -229h-166l147 369h151l147 -369h-166z" />
    <glyph glyph-name="underscore" unicode="_" horiz-adv-x="509" 
d="M0 -215v135h509v-135h-509z" />
    <glyph glyph-name="grave" unicode="`" horiz-adv-x="325" 
d="M174 620l-159 160h187l108 -160h-136z" />
    <glyph glyph-name="a" unicode="a" horiz-adv-x="524" 
d="M293 332c-3.33301 15.333 -6.66699 32.499 -10 51.499l-10 54.5c-3.33301 19.333 -7 39 -11 59c-4 -20 -7.66699 -39.667 -11 -59c-3.33301 -16.667 -6.5 -34.667 -9.5 -54s-6.16699 -36.666 -9.5 -51.999l-24 -126h108zM354.999 -0.000976562l-19 94h-148l-19 -94h-166
l163 560h193l162 -560h-166z" />
    <glyph glyph-name="b" unicode="b" horiz-adv-x="532" 
d="M333 168c0 16 -1.66797 28.667 -5.00098 38s-8.16602 16.5 -14.499 21.5s-14.5 8.16699 -24.5 9.5s-21.667 2 -35 2h-32v-138h38c22 0 39.667 4 53 12s20 26.333 20 55zM316.999 405c0 23.333 -5.33301 38.166 -16 44.499s-24.667 9.5 -42 9.5h-37v-123h30
c23.333 0 40 4.33301 50 13s15 27.334 15 56.001zM491.999 166c0 -32.667 -4.83203 -59.667 -14.499 -81s-24 -38.333 -43 -51s-42.333 -21.5 -70 -26.5s-59.5 -7.5 -95.5 -7.5h-206v560h206c34.667 0 64.667 -2.16699 90 -6.5s46.333 -12 63 -23s29.167 -25.667 37.5 -44
s12.5 -41.166 12.5 -68.499c0 -21.333 -2.5 -39.333 -7.5 -54s-11.833 -26.667 -20.5 -36s-18.667 -16.666 -30 -21.999s-23.333 -9.33301 -36 -12c13.333 -2 26.666 -5.33301 39.999 -10s25.5 -11.834 36.5 -21.501s20 -22.334 27 -38.001s10.5 -35.167 10.5 -58.5z" />
    <glyph glyph-name="c" unicode="c" horiz-adv-x="417" 
d="M399 15c-11.333 -5.33301 -23.334 -9.66406 -36.001 -12.9971c-11.333 -3.33301 -24.666 -6.16602 -39.999 -8.49902s-32.666 -3.5 -51.999 -3.5c-24 0 -49.667 2.83301 -77 8.5s-52.333 18.167 -75 37.5s-41.5 47.666 -56.5 84.999s-22.5 87.666 -22.5 150.999
c0 62.667 8.16699 113.5 24.5 152.5s36.666 69.333 60.999 91s50.833 36.167 79.5 43.5s55.334 11 80.001 11c18 0 34.167 -1.16699 48.5 -3.5s26.166 -5.16602 35.499 -8.49902c11.333 -3.33301 21.333 -7 30 -11v-118c-9.33301 4 -19.666 7.33301 -30.999 10
c-9.33301 2.66699 -20.5 5.16699 -33.5 7.5s-26.167 3.5 -39.5 3.5s-25.833 -2.5 -37.5 -7.5s-21.834 -14 -30.501 -27s-15.5 -31.167 -20.5 -54.5s-7.5 -53 -7.5 -89c0 -32.667 2.16699 -59.334 6.5 -80.001s10.333 -37 18 -49s16.667 -20.167 27 -24.5
s21.5 -6.5 33.5 -6.5c13.333 0 26.833 1.16699 40.5 3.5s26.167 5.16602 37.5 8.49902c12.667 3.33301 25 7.66602 37 12.999v-122z" />
    <glyph glyph-name="d" unicode="d" horiz-adv-x="542" 
d="M343 285c0 38 -1.99805 67.501 -5.99805 88.501s-10 36.833 -18 47.5s-17.833 17.167 -29.5 19.5s-24.834 3.5 -39.501 3.5h-28v-327h23c16 0 30.167 1.5 42.5 4.5s22.666 10.167 30.999 21.5s14.5 28.166 18.5 50.499s6 52.833 6 91.5zM502.002 285.001
c0 -64 -7.16699 -114.83 -21.5 -152.497s-33.333 -66.334 -57 -86.001s-51 -32.334 -82 -38.001s-63.5 -8.5 -97.5 -8.5h-181v560h181c32 0 63.5 -2.66699 94.5 -8s58.5 -17.333 82.5 -36s43.5 -46.334 58.5 -83.001s22.5 -86 22.5 -148z" />
    <glyph glyph-name="e" unicode="e" horiz-adv-x="442" 
d="M402 437h-180v-97h165v-113h-165v-104h190v-123h-349v560h354z" />
    <glyph glyph-name="f" unicode="f" horiz-adv-x="422" 
d="M392 436h-170v-111h165v-112h-165v-213h-159v560h349z" />
    <glyph glyph-name="g" unicode="g" horiz-adv-x="567" 
d="M509 21c-22 -6 -44.9971 -11.3311 -68.9971 -15.998c-20.667 -4 -44 -7.5 -70 -10.5s-52.333 -4.5 -79 -4.5c-24.667 0 -51.667 2.66699 -81 8s-56.5 17.5 -81.5 36.5s-46 47.167 -63 84.5s-25.5 87.666 -25.5 150.999c0 64 9.16699 115.5 27.5 154.5
s41.5 69.333 69.5 91s58.167 36.167 90.5 43.5s62.5 11 90.5 11c23.333 0 44 -1.66699 62 -5s33.667 -6.66602 47 -9.99902c15.333 -4 28.666 -8.66699 39.999 -14v-115c-14 4.66699 -29.333 9 -46 13c-14 3.33301 -29.833 6.33301 -47.5 9s-35.5 4 -53.5 4
c-16.667 0 -32.334 -2.5 -47.001 -7.5s-27.5 -14.333 -38.5 -28s-19.667 -32.334 -26 -56.001s-9.5 -53.834 -9.5 -90.501c0 -34.667 2.5 -62.5 7.5 -83.5s11.667 -37 20 -48s18.166 -18.333 29.499 -22s23.333 -5.5 36 -5.5c14.667 0 27.667 1 39 3
c6.66699 0.666992 13 1.66699 19 3v110h-65l-10 113h234v-319z" />
    <glyph glyph-name="h" unicode="h" horiz-adv-x="575" 
d="M353 0v227h-131v-227h-159v560h159v-220h131v220h159v-560h-159z" />
    <glyph glyph-name="i" unicode="i" horiz-adv-x="287" 
d="M63 0v560h161v-560h-161z" />
    <glyph glyph-name="j" unicode="j" horiz-adv-x="337" 
d="M274 138c0 -31.333 -3.83301 -56.666 -11.5 -75.999s-18 -34.333 -31 -45s-28.5 -17.834 -46.5 -21.501s-37.333 -5.5 -58 -5.5c-17.333 0 -33 0.833008 -47 2.5s-26.333 3.83398 -37 6.50098c-12 2.66699 -23 6 -33 10v112l26 -6l23 -4c8 -1.33301 15.333 -2 22 -2
c11.333 0 19.833 3.16699 25.5 9.5s8.5 18.166 8.5 35.499v406h159v-422z" />
    <glyph glyph-name="k" unicode="k" horiz-adv-x="534" 
d="M63 0v560h159v-560h-159zM356 -10l-132 296l118 274h174l-139 -269l149 -291z" />
    <glyph glyph-name="l" unicode="l" horiz-adv-x="385" 
d="M352 0h-289v560h159v-437h149z" />
    <glyph glyph-name="m" unicode="m" horiz-adv-x="715" 
d="M499 0l-3.00098 182.001c-0.666992 21.333 -0.166992 43.833 1.5 67.5s3.5 45.167 5.5 64.5l8 68l-21 -54c-6.66699 -16 -14.667 -34 -24 -54s-19.666 -39.667 -30.999 -59l-78 -134l-81 140c-10 16.667 -19.333 34.667 -28 54l-24 53l-23 56
c3.33301 -22.667 6.33301 -45.667 9 -69c2 -20.667 3.83301 -43.334 5.5 -68.001s2.5 -48.667 2.5 -72l-2 -175h-158l21 560h147l131 -258l135 258h144l21 -560h-158z" />
    <glyph glyph-name="n" unicode="n" horiz-adv-x="565" 
d="M362 0l-85 174.998c-9.33301 18 -18.666 38 -27.999 60l-26 62c-9.33301 22 -18.333 44.333 -27 67c4 -24 7.66699 -48.667 11 -74c2.66699 -21.333 5.16699 -44.666 7.5 -69.999s3.5 -48.666 3.5 -69.999v-150h-155v560h150l82 -171
c9.33301 -19.333 18.333 -39.5 27 -60.5l23 -57.5l22 -60c-4.66699 24 -8.33398 48 -11.001 72c-2.66699 20.667 -5 43 -7 67s-3 46.667 -3 68v142h156v-560h-140z" />
    <glyph glyph-name="o" unicode="o" 
d="M348 280c0 38.667 -1.83301 70 -5.5 94s-8.83398 42.333 -15.501 55s-14.667 21.167 -24 25.5s-19.666 6.5 -30.999 6.5s-21.666 -2.16699 -30.999 -6.5s-17.333 -12.833 -24 -25.5s-11.834 -31 -15.501 -55s-5.5 -55.333 -5.5 -94
c0 -39.333 1.83301 -70.666 5.5 -93.999s8.83398 -41.5 15.501 -54.5s14.667 -21.5 24 -25.5s19.666 -6 30.999 -6s21.666 2 30.999 6s17.333 12.5 24 25.5s11.834 31.167 15.501 54.5s5.5 54.666 5.5 93.999zM506 280c0 -63.333 -7 -113.997 -21 -151.997
s-32.333 -67.167 -55 -87.5s-47.834 -33.833 -75.501 -40.5s-55.167 -10 -82.5 -10s-54.833 3.16699 -82.5 9.5s-52.834 19.666 -75.501 39.999s-41 49.666 -55 87.999s-21 89.166 -21 152.499s7 114 21 152s32.333 67.333 55 88s47.834 34.167 75.501 40.5
s55.167 9.5 82.5 9.5s54.833 -3.16699 82.5 -9.5s52.834 -19.833 75.501 -40.5s41 -50 55 -88s21 -88.667 21 -152z" />
    <glyph glyph-name="p" unicode="p" horiz-adv-x="498" 
d="M317 365c0 35.333 -5.16797 58.832 -15.501 70.499s-26.833 17.5 -49.5 17.5h-30v-199c20 1.33301 36.333 4 49 8s22.334 10.333 29.001 19s11.167 19.834 13.5 33.501s3.5 30.5 3.5 50.5zM472.999 364.999c0 -41.333 -5.50098 -75.168 -16.501 -101.501
s-27.167 -47.333 -48.5 -63s-47.5 -26.834 -78.5 -33.501s-66.833 -10.667 -107.5 -12v-155h-159v560h186c36.667 0 68.834 -2.66699 96.501 -8s51 -15.166 70 -29.499s33.333 -34.166 43 -59.499s14.5 -58 14.5 -98z" />
    <glyph glyph-name="q" unicode="q" 
d="M348 280c0 38.667 -1.83301 70 -5.5 94s-8.83398 42.333 -15.501 55s-14.667 21.167 -24 25.5s-19.666 6.5 -30.999 6.5s-21.666 -2.16699 -30.999 -6.5s-17.333 -12.833 -24 -25.5s-11.834 -31 -15.501 -55s-5.5 -55.333 -5.5 -94c0 -39.333 1.83301 -70.833 5.5 -94.5
s8.83398 -41.834 15.501 -54.501s14.667 -21.167 24 -25.5s19.666 -6.5 30.999 -6.5s21.666 2.16699 30.999 6.5s17.333 12.833 24 25.5s11.834 30.834 15.501 54.501s5.5 55.167 5.5 94.5zM506 280c0 -55.333 -5.33496 -100.83 -16.002 -136.497
s-24.834 -64.167 -42.501 -85.5s-37.667 -36.833 -60 -46.5s-45.5 -15.834 -69.5 -18.501l107 -183h-174l-36 184c-22.667 3.33301 -44.667 10.166 -66 20.499s-40.166 26.333 -56.499 48s-29.5 50 -39.5 85s-15 79.167 -15 132.5c0 64 7 115 21 153s32.333 67.167 55 87.5
s47.834 33.666 75.501 39.999s55.167 9.5 82.5 9.5s54.833 -3.16699 82.5 -9.5s52.834 -19.5 75.501 -39.5s41 -49.167 55 -87.5s21 -89.5 21 -153.5z" />
    <glyph glyph-name="r" unicode="r" horiz-adv-x="522" 
d="M323 390c0 26 -5.66797 42.832 -17.001 50.499s-27.666 11.5 -48.999 11.5h-35v-144c18 0.666992 33.5 2 46.5 4s23.5 5.83301 31.5 11.5s13.833 13.834 17.5 24.501s5.5 24.667 5.5 42zM323.999 -0.000976562l-18.998 117c-3.33301 21.333 -7.83301 40.166 -13.5 56.499
s-13.5 30.166 -23.5 41.499l-46 -5v-210h-159v560h206c31.333 0 60 -2 86 -6s48.5 -11.833 67.5 -23.5s33.667 -28.167 44 -49.5s15.5 -49.333 15.5 -84c0 -24 -2.66699 -44.5 -8 -61.5s-12.333 -31.167 -21 -42.5s-18.334 -20.166 -29.001 -26.499
s-21.334 -11.5 -32.001 -15.5c19.333 -7.33301 34 -20.666 44 -39.999s18.667 -45 26 -77l30 -134h-168z" />
    <glyph glyph-name="s" unicode="s" horiz-adv-x="427" 
d="M395 166c0 -37.333 -5.49902 -67.5039 -16.499 -90.5039s-26 -40.833 -45 -53.5s-40.833 -21.167 -65.5 -25.5s-50.667 -6.5 -78 -6.5c-19.333 0 -38 1.33301 -56 4s-34.333 5.66699 -49 9c-17.333 4 -33.333 8.66699 -48 14v122c17.333 -5.33301 34.666 -10 51.999 -14
c14.667 -3.33301 29.667 -6.5 45 -9.5s28.666 -4.5 39.999 -4.5c20 0 35.333 3.5 46 10.5s16 19.5 16 37.5c0 15.333 -4.66699 26.833 -14 34.5s-21 15.167 -35 22.5l-42 23c-12.667 6.66699 -25.5 14.5 -38.5 23.5s-24.667 19.833 -35 32.5s-18.833 27.334 -25.5 44.001
s-10 36 -10 58c0 34.667 6 63.334 18 86.001s27.833 40.334 47.5 53.001s41.834 21.5 66.501 26.5s49.667 7.5 75 7.5c23.333 0 43.666 -1.5 60.999 -4.5s31.666 -6.16699 42.999 -9.5c12.667 -4 23.334 -8.33301 32.001 -13v-118c-14 4.66699 -28 9 -42 13
c-12 3.33301 -25.333 6.5 -40 9.5s-28.667 4.5 -42 4.5c-20.667 0 -36.167 -3.33301 -46.5 -10s-15.5 -19 -15.5 -37c0 -16 5.5 -27.833 16.5 -35.5s23.5 -15.167 37.5 -22.5l43 -22c12.667 -6.66699 25.334 -14.167 38.001 -22.5s24 -18.666 34 -30.999s18 -27 24 -44
s9 -37.5 9 -61.5z" />
    <glyph glyph-name="t" unicode="t" horiz-adv-x="429" 
d="M429 436h-120v-436h-159v436h-140v124h439z" />
    <glyph glyph-name="u" unicode="u" horiz-adv-x="550" 
d="M490 182c0 -68 -18.333 -116.999 -55 -146.999s-90 -45 -160 -45c-72.667 0 -126.667 14.667 -162 44s-53 78.666 -53 147.999v378h159v-385c0 -23.333 4 -40.5 12 -51.5s22.667 -16.5 44 -16.5c37.333 0 56 22.667 56 68v385h159v-378z" />
    <glyph glyph-name="v" unicode="v" horiz-adv-x="489" 
d="M349 0h-209l-142 560h175l44 -292l10 -74l9 -65l8 -65c3.33301 22 6.33301 44.667 9 68l9 65.5l10 70.5l44 292h175z" />
    <glyph glyph-name="w" unicode="w" horiz-adv-x="799" 
d="M684 0h-204.999l-52 297c-3.33301 19.333 -6.66602 40.666 -9.99902 63.999l-9 65c-2.66699 23.333 -5.66699 46.333 -9 69c-3.33301 -23.333 -6.33301 -46.666 -9 -69.999l-9 -64.5c-3.33301 -23 -6.66602 -44.167 -9.99902 -63.5l-49 -297h-208l-101 560h167l25 -294
c1.33301 -22 3.16602 -44.833 5.49902 -68.5s4.16602 -45.5 5.49902 -65.5c2 -23.333 3.66699 -46 5 -68c3.33301 23.333 6.33301 47 9 71l8.5 65.5c3 23.667 6.16699 45.5 9.5 65.5l49 294h203l51 -294c3.33301 -21.333 6.66602 -43.833 9.99902 -67.5l9 -65.5l8 -69
c1.33301 23.333 3 46.666 5 69.999c1.33301 20 3 41.833 5 65.5s4 45.834 6 66.501l24 294h168z" />
    <glyph glyph-name="x" unicode="x" horiz-adv-x="494" 
d="M316 0l-69 195l-70 -195h-179l145 294l-135 266h181l58 -185l58 185h181l-134 -266l144 -294h-180z" />
    <glyph glyph-name="y" unicode="y" horiz-adv-x="494" 
d="M326 216v-216h-158v216l-170 344h177l72 -220l72 220h177z" />
    <glyph glyph-name="z" unicode="z" horiz-adv-x="454" 
d="M402 0h-359v110l193 332h-193v118h368v-110l-193 -332h198z" />
    <glyph glyph-name="braceleft" unicode="{" horiz-adv-x="312" 
d="M276 -130c-32 0 -60.502 3.49805 -85.502 10.498s-46.167 18.333 -63.5 34s-30.666 36.167 -39.999 61.5s-14 56 -14 92v127c0 21.333 -3.83301 38.5 -11.5 51.5s-16.167 22.833 -25.5 29.5c-10.667 7.33301 -22.667 12.333 -36 15v120c13.333 2.66699 25.333 8 36 16
c9.33301 6.66699 17.833 16.334 25.5 29.001s11.5 29.667 11.5 51v125c0 36 4.83301 66.667 14.5 92s23.334 45.833 41.001 61.5s39 27 64 34s52.833 10.5 83.5 10.5h61v-122h-12c-33.333 0 -57.166 -5.66699 -71.499 -17s-21.5 -33.666 -21.5 -66.999v-124
c0 -23.333 -2.83301 -43.5 -8.5 -60.5s-13.5 -31.333 -23.5 -43s-21.5 -21.334 -34.5 -29.001s-26.5 -13.5 -40.5 -17.5c30.667 -7.33301 56.167 -22.666 76.5 -45.999s30.5 -57.333 30.5 -102v-126c0 -32 7.16699 -54 21.5 -66s38.166 -18 71.499 -18h12v-122h-61z" />
    <glyph glyph-name="bar" unicode="|" horiz-adv-x="265" 
d="M53 -110v920h159v-920h-159z" />
    <glyph glyph-name="braceright" unicode="}" horiz-adv-x="313" 
d="M313 291c-14 -2.66699 -26.335 -7.66504 -37.002 -14.998c-9.33301 -6.66699 -17.666 -16.5 -24.999 -29.5s-11 -30.167 -11 -51.5v-127c0 -36 -4.66699 -66.667 -14 -92s-22.666 -45.833 -39.999 -61.5s-38.5 -27 -63.5 -34s-53.5 -10.5 -85.5 -10.5h-61v122h11
c33.333 0 57.333 6 72 18s22 34 22 66v126c0 44.667 10.167 78.667 30.5 102s45.833 38.666 76.5 45.999c-14 4 -27.5 9.83301 -40.5 17.5s-24.5 17.334 -34.5 29.001s-17.833 26 -23.5 43s-8.5 37.167 -8.5 60.5v124c0 33.333 -7.33301 55.666 -22 66.999
s-38.667 17 -72 17h-11v122h61c30.667 0 58.5 -3.5 83.5 -10.5s46.333 -18.333 64 -34s31.334 -36.167 41.001 -61.5s14.5 -56 14.5 -92v-125c0 -21.333 3.66699 -38.333 11 -51s15.666 -22.334 24.999 -29.001c10.667 -8 23 -13.333 37 -16v-120z" />
    <glyph glyph-name="asciitilde" unicode="~" horiz-adv-x="606" 
d="M563 280c-12.667 -8 -26.3301 -15.333 -40.9971 -22c-12.667 -5.33301 -26.834 -10.166 -42.501 -14.499s-32.167 -6.5 -49.5 -6.5c-23.333 0 -45.666 3.5 -66.999 10.5s-42 14.667 -62 23s-39.333 16 -58 23s-36.334 10.5 -53.001 10.5
c-17.333 0 -34.666 -2.33301 -51.999 -7s-33 -9.66699 -47 -15c-16.667 -6.66699 -32.667 -14 -48 -22v139c14 8 29 15.333 45 22c13.333 5.33301 29 10.333 47 15s36.667 7 56 7c26 0 50 -3.5 72 -10.5s42.667 -14.833 62 -23.5s37.666 -16.5 54.999 -23.5
s34.666 -10.5 51.999 -10.5c13.333 0 27.5 2.16699 42.5 6.5s29.167 9.16602 42.5 14.499c15.333 6.66699 30.666 14 45.999 22v-138z" />
    <glyph glyph-name="exclamdown" unicode="&#xa1;" horiz-adv-x="296" 
d="M60 -190l30 460h115l30 -460h-175zM243 452c0 -26.667 -9.00098 -49.5 -27.001 -68.5s-40.667 -28.5 -68 -28.5c-28 0 -50.833 9.5 -68.5 28.5s-26.5 41.833 -26.5 68.5c0 12.667 2.33301 25 7 37s11.334 22.5 20.001 31.5s18.667 16.167 30 21.5s24 8 38 8
c28 0 50.833 -9.66699 68.5 -29s26.5 -42.333 26.5 -69z" />
    <glyph glyph-name="cent" unicode="&#xa2;" horiz-adv-x="375" 
d="M355 10c-6.66699 -2 -14.0039 -4.33887 -22.0039 -7.00586c-7.33301 -2 -15.666 -4 -24.999 -6s-19.666 -3.66699 -30.999 -5v-102h-94v105c-17.333 4 -35.166 10.833 -53.499 20.5s-34.833 24.5 -49.5 44.5s-26.667 46.333 -36 79s-14 73.667 -14 123
c0 48 4.66699 88.333 14 121s21.333 59.334 36 80.001s31.167 36.334 49.5 47.001s36.166 18.334 53.499 23.001v107h94v-101c10.667 -1.33301 20.667 -3.16602 30 -5.49902l25 -6.5l23 -8v-121c-10 3.33301 -20.333 6.33301 -31 9c-9.33301 2.66699 -19.166 5 -29.499 7
s-20.166 3 -29.499 3c-10 0 -19.667 -1.83301 -29 -5.5s-17.5 -11.167 -24.5 -22.5s-12.5 -27.166 -16.5 -47.499s-6 -46.833 -6 -79.5c0 -28.667 1.83301 -52.5 5.5 -71.5s8.66699 -34 15 -45s13.5 -18.667 21.5 -23s16.667 -6.5 26 -6.5
c11.333 0 22.833 0.833008 34.5 2.5s22.167 3.83398 31.5 6.50098c11.333 2.66699 22 6 32 10v-125z" />
    <glyph glyph-name="sterling" unicode="&#xa3;" horiz-adv-x="483" 
d="M20 0v122.999h90v170h-75v118h75v64c0 68 18.5 117.5 55.5 148.5s86.833 46.5 149.5 46.5c22 0 41.5 -1.66699 58.5 -5s31.5 -6.66602 43.5 -9.99902c13.333 -4 25.333 -8.66699 36 -14v-119c-12 4.66699 -24.667 8.66699 -38 12c-11.333 3.33301 -24.5 6.33301 -39.5 9
s-30.5 4 -46.5 4c-26 0 -42.833 -7 -50.5 -21s-11.5 -31 -11.5 -51v-64h146l-15 -118h-131v-170h186v-123h-433z" />
    <glyph glyph-name="currency" unicode="&#xa4;" horiz-adv-x="509" 
d="M494 18c-12 -5.33301 -25.668 -9.99707 -41.001 -13.9971c-13.333 -3.33301 -29.333 -6.5 -48 -9.5s-39.334 -4.5 -62.001 -4.5c-24.667 0 -50 2.16699 -76 6.5s-50.333 13.666 -73 27.999s-42.5 34.666 -59.5 60.999s-28.833 61.5 -35.5 105.5h-79l11 107h54
c0 3.33301 -0.333008 8.16602 -1 14.499s-1 12.166 -1 17.499s0.333008 11.166 1 17.499s1 11.166 1 14.499h-65l11 107h72c8 45.333 21.667 81.333 41 108s41.166 46.834 65.499 60.501s49.333 22.5 75 26.5s48.5 6 68.5 6s38.667 -1.33301 56 -4s32.333 -5.66699 45 -9
c14.667 -4 28 -8.33301 40 -13v-114c-14.667 4 -29.667 7.66699 -45 11c-13.333 3.33301 -28.166 6.16602 -44.499 8.49902s-32.166 3.5 -47.499 3.5c-26.667 0 -49.667 -7.16699 -69 -21.5s-31 -35.166 -35 -62.499h166l-9 -107h-170
c0 -3.33301 -0.333008 -8.16602 -1 -14.499s-1 -12.166 -1 -17.499s0.333008 -11.166 1 -17.499s1 -11.166 1 -14.499h179l-9 -107h-158c5.33301 -26 16.833 -46 34.5 -60s39.834 -21 66.501 -21c15.333 0 31.5 1.16699 48.5 3.5s32.167 5.16602 45.5 8.49902
c16 3.33301 31.667 7.66602 47 12.999v-117z" />
    <glyph glyph-name="yen" unicode="&#xa5;" horiz-adv-x="474" 
d="M367 403h69v-124h-120v-67h120v-124h-120v-88h-158v88h-120v124h120v67h-120v124h69l-110 257h178l62 -250l62 250h178z" />
    <glyph glyph-name="brokenbar" unicode="&#xa6;" horiz-adv-x="265" 
d="M53 -110v390h159v-390h-159zM53 420v390h159v-390h-159z" />
    <glyph glyph-name="section" unicode="&#xa7;" horiz-adv-x="459" 
d="M290 270c0 16 -4.83203 28.002 -14.499 36.002s-20.167 15 -31.5 21l-39 20c-2 -1.33301 -4.83301 -3.33301 -8.5 -6s-7.33398 -6.16699 -11.001 -10.5s-7 -9.33301 -10 -15s-4.5 -11.834 -4.5 -18.501c0 -14.667 6 -26.334 18 -35.001s23.667 -16 35 -22l41 -21
c3.33301 3.33301 8.33301 9.33301 15 18s10 19.667 10 33zM434.001 293.002c0 -24 -4.6709 -43.667 -14.0039 -59s-19.666 -27.666 -30.999 -36.999c-13.333 -10.667 -28.333 -19 -45 -25c12 -6.66699 23 -15.667 33 -27c8.66699 -9.33301 16.5 -21.666 23.5 -36.999
s10.5 -33.666 10.5 -54.999c0 -31.333 -5.66699 -57 -17 -77s-26.666 -35.833 -45.999 -47.5s-41.5 -19.667 -66.5 -24s-51.167 -6.5 -78.5 -6.5c-20.667 0 -40.5 1 -59.5 3s-36.167 4.66699 -51.5 8c-17.333 3.33301 -33.666 7.33301 -48.999 12v121
c18.667 -5.33301 37 -10 55 -14c15.333 -3.33301 31.333 -6.5 48 -9.5s31.334 -4.5 44.001 -4.5c19.333 0 34.833 3.16699 46.5 9.5s17.5 17.166 17.5 32.499s-6 26.5 -18 33.5s-26.667 14.833 -44 23.5l-42 21c-15.333 7.33301 -30.333 15.333 -45 24s-28 18.5 -40 29.5
s-21.667 24 -29 39s-11 32.833 -11 53.5c0 21.333 4.83301 39.333 14.5 54s20.167 26.334 31.5 35.001c13.333 10 29 17.667 47 23c-13.333 6.66699 -25 16 -35 28c-9.33301 10 -17.5 22.833 -24.5 38.5s-10.5 35.167 -10.5 58.5c0 28.667 5.5 52.667 16.5 72
s26.167 35 45.5 47s42 20.667 68 26s53.667 8 83 8c23.333 0 44.5 -1.83301 63.5 -5.5s35.167 -7.5 48.5 -11.5c16 -4.66699 30.333 -10 43 -16v-116c-18 6 -35.667 11.333 -53 16c-15.333 4 -31.833 7.66699 -49.5 11s-34.167 5 -49.5 5
c-18.667 0 -33.167 -3.16699 -43.5 -9.5s-15.5 -16.833 -15.5 -31.5c0 -14 6.83301 -25.333 20.5 -34s30.167 -17.667 49.5 -27l46 -23l41.5 -22.5c13.667 -7.66699 25.667 -16.834 36 -27.501s18.833 -22.834 25.5 -36.501s10 -29.834 10 -48.501z" />
    <glyph glyph-name="dieresis" unicode="&#xa8;" horiz-adv-x="405" 
d="M172 690c0 -22 -7.5 -40.833 -22.5 -56.5s-33.5 -23.5 -55.5 -23.5s-40.667 7.83301 -56 23.5s-23 34.5 -23 56.5s7.66699 40.833 23 56.5s34 23.5 56 23.5s40.5 -7.83301 55.5 -23.5s22.5 -34.5 22.5 -56.5zM390 690c0 -22 -7.5 -40.833 -22.5 -56.5
s-33.5 -23.5 -55.5 -23.5s-40.667 7.83301 -56 23.5s-23 34.5 -23 56.5s7.66699 40.833 23 56.5s34 23.5 56 23.5s40.5 -7.83301 55.5 -23.5s22.5 -34.5 22.5 -56.5z" />
    <glyph glyph-name="copyright" unicode="&#xa9;" horiz-adv-x="749" 
d="M486 166c-8 -3.33301 -16.6699 -6.33105 -26.0029 -8.99805c-8 -2.66699 -17.333 -4.83398 -28 -6.50098s-22.334 -2.5 -35.001 -2.5c-17.333 0 -36 2.16699 -56 6.5s-38.667 13.5 -56 27.5s-31.833 34.167 -43.5 60.5s-17.5 61.166 -17.5 104.499
c0 42 6.33301 76 19 102s28.334 46 47.001 60s38.334 23.333 59.001 28s39 7 55 7c12 0 23 -1 33 -3s18.667 -4.33301 26 -7c8 -2.66699 15.667 -5.66699 23 -9v-85l-26 8c-7.33301 2 -15.833 4 -25.5 6s-19.167 3 -28.5 3c-21.333 0 -38.166 -8.16699 -50.499 -24.5
s-18.5 -44.833 -18.5 -85.5c0 -72.667 21 -109 63 -109c9.33301 0 18.833 0.833008 28.5 2.5s18.834 3.5 27.501 5.5c10 2.66699 20 5.66699 30 9v-89zM592.997 345.002c0 87.333 -18.833 154.166 -56.5 200.499s-91.834 69.5 -162.501 69.5s-124.667 -22.167 -162 -66.5
s-56 -112.166 -56 -203.499s19.333 -159.166 58 -203.499s92 -66.5 160 -66.5c68.667 0 122.334 22.167 161.001 66.5s58 112.166 58 203.499zM718.997 345.002c0 -60 -8.66797 -113.335 -26.001 -160.002s-41.333 -86 -72 -118s-67 -56.167 -109 -72.5
s-88 -24.5 -138 -24.5s-96 8 -138 24s-78.167 39.667 -108.5 71s-54.166 70.333 -71.499 117s-26 101 -26 163c0 60.667 8.66699 114.334 26 161.001s41.5 85.834 72.5 117.501s67.333 55.667 109 72s87.167 24.5 136.5 24.5c50 0 96 -8.33301 138 -25s78.333 -41 109 -73
s54.667 -71.333 72 -118s26 -99.667 26 -159z" />
    <glyph glyph-name="ordfeminine" unicode="&#xaa;" horiz-adv-x="382" 
d="M214 470l-21.999 -1c-12.667 -0.666992 -22 -5.5 -28 -14.5s-9 -27.5 -9 -55.5c0 -21.333 2.16699 -36.333 6.5 -45s11.166 -13 20.499 -13c8 0 15.667 2.33301 23 7c3.33301 2 6.33301 4.33301 9 7v115zM15.001 0v135h337v-135h-337zM237.001 260l-21.0029 29.9971
c-6.66699 -7.33301 -13.667 -14 -21 -20c-7.33301 -5.33301 -15.666 -9.83301 -24.999 -13.5s-20 -5.5 -32 -5.5s-25.167 1.16699 -39.5 3.5s-27.666 8.33301 -39.999 18s-22.666 23.834 -30.999 42.501s-12.5 44.667 -12.5 78s5.83301 59.833 17.5 79.5
s25.667 34.834 42 45.501s33.833 17.5 52.5 20.5s35 4.5 49 4.5h38v27c0 12 -2.16699 21.167 -6.5 27.5s-15.833 9.5 -34.5 9.5c-11.333 0 -23.833 -1.16699 -37.5 -3.5s-26.5 -5.16602 -38.5 -8.49902c-14 -3.33301 -28.333 -7.33301 -43 -12v102
c14 4.66699 29.333 8.66699 46 12c14 3.33301 30.167 6.33301 48.5 9s37.5 4 57.5 4s39 -1.83301 57 -5.5s33.5 -10.5 46.5 -20.5s23.333 -23.5 31 -40.5s11.5 -38.833 11.5 -65.5v-318h-115z" />
    <glyph glyph-name="guillemotleft" unicode="&#xab;" horiz-adv-x="503" 
d="M25 286v98l209 233v-207l-83 -73l83 -77v-207zM259 286v98l209 233v-207l-83 -73l83 -77v-207z" />
    <glyph glyph-name="logicalnot" unicode="&#xac;" horiz-adv-x="610" 
d="M423 99v171h-380v140h524v-311h-144z" />
    <glyph glyph-name="registered" unicode="&#xae;" horiz-adv-x="749" 
d="M417 426c0 20.667 -5 33.168 -15 37.501s-24.333 6.5 -43 6.5h-11v-105c14.667 2 26.5 4.16699 35.5 6.5s16 5.66602 21 9.99902s8.33301 10 10 17s2.5 16.167 2.5 27.5zM416 167.001l-12.0029 59.9961c-3.33301 17.333 -7.66602 32.5 -12.999 45.5
s-12.666 24.167 -21.999 33.5l-21 -3v-136h-100v370h115c19.333 0 38.333 -1 57 -3s35.167 -6.66699 49.5 -14s26 -18.166 35 -32.499s13.5 -34.166 13.5 -59.499c0 -26 -6.5 -46.167 -19.5 -60.5s-30.833 -26.5 -53.5 -36.5c16.667 -11.333 28.834 -24.166 36.501 -38.499
s14.5 -30.166 20.5 -47.499l26 -78h-112zM592.997 344.997c0 87.333 -18.833 154.166 -56.5 200.499s-91.834 69.5 -162.501 69.5s-124.667 -22.167 -162 -66.5s-56 -112.166 -56 -203.499s19.333 -159.166 58 -203.499s92 -66.5 160 -66.5
c68.667 0 122.334 22.167 161.001 66.5s58 112.166 58 203.499zM718.997 344.997c0 -60 -8.66797 -113.335 -26.001 -160.002s-41.333 -86 -72 -118s-67 -56.167 -109 -72.5s-88 -24.5 -138 -24.5s-96 8 -138 24s-78.167 39.667 -108.5 71s-54.166 70.333 -71.499 117
s-26 101 -26 163c0 60.667 8.66699 114.334 26 161.001s41.5 85.834 72.5 117.501s67.333 55.667 109 72s87.167 24.5 136.5 24.5c50 0 96 -8.33301 138 -25s78.333 -41 109 -73s54.667 -71.333 72 -118s26 -99.667 26 -159z" />
    <glyph glyph-name="macron" unicode="&#xaf;" horiz-adv-x="335" 
d="M15 645v130h305v-130h-305z" />
    <glyph glyph-name="macron" unicode="&#x2c9;" horiz-adv-x="335" 
d="M15 645v130h305v-130h-305z" />
    <glyph glyph-name="degree" unicode="&#xb0;" horiz-adv-x="413" 
d="M249 525c0 37.333 -2.49902 64 -7.49902 80s-16.5 24 -34.5 24c-16.667 0 -28 -8.16699 -34 -24.5s-9 -42.833 -9 -79.5c0 -35.333 2.5 -61 7.5 -77s16.833 -24 35.5 -24c17.333 0 28.666 7.83301 33.999 23.5s8 41.5 8 77.5zM388.001 525c0 -35.333 -5 -65.333 -15 -90
s-23.333 -44.667 -40 -60s-36 -26.5 -58 -33.5s-44.667 -10.5 -68 -10.5s-45.833 3 -67.5 9s-41 16.5 -58 31.5s-30.667 34.833 -41 59.5s-15.5 56 -15.5 94c0 36.667 5.16699 67.5 15.5 92.5s24 45 41 60s36.333 25.833 58 32.5s44.167 10 67.5 10
c24.667 0 48 -3.16699 70 -9.5s41.333 -17 58 -32s29.667 -35 39 -60s14 -56.167 14 -93.5z" />
    <glyph glyph-name="plusminus" unicode="&#xb1;" horiz-adv-x="575" 
d="M43 -41v134h489v-134h-489zM369 282v-137h-158v137h-168v140h168v167h158v-167h163v-140h-163z" />
    <glyph glyph-name="twosuperior" unicode="&#xb2;" horiz-adv-x="294" 
d="M268 278h-241v80l82 96c14 16.667 25.833 34 35.5 52s14.5 39.667 14.5 65c0 21.333 -3.33301 35.5 -10 42.5s-16.667 10.5 -30 10.5c-9.33301 0 -19.333 -1 -30 -3s-20.334 -4.33301 -29.001 -7c-10.667 -2.66699 -20.667 -5.66699 -30 -9v85
c8.66699 4 18.334 7.33301 29.001 10c9.33301 2.66699 20.333 5 33 7s26.667 3 42 3c43.333 0 77.333 -10.833 102 -32.5s37 -55.834 37 -102.501c0 -38.667 -7 -71.167 -21 -97.5s-32.667 -51.166 -56 -74.499l-37 -38h118z" />
    <glyph glyph-name="threesuperior" unicode="&#xb3;" horiz-adv-x="294" 
d="M272 405c0 -27.333 -4.49512 -49.833 -13.4951 -67.5s-20.667 -31.667 -35 -42s-30.833 -17.5 -49.5 -21.5s-37.334 -6 -56.001 -6c-12.667 0 -24.667 0.666992 -36 2s-21.666 2.66602 -30.999 3.99902c-10.667 2 -20.334 4.33301 -29.001 7v84
c10.667 -2.66699 21.667 -5 33 -7c9.33301 -2 19.166 -3.66699 29.499 -5s19.833 -2 28.5 -2c14.667 0 25.667 3.83301 33 11.5s11 23.5 11 47.5c0 18.667 -4.66699 31.667 -14 39s-24.333 11 -45 11h-46v79h45c17.333 0 30.166 3 38.499 9s12.5 19.667 12.5 41
c0 14.667 -3.16699 24.667 -9.5 30s-15.833 8 -28.5 8c-8.66699 0 -17.834 -0.833008 -27.501 -2.5s-19.167 -3.5 -28.5 -5.5c-10.667 -2.66699 -21.334 -5 -32.001 -7v81c10 2.66699 20.667 5.33398 32 8.00098c9.33301 2 20 4 32 6s24 3 36 3
c17.333 0 34.5 -1.5 51.5 -4.5s32.167 -8.33301 45.5 -16s24 -18.5 32 -32.5s12 -32 12 -54c0 -27.333 -6 -48.5 -18 -63.5s-28.333 -25.833 -49 -32.5c23.333 -7.33301 41.833 -18.5 55.5 -33.5s20.5 -37.833 20.5 -68.5z" />
    <glyph glyph-name="acute" unicode="&#xb4;" horiz-adv-x="325" 
d="M152 620h-137l109 160h186z" />
    <glyph glyph-name="mu" unicode="&#xb5;" horiz-adv-x="525" 
d="M340 0l-20.999 39.002c-10 -8.66699 -21 -16.334 -33 -23.001c-10 -6 -21.333 -11.333 -34 -16s-26 -7 -40 -7v-183h-159v720h159v-356c0 -20 2.83301 -33.333 8.5 -40s14.167 -10 25.5 -10c7.33301 0 15 1.16699 23 3.5s15.333 5.16602 22 8.49902
c7.33301 3.33301 14.666 7.33301 21.999 12v382h159v-530h-132z" />
    <glyph glyph-name="mu" unicode="&#x3bc;" horiz-adv-x="525" 
d="M340 0l-20.999 39.002c-10 -8.66699 -21 -16.334 -33 -23.001c-10 -6 -21.333 -11.333 -34 -16s-26 -7 -40 -7v-183h-159v720h159v-356c0 -20 2.83301 -33.333 8.5 -40s14.167 -10 25.5 -10c7.33301 0 15 1.16699 23 3.5s15.333 5.16602 22 8.49902
c7.33301 3.33301 14.666 7.33301 21.999 12v382h159v-530h-132z" />
    <glyph glyph-name="paragraph" unicode="&#xb6;" horiz-adv-x="636" 
d="M232 577c-11.333 0 -20.668 -1.49902 -28.001 -4.49902s-13.166 -8.66699 -17.499 -17s-7.33301 -20.333 -9 -36s-2.5 -36.167 -2.5 -61.5c0 -24 0.666992 -44 2 -60s4 -28.833 8 -38.5s9.83301 -16.334 17.5 -20.001s17.5 -5.5 29.5 -5.5v243zM231.998 0.000976562v214
c-30 0 -57.833 3.5 -83.5 10.5s-47.834 19.667 -66.501 38s-33.167 43.166 -43.5 74.499s-15.5 71.666 -15.5 120.999c0 50.667 6 91.834 18 123.501s28.5 56.334 49.5 74.001s45.833 29.5 74.5 35.5s59.334 9 92.001 9h119v-700h-144zM438.998 0.000976562v700h144v-700
h-144z" />
    <glyph glyph-name="periodcentered" unicode="&#xb7;" horiz-adv-x="296" 
d="M243 379c0 -13.333 -2.33301 -25.833 -7 -37.5s-11.167 -22 -19.5 -31s-18.166 -16.167 -29.499 -21.5s-24 -8 -38 -8s-26.833 2.66699 -38.5 8s-21.667 12.5 -30 21.5s-15 19.333 -20 31s-7.5 24.167 -7.5 37.5c0 26.667 9.16699 49.334 27.5 68.001
s41.166 28 68.499 28c28 0 50.667 -9.33301 68 -28s26 -41.334 26 -68.001z" />
    <glyph glyph-name="periodcentered" unicode="&#x2219;" horiz-adv-x="296" 
d="M243 379c0 -13.333 -2.33301 -25.833 -7 -37.5s-11.167 -22 -19.5 -31s-18.166 -16.167 -29.499 -21.5s-24 -8 -38 -8s-26.833 2.66699 -38.5 8s-21.667 12.5 -30 21.5s-15 19.333 -20 31s-7.5 24.167 -7.5 37.5c0 26.667 9.16699 49.334 27.5 68.001
s41.166 28 68.499 28c28 0 50.667 -9.33301 68 -28s26 -41.334 26 -68.001z" />
    <glyph glyph-name="cedilla" unicode="&#xb8;" horiz-adv-x="269" 
d="M254 -90c0 -22 -3.66895 -40 -11.002 -54s-17.166 -25.167 -29.499 -33.5s-26.833 -14.166 -43.5 -17.499s-34 -5 -52 -5c-12 0 -24.167 0.833008 -36.5 2.5s-23.5 3.83398 -33.5 6.50098c-12 2.66699 -23 6 -33 10v97c11.333 -3.33301 22 -6.33301 32 -9
c8.66699 -2.66699 17.334 -4.83398 26.001 -6.50098s15.667 -2.5 21 -2.5c10.667 0 18.834 2.16699 24.501 6.5s8.5 12.166 8.5 23.499c0 9.33301 -1.83301 18.833 -5.5 28.5s-7.83398 18.5 -12.501 26.5c-5.33301 9.33301 -11 18.333 -17 27h86
c14 -6.66699 26.667 -14.667 38 -24c9.33301 -8 18 -18.333 26 -31s12 -27.667 12 -45z" />
    <glyph glyph-name="onesuperior" unicode="&#xb9;" horiz-adv-x="294" 
d="M120 278v309l-81 -38v91l108 60h87v-422h-114z" />
    <glyph glyph-name="ordmasculine" unicode="&#xba;" horiz-adv-x="421" 
d="M257 479c0 28 -0.667969 50.8359 -2.00098 68.5029s-3.66602 31.167 -6.99902 40.5s-8 15.666 -14 18.999s-13.667 5 -23 5c-8.66699 0 -16 -2 -22 -6s-10.833 -11 -14.5 -21s-6.33398 -23.5 -8.00098 -40.5s-2.5 -38.833 -2.5 -65.5s0.833008 -48.5 2.5 -65.5
s4.5 -30.333 8.5 -40s9 -16.334 15 -20.001s13 -5.5 21 -5.5s14.833 1.5 20.5 4.5s10.334 9.16699 14.001 18.5s6.5 22.666 8.5 39.999s3 40 3 68zM19.999 0.00292969v135h381v-135h-381zM400.999 479.003c0 -48 -5.33301 -86.835 -16 -116.502s-24.834 -53 -42.501 -70
s-37.834 -28.5 -60.501 -34.5s-46.334 -9 -71.001 -9c-25.333 0 -49.5 3 -72.5 9s-43.167 17.5 -60.5 34.5s-31.333 40.5 -42 70.5s-16 68.667 -16 116c0 46 5.33301 83.833 16 113.5s24.667 53.334 42 71.001s37.5 29.834 60.5 36.501s47.167 10 72.5 10
c24.667 0 48.334 -3.16699 71.001 -9.5s42.834 -18 60.501 -35s31.834 -40.5 42.501 -70.5s16 -68.667 16 -116z" />
    <glyph glyph-name="guillemotright" unicode="&#xbb;" horiz-adv-x="503" 
d="M35 53v207l84 77l-84 73v207l209 -233v-98zM269 53v207l84 77l-84 73v207l209 -233v-98z" />
    <glyph glyph-name="onequarter" unicode="&#xbc;" horiz-adv-x="827" 
d="M120 278v309l-81 -38v91l108 60h87v-422h-114zM288 -110h-114l365 920h114zM818 76h-21v-76h-115v76h-149v77l25 269h126l-39 -257h38l22 137h92v-137h29z" />
    <glyph glyph-name="onehalf" unicode="&#xbd;" horiz-adv-x="827" 
d="M120 278v309l-81 -38v91l108 60h87v-422h-114zM288 -110h-114l365 920h114zM801 0h-241v80l82 96c14 16.667 25.833 34 35.5 52s14.5 39.667 14.5 65c0 21.333 -3.33301 35.5 -10 42.5s-16.667 10.5 -30 10.5c-9.33301 0 -19.333 -1 -30 -3s-20.334 -4.33301 -29.001 -7
c-10.667 -2.66699 -20.667 -5.66699 -30 -9v85c8.66699 4 18.334 7.33301 29.001 10c9.33301 2.66699 20.333 5 33 7s26.667 3 42 3c43.333 0 77.333 -10.833 102 -32.5s37 -55.834 37 -102.501c0 -38.667 -7 -71.167 -21 -97.5s-32.667 -51.166 -56 -74.499l-37 -38h118z
" />
    <glyph glyph-name="threequarters" unicode="&#xbe;" horiz-adv-x="827" 
d="M272 405c0 -27.333 -4.49512 -49.833 -13.4951 -67.5s-20.667 -31.667 -35 -42s-30.833 -17.5 -49.5 -21.5s-37.334 -6 -56.001 -6c-12.667 0 -24.667 0.666992 -36 2s-21.666 2.66602 -30.999 3.99902c-10.667 2 -20.334 4.33301 -29.001 7v84
c10.667 -2.66699 21.667 -5 33 -7c9.33301 -2 19.166 -3.66699 29.499 -5s19.833 -2 28.5 -2c14.667 0 25.667 3.83301 33 11.5s11 23.5 11 47.5c0 18.667 -4.66699 31.667 -14 39s-24.333 11 -45 11h-46v79h45c17.333 0 30.166 3 38.499 9s12.5 19.667 12.5 41
c0 14.667 -3.16699 24.667 -9.5 30s-15.833 8 -28.5 8c-8.66699 0 -17.834 -0.833008 -27.501 -2.5s-19.167 -3.5 -28.5 -5.5c-10.667 -2.66699 -21.334 -5 -32.001 -7v81c10 2.66699 20.667 5.33398 32 8.00098c9.33301 2 20 4 32 6s24 3 36 3
c17.333 0 34.5 -1.5 51.5 -4.5s32.167 -8.33301 45.5 -16s24 -18.5 32 -32.5s12 -32 12 -54c0 -27.333 -6 -48.5 -18 -63.5s-28.333 -25.833 -49 -32.5c23.333 -7.33301 41.833 -18.5 55.5 -33.5s20.5 -37.833 20.5 -68.5zM288.005 -110h-114l365 920h114zM818.005 76h-21
v-76h-115v76h-149v77l25 269h126l-39 -257h38l22 137h92v-137h29z" />
    <glyph glyph-name="questiondown" unicode="&#xbf;" horiz-adv-x="362" 
d="M332 -175c-15.333 -5.33301 -31.668 -9.66895 -49.001 -13.002c-14.667 -3.33301 -31 -6.16602 -49 -8.49902s-36 -3.5 -54 -3.5c-22 0 -42.667 2.5 -62 7.5s-36.333 13.167 -51 24.5s-26.167 26.5 -34.5 45.5s-12.5 42.5 -12.5 70.5c0 19.333 2.33301 36.333 7 51
s10.834 27.667 18.501 39s16 21.5 25 30.5l25.5 26.5c12 12 22.167 25.667 30.5 41s12.5 38 12.5 68c0 20.667 -2.33301 42.667 -7 66h138c4 -25.333 6 -47.666 6 -66.999c0 -22 -1.66699 -41 -5 -57s-7.5 -29.833 -12.5 -41.5s-10.667 -21.834 -17 -30.501
s-12.833 -16.667 -19.5 -24c-11.333 -13.333 -21.666 -26.333 -30.999 -39s-14 -29 -14 -49c0 -15.333 4.16699 -25.5 12.5 -30.5s19.166 -7.5 32.499 -7.5c10 0 21.333 1 34 3s24.667 4.66699 36 8c12.667 2.66699 26 6.33398 40 11.001v-121zM292.998 451.997
c0 -26.667 -9.16699 -49.5 -27.5 -68.5s-41.166 -28.5 -68.499 -28.5c-28 0 -50.667 9.5 -68 28.5s-26 41.833 -26 68.5c0 12.667 2.33301 25 7 37s11.167 22.5 19.5 31.5s18.166 16.167 29.499 21.5s24 8 38 8s26.833 -2.66699 38.5 -8s21.667 -12.5 30 -21.5
s15 -19.333 20 -31s7.5 -24.167 7.5 -37.5z" />
    <glyph glyph-name="Agrave" unicode="&#xc0;" horiz-adv-x="524" 
d="M294 400c-2.66699 16.667 -5.83301 37.667 -9.5 63l-10.5 74l-12 87c-4.66699 -30 -8.66699 -59 -12 -87l-10 -74c-3.33301 -25.333 -6.33301 -46.333 -9 -63l-23 -151h108zM355.001 0l-22 132h-142l-22 -132h-166l166 700h187l165 -700h-166zM195.001 750l-159 130h192
l103 -130h-136z" />
    <glyph glyph-name="Aacute" unicode="&#xc1;" horiz-adv-x="524" 
d="M294 400c-2.66699 16.667 -5.83301 37.667 -9.5 63l-10.5 74l-12 87c-4.66699 -30 -8.66699 -59 -12 -87l-10 -74c-3.33301 -25.333 -6.33301 -46.333 -9 -63l-23 -151h108zM355.001 0l-22 132h-142l-22 -132h-166l166 700h187l165 -700h-166zM334.001 750h-137l104 130
h191z" />
    <glyph glyph-name="Acircumflex" unicode="&#xc2;" horiz-adv-x="524" 
d="M294 400c-2.66699 16.667 -5.83301 37.667 -9.5 63l-10.5 74l-12 87c-4.66699 -30 -8.66699 -59 -12 -87l-10 -74c-3.33301 -25.333 -6.33301 -46.333 -9 -63l-23 -151h108zM355.001 0l-22 132h-142l-22 -132h-166l166 700h187l165 -700h-166zM315.001 750l-51 62
l-51 -62h-152l128 130h144l129 -130h-147z" />
    <glyph glyph-name="Atilde" unicode="&#xc3;" horiz-adv-x="524" 
d="M294 400c-2.66699 16.667 -5.83301 37.667 -9.5 63l-10.5 74l-12 87c-4.66699 -30 -8.66699 -59 -12 -87l-10 -74c-3.33301 -25.333 -6.33301 -46.333 -9 -63l-23 -151h108zM355.001 0l-22 132h-142l-22 -132h-166l166 700h187l165 -700h-166zM427.001 770
c-27.333 -17.333 -53.333 -26.002 -78 -26.002c-16 0 -31.167 1.83301 -45.5 5.5s-28.5 7.83398 -42.5 12.501s-27.833 8.83398 -41.5 12.501s-27.5 5.5 -41.5 5.5c-23.333 0 -50.333 -10 -81 -30v120c32 18.667 62.667 28 92 28c15.333 0 30.5 -1.83301 45.5 -5.5
s29.667 -7.5 44 -11.5l41.5 -11.5c13.333 -3.66699 26 -5.5 38 -5.5c18 0 41 8.33301 69 25v-119z" />
    <glyph glyph-name="Adieresis" unicode="&#xc4;" horiz-adv-x="524" 
d="M294 400c-2.66699 16.667 -5.83301 37.667 -9.5 63l-10.5 74l-12 87c-4.66699 -30 -8.66699 -59 -12 -87l-10 -74c-3.33301 -25.333 -6.33301 -46.333 -9 -63l-23 -151h108zM355.001 0l-22 132h-142l-22 -132h-166l166 700h187l165 -700h-166zM221.001 830
c0 -22 -7.5 -40.833 -22.5 -56.5s-33.5 -23.5 -55.5 -23.5s-40.667 7.83301 -56 23.5s-23 34.5 -23 56.5s7.66699 40.833 23 56.5s34 23.5 56 23.5s40.5 -7.83301 55.5 -23.5s22.5 -34.5 22.5 -56.5zM459.001 830c0 -22 -7.5 -40.833 -22.5 -56.5s-33.5 -23.5 -55.5 -23.5
s-40.667 7.83301 -56 23.5s-23 34.5 -23 56.5s7.66699 40.833 23 56.5s34 23.5 56 23.5s40.5 -7.83301 55.5 -23.5s22.5 -34.5 22.5 -56.5z" />
    <glyph glyph-name="Aring" unicode="&#xc5;" horiz-adv-x="524" 
d="M294 400c-2.66699 16.667 -5.83301 37.667 -9.5 63l-10.5 74l-12 87c-4.66699 -30 -8.66699 -59 -12 -87l-10 -74c-3.33301 -25.333 -6.33301 -46.333 -9 -63l-23 -151h108zM308.001 823c0 17.333 -4 29.668 -12 37.001s-19.333 11 -34 11c-30.667 0 -46 -16 -46 -48
s15.333 -48 46 -48c13.333 0 24.333 3.66699 33 11s13 19.666 13 36.999zM355.001 0.00195312l-22 132h-142l-22 -132h-166l166 700h187l165 -700h-166zM409.001 823.002c0 -20.667 -3.66797 -38.666 -11.001 -53.999s-17.5 -28 -30.5 -38s-28.5 -17.5 -46.5 -22.5
s-37.667 -7.5 -59 -7.5s-41 2.33301 -59 7s-33.667 12 -47 22s-23.666 22.667 -30.999 38s-11 33.666 -11 54.999c0 42 13.333 72.833 40 92.5s62.667 29.5 108 29.5c20.667 0 40 -2.5 58 -7.5s33.5 -12.5 46.5 -22.5s23.333 -22.667 31 -38s11.5 -33.333 11.5 -54z" />
    <glyph glyph-name="AE" unicode="&#xc6;" horiz-adv-x="636" 
d="M287 613c-5.33301 -30.667 -10.667 -59.667 -16 -87l-14 -70.5l-11 -55.5l-33 -151h74v364zM596.999 572h-151v-147h141v-117h-141v-180h160v-128h-319v132h-95l-26 -132h-171l196 700h420z" />
    <glyph glyph-name="Ccedilla" unicode="&#xc7;" horiz-adv-x="417" 
d="M399 15c-8 -3.33301 -16.6699 -6.33398 -26.0029 -9.00098c-8 -2.66699 -17.5 -5.33398 -28.5 -8.00098s-23.167 -4.66699 -36.5 -6c10.667 -8 21 -18.667 31 -32s15 -30 15 -50c0 -22 -3.66699 -40 -11 -54s-17.166 -25.167 -29.499 -33.5
s-26.833 -14.166 -43.5 -17.499s-34 -5 -52 -5c-12 0 -24.167 0.833008 -36.5 2.5s-23.5 3.83398 -33.5 6.50098c-12 2.66699 -23 6 -33 10v97c11.333 -3.33301 22 -6.33301 32 -9c8.66699 -2.66699 17.334 -4.83398 26.001 -6.50098s15.667 -2.5 21 -2.5
c10.667 0 18.834 2.16699 24.501 6.5s8.5 12.166 8.5 23.499c0 12.667 -2.83301 25.167 -8.5 37.5s-11.167 22.5 -16.5 30.5c-20.667 4.66699 -40.834 13.334 -60.501 26.001s-37 32 -52 58s-27 60.167 -36 102.5s-13.5 95.5 -13.5 159.5c0 82 8.5 147.333 25.5 196
s38 85.667 63 111s52 41.833 81 49.5s55.833 11.5 80.5 11.5c17.333 0 32.833 -1.16699 46.5 -3.5s25.167 -5.16602 34.5 -8.49902c10.667 -3.33301 20 -7 28 -11v-122c-10 4 -20.667 7.33301 -32 10c-9.33301 2.66699 -20.166 5.16699 -32.499 7.5s-25.166 3.5 -38.499 3.5
c-14 0 -26.833 -3.66699 -38.5 -11s-21.834 -20.166 -30.501 -38.499s-15.5 -43.333 -20.5 -75s-7.5 -71.5 -7.5 -119.5c0 -44.667 1.83301 -81.5 5.5 -110.5s9.16699 -52 16.5 -69s16.333 -29 27 -36s23 -10.5 37 -10.5c12.667 0 25.667 1.33301 39 4
s25.666 5.66699 36.999 9c12.667 3.33301 25.334 7.66602 38.001 12.999v-127z" />
    <glyph glyph-name="Egrave" unicode="&#xc8;" horiz-adv-x="442" 
d="M402 572h-180v-147h165v-117h-165v-180h190v-128h-349v700h354zM194 750l-159 130h192l103 -130h-136z" />
    <glyph glyph-name="Eacute" unicode="&#xc9;" horiz-adv-x="442" 
d="M402 572h-180v-147h165v-117h-165v-180h190v-128h-349v700h354zM292 750h-137l104 130h191z" />
    <glyph glyph-name="Ecircumflex" unicode="&#xca;" horiz-adv-x="442" 
d="M402 572h-180v-147h165v-117h-165v-180h190v-128h-349v700h354zM289 750l-51 62l-51 -62h-152l128 130h144l129 -130h-147z" />
    <glyph glyph-name="Edieresis" unicode="&#xcb;" horiz-adv-x="442" 
d="M402 572h-180v-147h165v-117h-165v-180h190v-128h-349v700h354zM192 830c0 -22 -7.5 -40.833 -22.5 -56.5s-33.5 -23.5 -55.5 -23.5s-40.667 7.83301 -56 23.5s-23 34.5 -23 56.5s7.66699 40.833 23 56.5s34 23.5 56 23.5s40.5 -7.83301 55.5 -23.5
s22.5 -34.5 22.5 -56.5zM430 830c0 -22 -7.5 -40.833 -22.5 -56.5s-33.5 -23.5 -55.5 -23.5s-40.667 7.83301 -56 23.5s-23 34.5 -23 56.5s7.66699 40.833 23 56.5s34 23.5 56 23.5s40.5 -7.83301 55.5 -23.5s22.5 -34.5 22.5 -56.5z" />
    <glyph glyph-name="Igrave" unicode="&#xcc;" horiz-adv-x="287" 
d="M63 0v700h161v-700h-161zM73 750l-159 130h192l103 -130h-136z" />
    <glyph glyph-name="Iacute" unicode="&#xcd;" horiz-adv-x="287" 
d="M63 0v700h161v-700h-161zM210 750h-137l104 130h191z" />
    <glyph glyph-name="Icircumflex" unicode="&#xce;" horiz-adv-x="287" 
d="M63 0v700h161v-700h-161zM197 750l-51 62l-51 -62h-152l128 130h144l129 -130h-147z" />
    <glyph glyph-name="Idieresis" unicode="&#xcf;" horiz-adv-x="287" 
d="M63 0v700h161v-700h-161zM113 830c0 -22 -7.5 -40.833 -22.5 -56.5s-33.5 -23.5 -55.5 -23.5s-40.667 7.83301 -56 23.5s-23 34.5 -23 56.5s7.66699 40.833 23 56.5s34 23.5 56 23.5s40.5 -7.83301 55.5 -23.5s22.5 -34.5 22.5 -56.5zM331 830
c0 -22 -7.5 -40.833 -22.5 -56.5s-33.5 -23.5 -55.5 -23.5s-40.667 7.83301 -56 23.5s-23 34.5 -23 56.5s7.66699 40.833 23 56.5s34 23.5 56 23.5s40.5 -7.83301 55.5 -23.5s22.5 -34.5 22.5 -56.5z" />
    <glyph glyph-name="Eth" unicode="&#xd0;" horiz-adv-x="552" 
d="M353 355c0 48.667 -2.16699 87.6699 -6.5 117.003s-10.833 51.666 -19.5 66.999s-19 25.5 -31 30.5s-26 7.5 -42 7.5h-22v-162h70v-97h-70v-195h18c18.667 0 34.5 2.5 47.5 7.5s23.667 15.667 32 32s14.333 39.666 18 69.999s5.5 71.166 5.5 122.499zM512 355.003
c0 -78.667 -6.99902 -141.332 -20.999 -187.999s-33.167 -82.334 -57.5 -107.001s-52.833 -40.834 -85.5 -48.501s-67.334 -11.5 -104.001 -11.5h-171v318h-55v97h55v285h171c34.667 0 68 -3.16699 100 -9.5s60.5 -21.166 85.5 -44.499s45 -58 60 -104
s22.5 -108.333 22.5 -187z" />
    <glyph glyph-name="Ntilde" unicode="&#xd1;" horiz-adv-x="565" 
d="M366 0l-81 196c-11.333 26.667 -22.166 54.667 -32.499 84l-27.5 81l-27 85c4 -28 7.33301 -56.333 10 -85c2.66699 -24.667 5 -51.667 7 -81s3 -57.333 3 -84v-196h-155v700h146l78 -192c11.333 -28 21.833 -56 31.5 -84s18.167 -53.667 25.5 -77l23 -77
c-4.66699 26 -8.33398 53 -11.001 81c-2.66699 24 -5 51 -7 81s-3 60 -3 90v178h156v-700h-136zM448 770c-27.333 -17.333 -53.333 -26.002 -78 -26.002c-16 0 -31.167 1.83301 -45.5 5.5s-28.5 7.83398 -42.5 12.501s-27.833 8.83398 -41.5 12.501s-27.5 5.5 -41.5 5.5
c-23.333 0 -50.333 -10 -81 -30v120c32 18.667 62.667 28 92 28c15.333 0 30.5 -1.83301 45.5 -5.5s29.667 -7.5 44 -11.5l41.5 -11.5c13.333 -3.66699 26 -5.5 38 -5.5c18 0 41 8.33301 69 25v-119z" />
    <glyph glyph-name="Ograve" unicode="&#xd2;" 
d="M348 350c0 48.667 -1.49902 89.0039 -4.49902 121.004s-7.5 57.167 -13.5 75.5s-13.833 31.166 -23.5 38.499s-21.167 11 -34.5 11c-12.667 0 -23.834 -3 -33.501 -9s-17.667 -18 -24 -36s-11 -43 -14 -75s-4.5 -74 -4.5 -126c0 -53.333 1.83301 -96 5.5 -128
s8.83398 -56.833 15.501 -74.5s14.667 -29.334 24 -35.001s19.666 -8.5 30.999 -8.5c10.667 0 20.667 2.66699 30 8s17.5 16.666 24.5 33.999s12.333 42.166 16 74.499s5.5 75.5 5.5 129.5zM506.001 350.004c0 -53.333 -3.16699 -99.333 -9.5 -138s-15 -71.334 -26 -98.001
s-24.167 -48 -39.5 -64s-31.666 -28.5 -48.999 -37.5s-35.333 -15 -54 -18s-37.334 -4.5 -56.001 -4.5c-18 0 -36.167 1.33301 -54.5 4s-36.166 8.16699 -53.499 16.5s-33.666 20.5 -48.999 36.5s-28.666 37.333 -39.999 64s-20.333 59.5 -27 98.5s-10 85.833 -10 140.5
c0 53.333 3.33301 99.333 10 138s15.667 71.334 27 98.001s24.666 48 39.999 64s31.666 28.5 48.999 37.5s35.166 15 53.499 18s36.5 4.5 54.5 4.5c26 0 52.667 -3.83301 80 -11.5s52.5 -24 75.5 -49s41.833 -61.167 56.5 -108.5s22 -111 22 -191zM214.001 750.004l-159 130
h192l103 -130h-136z" />
    <glyph glyph-name="Oacute" unicode="&#xd3;" 
d="M348 350c0 48.667 -1.49902 89.0039 -4.49902 121.004s-7.5 57.167 -13.5 75.5s-13.833 31.166 -23.5 38.499s-21.167 11 -34.5 11c-12.667 0 -23.834 -3 -33.501 -9s-17.667 -18 -24 -36s-11 -43 -14 -75s-4.5 -74 -4.5 -126c0 -53.333 1.83301 -96 5.5 -128
s8.83398 -56.833 15.501 -74.5s14.667 -29.334 24 -35.001s19.666 -8.5 30.999 -8.5c10.667 0 20.667 2.66699 30 8s17.5 16.666 24.5 33.999s12.333 42.166 16 74.499s5.5 75.5 5.5 129.5zM506.001 350.004c0 -53.333 -3.16699 -99.333 -9.5 -138s-15 -71.334 -26 -98.001
s-24.167 -48 -39.5 -64s-31.666 -28.5 -48.999 -37.5s-35.333 -15 -54 -18s-37.334 -4.5 -56.001 -4.5c-18 0 -36.167 1.33301 -54.5 4s-36.166 8.16699 -53.499 16.5s-33.666 20.5 -48.999 36.5s-28.666 37.333 -39.999 64s-20.333 59.5 -27 98.5s-10 85.833 -10 140.5
c0 53.333 3.33301 99.333 10 138s15.667 71.334 27 98.001s24.666 48 39.999 64s31.666 28.5 48.999 37.5s35.166 15 53.499 18s36.5 4.5 54.5 4.5c26 0 52.667 -3.83301 80 -11.5s52.5 -24 75.5 -49s41.833 -61.167 56.5 -108.5s22 -111 22 -191zM332.001 750.004h-137
l104 130h191z" />
    <glyph glyph-name="Ocircumflex" unicode="&#xd4;" 
d="M348 350c0 48.667 -1.49902 89.0039 -4.49902 121.004s-7.5 57.167 -13.5 75.5s-13.833 31.166 -23.5 38.499s-21.167 11 -34.5 11c-12.667 0 -23.834 -3 -33.501 -9s-17.667 -18 -24 -36s-11 -43 -14 -75s-4.5 -74 -4.5 -126c0 -53.333 1.83301 -96 5.5 -128
s8.83398 -56.833 15.501 -74.5s14.667 -29.334 24 -35.001s19.666 -8.5 30.999 -8.5c10.667 0 20.667 2.66699 30 8s17.5 16.666 24.5 33.999s12.333 42.166 16 74.499s5.5 75.5 5.5 129.5zM506.001 350.004c0 -53.333 -3.16699 -99.333 -9.5 -138s-15 -71.334 -26 -98.001
s-24.167 -48 -39.5 -64s-31.666 -28.5 -48.999 -37.5s-35.333 -15 -54 -18s-37.334 -4.5 -56.001 -4.5c-18 0 -36.167 1.33301 -54.5 4s-36.166 8.16699 -53.499 16.5s-33.666 20.5 -48.999 36.5s-28.666 37.333 -39.999 64s-20.333 59.5 -27 98.5s-10 85.833 -10 140.5
c0 53.333 3.33301 99.333 10 138s15.667 71.334 27 98.001s24.666 48 39.999 64s31.666 28.5 48.999 37.5s35.166 15 53.499 18s36.5 4.5 54.5 4.5c26 0 52.667 -3.83301 80 -11.5s52.5 -24 75.5 -49s41.833 -61.167 56.5 -108.5s22 -111 22 -191zM325.001 750.004l-51 62
l-51 -62h-152l128 130h144l129 -130h-147z" />
    <glyph glyph-name="Otilde" unicode="&#xd5;" 
d="M348 350c0 48.667 -1.49902 89.0039 -4.49902 121.004s-7.5 57.167 -13.5 75.5s-13.833 31.166 -23.5 38.499s-21.167 11 -34.5 11c-12.667 0 -23.834 -3 -33.501 -9s-17.667 -18 -24 -36s-11 -43 -14 -75s-4.5 -74 -4.5 -126c0 -53.333 1.83301 -96 5.5 -128
s8.83398 -56.833 15.501 -74.5s14.667 -29.334 24 -35.001s19.666 -8.5 30.999 -8.5c10.667 0 20.667 2.66699 30 8s17.5 16.666 24.5 33.999s12.333 42.166 16 74.499s5.5 75.5 5.5 129.5zM506.001 350.004c0 -53.333 -3.16699 -99.333 -9.5 -138s-15 -71.334 -26 -98.001
s-24.167 -48 -39.5 -64s-31.666 -28.5 -48.999 -37.5s-35.333 -15 -54 -18s-37.334 -4.5 -56.001 -4.5c-18 0 -36.167 1.33301 -54.5 4s-36.166 8.16699 -53.499 16.5s-33.666 20.5 -48.999 36.5s-28.666 37.333 -39.999 64s-20.333 59.5 -27 98.5s-10 85.833 -10 140.5
c0 53.333 3.33301 99.333 10 138s15.667 71.334 27 98.001s24.666 48 39.999 64s31.666 28.5 48.999 37.5s35.166 15 53.499 18s36.5 4.5 54.5 4.5c26 0 52.667 -3.83301 80 -11.5s52.5 -24 75.5 -49s41.833 -61.167 56.5 -108.5s22 -111 22 -191zM437.001 770.004
c-27.333 -17.333 -53.333 -26.002 -78 -26.002c-16 0 -31.167 1.83301 -45.5 5.5s-28.5 7.83398 -42.5 12.501s-27.833 8.83398 -41.5 12.501s-27.5 5.5 -41.5 5.5c-23.333 0 -50.333 -10 -81 -30v120c32 18.667 62.667 28 92 28c15.333 0 30.5 -1.83301 45.5 -5.5
s29.667 -7.5 44 -11.5l41.5 -11.5c13.333 -3.66699 26 -5.5 38 -5.5c18 0 41 8.33301 69 25v-119z" />
    <glyph glyph-name="Odieresis" unicode="&#xd6;" 
d="M348 350c0 48.667 -1.49902 89.0039 -4.49902 121.004s-7.5 57.167 -13.5 75.5s-13.833 31.166 -23.5 38.499s-21.167 11 -34.5 11c-12.667 0 -23.834 -3 -33.501 -9s-17.667 -18 -24 -36s-11 -43 -14 -75s-4.5 -74 -4.5 -126c0 -53.333 1.83301 -96 5.5 -128
s8.83398 -56.833 15.501 -74.5s14.667 -29.334 24 -35.001s19.666 -8.5 30.999 -8.5c10.667 0 20.667 2.66699 30 8s17.5 16.666 24.5 33.999s12.333 42.166 16 74.499s5.5 75.5 5.5 129.5zM506.001 350.004c0 -53.333 -3.16699 -99.333 -9.5 -138s-15 -71.334 -26 -98.001
s-24.167 -48 -39.5 -64s-31.666 -28.5 -48.999 -37.5s-35.333 -15 -54 -18s-37.334 -4.5 -56.001 -4.5c-18 0 -36.167 1.33301 -54.5 4s-36.166 8.16699 -53.499 16.5s-33.666 20.5 -48.999 36.5s-28.666 37.333 -39.999 64s-20.333 59.5 -27 98.5s-10 85.833 -10 140.5
c0 53.333 3.33301 99.333 10 138s15.667 71.334 27 98.001s24.666 48 39.999 64s31.666 28.5 48.999 37.5s35.166 15 53.499 18s36.5 4.5 54.5 4.5c26 0 52.667 -3.83301 80 -11.5s52.5 -24 75.5 -49s41.833 -61.167 56.5 -108.5s22 -111 22 -191zM231.001 830.004
c0 -22 -7.5 -40.833 -22.5 -56.5s-33.5 -23.5 -55.5 -23.5s-40.667 7.83301 -56 23.5s-23 34.5 -23 56.5s7.66699 40.833 23 56.5s34 23.5 56 23.5s40.5 -7.83301 55.5 -23.5s22.5 -34.5 22.5 -56.5zM469.001 830.004c0 -22 -7.5 -40.833 -22.5 -56.5
s-33.5 -23.5 -55.5 -23.5s-40.667 7.83301 -56 23.5s-23 34.5 -23 56.5s7.66699 40.833 23 56.5s34 23.5 56 23.5s40.5 -7.83301 55.5 -23.5s22.5 -34.5 22.5 -56.5z" />
    <glyph glyph-name="multiply" unicode="&#xd7;" horiz-adv-x="516" 
d="M368 337l117 -116l-113 -112l-116 115l-117 -117l-109 109l117 117l-116 116l113 112l116 -115l117 117l109 -109z" />
    <glyph glyph-name="Oslash" unicode="&#xd8;" 
d="M348 350c0 21.333 -0.5 40.834 -1.5 58.501s-2.16699 33.834 -3.5 48.501l-113 -334c6 -7.33301 12.5 -12.333 19.5 -15s14.5 -4 22.5 -4c10.667 0 20.667 2.66699 30 8s17.5 16.666 24.5 33.999s12.333 42.166 16 74.499s5.5 75.5 5.5 129.5zM314 577.001
c-10.667 12.667 -24.666 19.001 -41.999 19.001c-12.667 0 -23.834 -3 -33.501 -9s-17.667 -18 -24 -36s-11 -43 -14 -75s-4.5 -74 -4.5 -126c0 -21.333 0.5 -40.833 1.5 -58.5s2.16699 -33.834 3.5 -48.501zM506.001 350.002c0 -53.333 -3.33203 -99.334 -9.99902 -138.001
s-15.667 -71.334 -27 -98.001s-24.666 -48 -39.999 -64s-31.666 -28.5 -48.999 -37.5s-35.333 -15 -54 -18s-36.667 -4.5 -54 -4.5c-13.333 0 -26.666 0.666992 -39.999 2s-26.666 4 -39.999 8l-37 -110h-79l50 147c-12.667 11.333 -24.334 25.833 -35.001 43.5
s-20 39.167 -28 64.5s-14.167 54.833 -18.5 88.5s-6.5 72.5 -6.5 116.5c0 54 3.33301 100.333 10 139s15.667 71.334 27 98.001s24.666 48.167 39.999 64.5s31.666 28.833 48.999 37.5s35.166 14.334 53.499 17.001s36.5 4 54.5 4c12.667 0 25.667 -0.666992 39 -2
s26.666 -4.33301 39.999 -9l38 111h79l-51 -150c12.667 -12 24.5 -26.833 35.5 -44.5s20.5 -39 28.5 -64s14.167 -54.167 18.5 -87.5s6.5 -71.333 6.5 -114z" />
    <glyph glyph-name="Ugrave" unicode="&#xd9;" horiz-adv-x="550" 
d="M490 194c0 -37.333 -4.66699 -69 -14 -95s-23.166 -47 -41.499 -63s-40.833 -27.667 -67.5 -35s-57.334 -11 -92.001 -11c-36 0 -67.5 3.5 -94.5 10.5s-49.333 18.5 -67 34.5s-31 37 -40 63s-13.5 58 -13.5 96v506h159v-524c0 -22.667 4 -39.167 12 -49.5
s22.667 -15.5 44 -15.5c37.333 0 56 21.667 56 65v524h159v-506zM214 750l-159 130h192l103 -130h-136z" />
    <glyph glyph-name="Uacute" unicode="&#xda;" horiz-adv-x="550" 
d="M490 194c0 -37.333 -4.66699 -69 -14 -95s-23.166 -47 -41.499 -63s-40.833 -27.667 -67.5 -35s-57.334 -11 -92.001 -11c-36 0 -67.5 3.5 -94.5 10.5s-49.333 18.5 -67 34.5s-31 37 -40 63s-13.5 58 -13.5 96v506h159v-524c0 -22.667 4 -39.167 12 -49.5
s22.667 -15.5 44 -15.5c37.333 0 56 21.667 56 65v524h159v-506zM334 750h-137l104 130h191z" />
    <glyph glyph-name="Ucircumflex" unicode="&#xdb;" horiz-adv-x="550" 
d="M490 194c0 -37.333 -4.66699 -69 -14 -95s-23.166 -47 -41.499 -63s-40.833 -27.667 -67.5 -35s-57.334 -11 -92.001 -11c-36 0 -67.5 3.5 -94.5 10.5s-49.333 18.5 -67 34.5s-31 37 -40 63s-13.5 58 -13.5 96v506h159v-524c0 -22.667 4 -39.167 12 -49.5
s22.667 -15.5 44 -15.5c37.333 0 56 21.667 56 65v524h159v-506zM329 750l-51 62l-51 -62h-152l128 130h144l129 -130h-147z" />
    <glyph glyph-name="Udieresis" unicode="&#xdc;" horiz-adv-x="550" 
d="M490 194c0 -37.333 -4.66699 -69 -14 -95s-23.166 -47 -41.499 -63s-40.833 -27.667 -67.5 -35s-57.334 -11 -92.001 -11c-36 0 -67.5 3.5 -94.5 10.5s-49.333 18.5 -67 34.5s-31 37 -40 63s-13.5 58 -13.5 96v506h159v-524c0 -22.667 4 -39.167 12 -49.5
s22.667 -15.5 44 -15.5c37.333 0 56 21.667 56 65v524h159v-506zM235 830c0 -22 -7.5 -40.833 -22.5 -56.5s-33.5 -23.5 -55.5 -23.5s-40.667 7.83301 -56 23.5s-23 34.5 -23 56.5s7.66699 40.833 23 56.5s34 23.5 56 23.5s40.5 -7.83301 55.5 -23.5s22.5 -34.5 22.5 -56.5z
M473 830c0 -22 -7.5 -40.833 -22.5 -56.5s-33.5 -23.5 -55.5 -23.5s-40.667 7.83301 -56 23.5s-23 34.5 -23 56.5s7.66699 40.833 23 56.5s34 23.5 56 23.5s40.5 -7.83301 55.5 -23.5s22.5 -34.5 22.5 -56.5z" />
    <glyph glyph-name="Yacute" unicode="&#xdd;" horiz-adv-x="494" 
d="M326 276v-276h-158v276l-170 424h177l72 -290l72 290h177zM312 750h-137l104 130h191z" />
    <glyph glyph-name="Thorn" unicode="&#xde;" horiz-adv-x="498" 
d="M317 360c0 26 -1.33008 47.333 -3.99707 64s-6.83398 29.834 -12.501 39.501s-12.834 16.167 -21.501 19.5s-19.334 5 -32.001 5h-25v-272c21.333 2 38.333 6.16699 51 12.5s22.167 15.166 28.5 26.499s10.5 25.5 12.5 42.5s3 37.833 3 62.5zM473.003 360
c0 -45.333 -5.50098 -83.499 -16.501 -114.499s-27.167 -56.167 -48.5 -75.5s-47.5 -33.5 -78.5 -42.5s-66.833 -14.167 -107.5 -15.5v-112h-159v700h159v-100h17c40.667 0 75.834 -4 105.501 -12s54 -21.333 73 -40s33 -43.334 42 -74.001s13.5 -68.667 13.5 -114z" />
    <glyph glyph-name="germandbls" unicode="&#xdf;" horiz-adv-x="496" 
d="M43 256v134h410v-134h-410z" />
    <glyph glyph-name="agrave" unicode="&#xe0;" horiz-adv-x="524" 
d="M293 332c-3.33301 15.333 -6.66699 32.499 -10 51.499l-10 54.5c-3.33301 19.333 -7 39 -11 59c-4 -20 -7.66699 -39.667 -11 -59c-3.33301 -16.667 -6.5 -34.667 -9.5 -54s-6.16699 -36.666 -9.5 -51.999l-24 -126h108zM354.999 -0.000976562l-19 94h-148l-19 -94h-166
l163 560h193l162 -560h-166zM190.999 619.999l-159 160h187l108 -160h-136z" />
    <glyph glyph-name="aacute" unicode="&#xe1;" horiz-adv-x="524" 
d="M293 332c-3.33301 15.333 -6.66699 32.499 -10 51.499l-10 54.5c-3.33301 19.333 -7 39 -11 59c-4 -20 -7.66699 -39.667 -11 -59c-3.33301 -16.667 -6.5 -34.667 -9.5 -54s-6.16699 -36.666 -9.5 -51.999l-24 -126h108zM354.999 -0.000976562l-19 94h-148l-19 -94h-166
l163 560h193l162 -560h-166zM331.999 619.999h-137l109 160h186z" />
    <glyph glyph-name="acircumflex" unicode="&#xe2;" horiz-adv-x="524" 
d="M293 332c-3.33301 15.333 -6.66699 32.499 -10 51.499l-10 54.5c-3.33301 19.333 -7 39 -11 59c-4 -20 -7.66699 -39.667 -11 -59c-3.33301 -16.667 -6.5 -34.667 -9.5 -54s-6.16699 -36.666 -9.5 -51.999l-24 -126h108zM354.999 -0.000976562l-19 94h-148l-19 -94h-166
l163 560h193l162 -560h-166zM314.999 619.999l-51 72l-51 -72h-152l133 160h134l134 -160h-147z" />
    <glyph glyph-name="atilde" unicode="&#xe3;" horiz-adv-x="524" 
d="M293 332c-3.33301 15.333 -6.66699 32.499 -10 51.499l-10 54.5c-3.33301 19.333 -7 39 -11 59c-4 -20 -7.66699 -39.667 -11 -59c-3.33301 -16.667 -6.5 -34.667 -9.5 -54s-6.16699 -36.666 -9.5 -51.999l-24 -126h108zM354.999 -0.000976562l-19 94h-148l-19 -94h-166
l163 560h193l162 -560h-166zM426.999 639.999c-27.333 -17.333 -53.333 -26 -78 -26c-18 0 -33.667 2.33301 -47 7s-26.333 10 -39 16s-25.5 11.333 -38.5 16s-28.5 7 -46.5 7c-23.333 0 -50.333 -10 -81 -30v120c32 18.667 62.667 28 92 28c20.667 0 38.5 -2.33301 53.5 -7
s28.667 -9.66699 41 -15l36 -15c11.667 -4.66699 24.5 -7 38.5 -7c18 0 41 8.33301 69 25v-119z" />
    <glyph glyph-name="adieresis" unicode="&#xe4;" horiz-adv-x="524" 
d="M293 332c-3.33301 15.333 -6.66699 32.499 -10 51.499l-10 54.5c-3.33301 19.333 -7 39 -11 59c-4 -20 -7.66699 -39.667 -11 -59c-3.33301 -16.667 -6.5 -34.667 -9.5 -54s-6.16699 -36.666 -9.5 -51.999l-24 -126h108zM354.999 -0.000976562l-19 94h-148l-19 -94h-166
l163 560h193l162 -560h-166zM220.999 689.999c0 -22 -7.5 -40.833 -22.5 -56.5s-33.5 -23.5 -55.5 -23.5s-40.667 7.83301 -56 23.5s-23 34.5 -23 56.5s7.66699 40.833 23 56.5s34 23.5 56 23.5s40.5 -7.83301 55.5 -23.5s22.5 -34.5 22.5 -56.5zM458.999 689.999
c0 -22 -7.5 -40.833 -22.5 -56.5s-33.5 -23.5 -55.5 -23.5s-40.667 7.83301 -56 23.5s-23 34.5 -23 56.5s7.66699 40.833 23 56.5s34 23.5 56 23.5s40.5 -7.83301 55.5 -23.5s22.5 -34.5 22.5 -56.5z" />
    <glyph glyph-name="aring" unicode="&#xe5;" horiz-adv-x="524" 
d="M293 332c-3.33301 15.333 -6.66699 32.499 -10 51.499l-10 54.5c-3.33301 19.333 -7 39 -11 59c-4 -20 -7.66699 -39.667 -11 -59c-3.33301 -16.667 -6.5 -34.667 -9.5 -54s-6.16699 -36.666 -9.5 -51.999l-24 -126h108zM304.999 687.999c0 34 -14.333 50.999 -43 50.999
c-16 0 -27.167 -4.66699 -33.5 -14s-9.5 -21.666 -9.5 -36.999c0 -16 3.5 -28.5 10.5 -37.5s17.833 -13.5 32.5 -13.5c28.667 0 43 17 43 51zM354.999 -0.00195312l-19 94h-148l-19 -94h-166l163 560h193l162 -560h-166zM405.999 687.998c0 -42 -13.168 -73.667 -39.501 -95
s-61.166 -32 -104.499 -32c-42.667 0 -77.5 10.5 -104.5 31.5s-40.5 52.833 -40.5 95.5c0 42 12.833 73.667 38.5 95s61.167 32 106.5 32c42 0 76.5 -10.833 103.5 -32.5s40.5 -53.167 40.5 -94.5z" />
    <glyph glyph-name="ae" unicode="&#xe6;" horiz-adv-x="636" 
d="M287 490l-14 -60l-12.5 -52l-11.5 -46l-31 -126h69v284zM597 437h-151v-97h141v-113h-141v-104h160v-123h-319v94h-96l-24 -94h-172l190 560h426z" />
    <glyph glyph-name="ccedilla" unicode="&#xe7;" horiz-adv-x="417" 
d="M399 15c-8 -4.66699 -17.335 -8.33203 -28.002 -10.999c-9.33301 -3.33301 -20.333 -6 -33 -8s-26.667 -3.66699 -42 -5c10.667 -8 20.667 -18.667 30 -32s14 -29.666 14 -48.999c0 -22 -3.66699 -40 -11 -54s-17.166 -25.167 -29.499 -33.5
s-26.833 -14.166 -43.5 -17.499s-34 -5 -52 -5c-12 0 -24.167 0.833008 -36.5 2.5s-23.5 3.83398 -33.5 6.50098c-12 2.66699 -23 6 -33 10v97c11.333 -3.33301 22 -6.33301 32 -9c8.66699 -2.66699 17.334 -4.83398 26.001 -6.50098s15.667 -2.5 21 -2.5
c10.667 0 18.834 2.16699 24.501 6.5s8.5 12.166 8.5 23.499c0 14 -3.33301 27.833 -10 41.5s-12.667 24.167 -18 31.5c-18.667 6 -36.667 14.833 -54 26.5s-32.833 28 -46.5 49s-24.5 47.333 -32.5 79s-12 70.5 -12 116.5c0 62.667 8.16699 113.5 24.5 152.5
s36.666 69.333 60.999 91s50.833 36.167 79.5 43.5s55.334 11 80.001 11c18 0 34.167 -1.16699 48.5 -3.5s26.166 -5.16602 35.499 -8.49902c11.333 -3.33301 21.333 -7 30 -11v-118c-9.33301 4 -19.666 7.33301 -30.999 10c-9.33301 2.66699 -20.5 5.16699 -33.5 7.5
s-26.167 3.5 -39.5 3.5s-25.833 -2.5 -37.5 -7.5s-21.834 -14 -30.501 -27s-15.5 -31.167 -20.5 -54.5s-7.5 -53 -7.5 -89c0 -32.667 2.16699 -59.334 6.5 -80.001s10.333 -37 18 -49s16.667 -20.167 27 -24.5s21.5 -6.5 33.5 -6.5c13.333 0 26.833 1.16699 40.5 3.5
s26.167 5.16602 37.5 8.49902c12.667 3.33301 25 7.66602 37 12.999v-122z" />
    <glyph glyph-name="egrave" unicode="&#xe8;" horiz-adv-x="442" 
d="M402 437h-180v-97h165v-113h-165v-104h190v-123h-349v560h354zM194 620l-159 160h187l108 -160h-136z" />
    <glyph glyph-name="eacute" unicode="&#xe9;" horiz-adv-x="442" 
d="M402 437h-180v-97h165v-113h-165v-104h190v-123h-349v560h354zM296 620h-137l109 160h186z" />
    <glyph glyph-name="ecircumflex" unicode="&#xea;" horiz-adv-x="442" 
d="M402 437h-180v-97h165v-113h-165v-104h190v-123h-349v560h354zM289 620l-51 72l-51 -72h-152l133 160h134l134 -160h-147z" />
    <glyph glyph-name="edieresis" unicode="&#xeb;" horiz-adv-x="442" 
d="M402 437h-180v-97h165v-113h-165v-104h190v-123h-349v560h354zM202 690c0 -22 -7.5 -40.833 -22.5 -56.5s-33.5 -23.5 -55.5 -23.5s-40.667 7.83301 -56 23.5s-23 34.5 -23 56.5s7.66699 40.833 23 56.5s34 23.5 56 23.5s40.5 -7.83301 55.5 -23.5s22.5 -34.5 22.5 -56.5
zM440 690c0 -22 -7.5 -40.833 -22.5 -56.5s-33.5 -23.5 -55.5 -23.5s-40.667 7.83301 -56 23.5s-23 34.5 -23 56.5s7.66699 40.833 23 56.5s34 23.5 56 23.5s40.5 -7.83301 55.5 -23.5s22.5 -34.5 22.5 -56.5z" />
    <glyph glyph-name="igrave" unicode="&#xec;" horiz-adv-x="287" 
d="M63 0v560h161v-560h-161zM71 620l-159 160h187l108 -160h-136z" />
    <glyph glyph-name="iacute" unicode="&#xed;" horiz-adv-x="287" 
d="M63 0v560h161v-560h-161zM213 620h-137l109 160h186z" />
    <glyph glyph-name="icircumflex" unicode="&#xee;" horiz-adv-x="287" 
d="M63 0v560h161v-560h-161zM197 620l-51 72l-51 -72h-152l133 160h134l134 -160h-147z" />
    <glyph glyph-name="idieresis" unicode="&#xef;" horiz-adv-x="287" 
d="M63 0v560h161v-560h-161zM118 690c0 -22 -7.5 -40.833 -22.5 -56.5s-33.5 -23.5 -55.5 -23.5s-40.667 7.83301 -56 23.5s-23 34.5 -23 56.5s7.66699 40.833 23 56.5s34 23.5 56 23.5s40.5 -7.83301 55.5 -23.5s22.5 -34.5 22.5 -56.5zM326 690
c0 -22 -7.5 -40.833 -22.5 -56.5s-33.5 -23.5 -55.5 -23.5s-40.667 7.83301 -56 23.5s-23 34.5 -23 56.5s7.66699 40.833 23 56.5s34 23.5 56 23.5s40.5 -7.83301 55.5 -23.5s22.5 -34.5 22.5 -56.5z" />
    <glyph glyph-name="eth" unicode="&#xf0;" horiz-adv-x="547" 
d="M348 285c0 38 -1.99805 67.501 -5.99805 88.501s-10 36.833 -18 47.5s-17.833 17.167 -29.5 19.5s-24.834 3.5 -39.501 3.5h-28v-109h70v-96h-70v-122h23c16 0 30.167 1.5 42.5 4.5s22.666 10.167 30.999 21.5s14.5 28.166 18.5 50.499s6 52.833 6 91.5zM507.002 285.001
c0 -64 -7.16699 -114.83 -21.5 -152.497s-33.333 -66.334 -57 -86.001s-51 -32.334 -82 -38.001s-63.5 -8.5 -97.5 -8.5h-181v239h-53v96h53v225h181c32 0 63.5 -2.66699 94.5 -8s58.5 -17.333 82.5 -36s43.5 -46.334 58.5 -83.001s22.5 -86 22.5 -148z" />
    <glyph glyph-name="ntilde" unicode="&#xf1;" horiz-adv-x="565" 
d="M362 0l-85 174.998c-9.33301 18 -18.666 38 -27.999 60l-26 62c-9.33301 22 -18.333 44.333 -27 67c4 -24 7.66699 -48.667 11 -74c2.66699 -21.333 5.16699 -44.666 7.5 -69.999s3.5 -48.666 3.5 -69.999v-150h-155v560h150l82 -171
c9.33301 -19.333 18.333 -39.5 27 -60.5l23 -57.5l22 -60c-4.66699 24 -8.33398 48 -11.001 72c-2.66699 20.667 -5 43 -7 67s-3 46.667 -3 68v142h156v-560h-140zM448 639.998c-27.333 -17.333 -53.333 -26 -78 -26c-18 0 -33.667 2.33301 -47 7s-26.333 10 -39 16
s-25.5 11.333 -38.5 16s-28.5 7 -46.5 7c-23.333 0 -50.333 -10 -81 -30v120c32 18.667 62.667 28 92 28c20.667 0 38.5 -2.33301 53.5 -7s28.667 -9.66699 41 -15l36 -15c11.667 -4.66699 24.5 -7 38.5 -7c18 0 41 8.33301 69 25v-119z" />
    <glyph glyph-name="ograve" unicode="&#xf2;" 
d="M348 280c0 38.667 -1.83301 70 -5.5 94s-8.83398 42.333 -15.501 55s-14.667 21.167 -24 25.5s-19.666 6.5 -30.999 6.5s-21.666 -2.16699 -30.999 -6.5s-17.333 -12.833 -24 -25.5s-11.834 -31 -15.501 -55s-5.5 -55.333 -5.5 -94
c0 -39.333 1.83301 -70.666 5.5 -93.999s8.83398 -41.5 15.501 -54.5s14.667 -21.5 24 -25.5s19.666 -6 30.999 -6s21.666 2 30.999 6s17.333 12.5 24 25.5s11.834 31.167 15.501 54.5s5.5 54.666 5.5 93.999zM506 280c0 -63.333 -7 -113.997 -21 -151.997
s-32.333 -67.167 -55 -87.5s-47.834 -33.833 -75.501 -40.5s-55.167 -10 -82.5 -10s-54.833 3.16699 -82.5 9.5s-52.834 19.666 -75.501 39.999s-41 49.666 -55 87.999s-21 89.166 -21 152.499s7 114 21 152s32.333 67.333 55 88s47.834 34.167 75.501 40.5
s55.167 9.5 82.5 9.5s54.833 -3.16699 82.5 -9.5s52.834 -19.833 75.501 -40.5s41 -50 55 -88s21 -88.667 21 -152zM206 620.003l-159 160h187l108 -160h-136z" />
    <glyph glyph-name="oacute" unicode="&#xf3;" 
d="M348 280c0 38.667 -1.83301 70 -5.5 94s-8.83398 42.333 -15.501 55s-14.667 21.167 -24 25.5s-19.666 6.5 -30.999 6.5s-21.666 -2.16699 -30.999 -6.5s-17.333 -12.833 -24 -25.5s-11.834 -31 -15.501 -55s-5.5 -55.333 -5.5 -94
c0 -39.333 1.83301 -70.666 5.5 -93.999s8.83398 -41.5 15.501 -54.5s14.667 -21.5 24 -25.5s19.666 -6 30.999 -6s21.666 2 30.999 6s17.333 12.5 24 25.5s11.834 31.167 15.501 54.5s5.5 54.666 5.5 93.999zM506 280c0 -63.333 -7 -113.997 -21 -151.997
s-32.333 -67.167 -55 -87.5s-47.834 -33.833 -75.501 -40.5s-55.167 -10 -82.5 -10s-54.833 3.16699 -82.5 9.5s-52.834 19.666 -75.501 39.999s-41 49.666 -55 87.999s-21 89.166 -21 152.499s7 114 21 152s32.333 67.333 55 88s47.834 34.167 75.501 40.5
s55.167 9.5 82.5 9.5s54.833 -3.16699 82.5 -9.5s52.834 -19.833 75.501 -40.5s41 -50 55 -88s21 -88.667 21 -152zM332 620.003h-137l109 160h186z" />
    <glyph glyph-name="ocircumflex" unicode="&#xf4;" 
d="M348 280c0 38.667 -1.83301 70 -5.5 94s-8.83398 42.333 -15.501 55s-14.667 21.167 -24 25.5s-19.666 6.5 -30.999 6.5s-21.666 -2.16699 -30.999 -6.5s-17.333 -12.833 -24 -25.5s-11.834 -31 -15.501 -55s-5.5 -55.333 -5.5 -94
c0 -39.333 1.83301 -70.666 5.5 -93.999s8.83398 -41.5 15.501 -54.5s14.667 -21.5 24 -25.5s19.666 -6 30.999 -6s21.666 2 30.999 6s17.333 12.5 24 25.5s11.834 31.167 15.501 54.5s5.5 54.666 5.5 93.999zM506 280c0 -63.333 -7 -113.997 -21 -151.997
s-32.333 -67.167 -55 -87.5s-47.834 -33.833 -75.501 -40.5s-55.167 -10 -82.5 -10s-54.833 3.16699 -82.5 9.5s-52.834 19.666 -75.501 39.999s-41 49.666 -55 87.999s-21 89.166 -21 152.499s7 114 21 152s32.333 67.333 55 88s47.834 34.167 75.501 40.5
s55.167 9.5 82.5 9.5s54.833 -3.16699 82.5 -9.5s52.834 -19.833 75.501 -40.5s41 -50 55 -88s21 -88.667 21 -152zM325 620.003l-51 72l-51 -72h-152l133 160h134l134 -160h-147z" />
    <glyph glyph-name="otilde" unicode="&#xf5;" 
d="M348 280c0 38.667 -1.83301 70 -5.5 94s-8.83398 42.333 -15.501 55s-14.667 21.167 -24 25.5s-19.666 6.5 -30.999 6.5s-21.666 -2.16699 -30.999 -6.5s-17.333 -12.833 -24 -25.5s-11.834 -31 -15.501 -55s-5.5 -55.333 -5.5 -94
c0 -39.333 1.83301 -70.666 5.5 -93.999s8.83398 -41.5 15.501 -54.5s14.667 -21.5 24 -25.5s19.666 -6 30.999 -6s21.666 2 30.999 6s17.333 12.5 24 25.5s11.834 31.167 15.501 54.5s5.5 54.666 5.5 93.999zM506 280c0 -63.333 -7 -113.997 -21 -151.997
s-32.333 -67.167 -55 -87.5s-47.834 -33.833 -75.501 -40.5s-55.167 -10 -82.5 -10s-54.833 3.16699 -82.5 9.5s-52.834 19.666 -75.501 39.999s-41 49.666 -55 87.999s-21 89.166 -21 152.499s7 114 21 152s32.333 67.333 55 88s47.834 34.167 75.501 40.5
s55.167 9.5 82.5 9.5s54.833 -3.16699 82.5 -9.5s52.834 -19.833 75.501 -40.5s41 -50 55 -88s21 -88.667 21 -152zM437 640.003c-27.333 -17.333 -53.333 -26 -78 -26c-18 0 -33.667 2.33301 -47 7s-26.333 10 -39 16s-25.5 11.333 -38.5 16s-28.5 7 -46.5 7
c-23.333 0 -50.333 -10 -81 -30v120c32 18.667 62.667 28 92 28c20.667 0 38.5 -2.33301 53.5 -7s28.667 -9.66699 41 -15l36 -15c11.667 -4.66699 24.5 -7 38.5 -7c18 0 41 8.33301 69 25v-119z" />
    <glyph glyph-name="odieresis" unicode="&#xf6;" 
d="M348 280c0 38.667 -1.83301 70 -5.5 94s-8.83398 42.333 -15.501 55s-14.667 21.167 -24 25.5s-19.666 6.5 -30.999 6.5s-21.666 -2.16699 -30.999 -6.5s-17.333 -12.833 -24 -25.5s-11.834 -31 -15.501 -55s-5.5 -55.333 -5.5 -94
c0 -39.333 1.83301 -70.666 5.5 -93.999s8.83398 -41.5 15.501 -54.5s14.667 -21.5 24 -25.5s19.666 -6 30.999 -6s21.666 2 30.999 6s17.333 12.5 24 25.5s11.834 31.167 15.501 54.5s5.5 54.666 5.5 93.999zM506 280c0 -63.333 -7 -113.997 -21 -151.997
s-32.333 -67.167 -55 -87.5s-47.834 -33.833 -75.501 -40.5s-55.167 -10 -82.5 -10s-54.833 3.16699 -82.5 9.5s-52.834 19.666 -75.501 39.999s-41 49.666 -55 87.999s-21 89.166 -21 152.499s7 114 21 152s32.333 67.333 55 88s47.834 34.167 75.501 40.5
s55.167 9.5 82.5 9.5s54.833 -3.16699 82.5 -9.5s52.834 -19.833 75.501 -40.5s41 -50 55 -88s21 -88.667 21 -152zM231 690.003c0 -22 -7.5 -40.833 -22.5 -56.5s-33.5 -23.5 -55.5 -23.5s-40.667 7.83301 -56 23.5s-23 34.5 -23 56.5s7.66699 40.833 23 56.5
s34 23.5 56 23.5s40.5 -7.83301 55.5 -23.5s22.5 -34.5 22.5 -56.5zM469 690.003c0 -22 -7.5 -40.833 -22.5 -56.5s-33.5 -23.5 -55.5 -23.5s-40.667 7.83301 -56 23.5s-23 34.5 -23 56.5s7.66699 40.833 23 56.5s34 23.5 56 23.5s40.5 -7.83301 55.5 -23.5
s22.5 -34.5 22.5 -56.5z" />
    <glyph glyph-name="divide" unicode="&#xf7;" horiz-adv-x="536" 
d="M361 101c0 -12.667 -2.33301 -24.834 -7 -36.501s-11 -21.834 -19 -30.501s-17.667 -15.5 -29 -20.5s-23.666 -7.5 -36.999 -7.5s-25.666 2.5 -36.999 7.5s-21.333 11.833 -30 20.5s-15.334 18.834 -20.001 30.501s-7 23.834 -7 36.501s2.33301 24.834 7 36.501
s11.334 21.834 20.001 30.501s18.667 15.5 30 20.5s23.666 7.5 36.999 7.5s25.666 -2.5 36.999 -7.5s21 -11.833 29 -20.5s14.333 -18.834 19 -30.501s7 -23.834 7 -36.501zM43 268v135h450v-135h-450zM361 570c0 -12.667 -2.33301 -24.834 -7 -36.501
s-11 -21.834 -19 -30.501s-17.667 -15.5 -29 -20.5s-23.666 -7.5 -36.999 -7.5s-25.666 2.5 -36.999 7.5s-21.333 11.833 -30 20.5s-15.334 18.834 -20.001 30.501s-7 23.834 -7 36.501c0 26 9 48.167 27 66.5s40.333 27.5 67 27.5c13.333 0 25.666 -2.5 36.999 -7.5
s21 -11.833 29 -20.5s14.333 -18.667 19 -30s7 -23.333 7 -36z" />
    <glyph glyph-name="oslash" unicode="&#xf8;" 
d="M348 280c0 35.333 -2 64.668 -6 88.001l-104 -260c8.66699 -5.33301 20 -8 34 -8c11.333 0 21.666 2 30.999 6s17.333 12.5 24 25.5s11.834 31.167 15.501 54.5s5.5 54.666 5.5 93.999zM306 453.002c-8.66699 5.33301 -20 8 -34 8
c-11.333 0 -21.666 -2.16699 -30.999 -6.5s-17.333 -12.833 -24 -25.5s-11.834 -31 -15.501 -55s-5.5 -55.333 -5.5 -94c0 -36 2 -65.333 6 -88zM506 280.002c0 -64 -6.99902 -115.166 -20.999 -153.499s-32.333 -67.5 -55 -87.5s-47.834 -33.167 -75.501 -39.5
s-55.167 -9.5 -82.5 -9.5c-12 0 -24.333 0.5 -37 1.5s-25 3.16699 -37 6.5l-43 -108h-79l55 138c-27.333 18.667 -49.666 48 -66.999 88s-26 94.667 -26 164c0 64 7 115 21 153s32.333 67.167 55 87.5s47.834 33.666 75.501 39.999s55.167 9.5 82.5 9.5
c12 0 24.167 -0.5 36.5 -1.5s24.5 -3.16699 36.5 -6.5l44 108h79l-55 -139c13.333 -10 25.666 -22.167 36.999 -36.5s21.166 -31.5 29.499 -51.5s14.833 -43.5 19.5 -70.5s7 -57.833 7 -92.5z" />
    <glyph glyph-name="ugrave" unicode="&#xf9;" horiz-adv-x="550" 
d="M490 182c0 -68 -18.333 -116.999 -55 -146.999s-90 -45 -160 -45c-72.667 0 -126.667 14.667 -162 44s-53 78.666 -53 147.999v378h159v-385c0 -23.333 4 -40.5 12 -51.5s22.667 -16.5 44 -16.5c37.333 0 56 22.667 56 68v385h159v-378zM213 620.001l-159 160h187
l108 -160h-136z" />
    <glyph glyph-name="uacute" unicode="&#xfa;" horiz-adv-x="550" 
d="M490 182c0 -68 -18.333 -116.999 -55 -146.999s-90 -45 -160 -45c-72.667 0 -126.667 14.667 -162 44s-53 78.666 -53 147.999v378h159v-385c0 -23.333 4 -40.5 12 -51.5s22.667 -16.5 44 -16.5c37.333 0 56 22.667 56 68v385h159v-378zM338 620.001h-137l109 160h186z
" />
    <glyph glyph-name="ucircumflex" unicode="&#xfb;" horiz-adv-x="550" 
d="M490 182c0 -68 -18.333 -116.999 -55 -146.999s-90 -45 -160 -45c-72.667 0 -126.667 14.667 -162 44s-53 78.666 -53 147.999v378h159v-385c0 -23.333 4 -40.5 12 -51.5s22.667 -16.5 44 -16.5c37.333 0 56 22.667 56 68v385h159v-378zM329 620.001l-51 72l-51 -72h-152
l133 160h134l134 -160h-147z" />
    <glyph glyph-name="udieresis" unicode="&#xfc;" horiz-adv-x="550" 
d="M490 182c0 -68 -18.333 -116.999 -55 -146.999s-90 -45 -160 -45c-72.667 0 -126.667 14.667 -162 44s-53 78.666 -53 147.999v378h159v-385c0 -23.333 4 -40.5 12 -51.5s22.667 -16.5 44 -16.5c37.333 0 56 22.667 56 68v385h159v-378zM235 690.001
c0 -22 -7.5 -40.833 -22.5 -56.5s-33.5 -23.5 -55.5 -23.5s-40.667 7.83301 -56 23.5s-23 34.5 -23 56.5s7.66699 40.833 23 56.5s34 23.5 56 23.5s40.5 -7.83301 55.5 -23.5s22.5 -34.5 22.5 -56.5zM473 690.001c0 -22 -7.5 -40.833 -22.5 -56.5s-33.5 -23.5 -55.5 -23.5
s-40.667 7.83301 -56 23.5s-23 34.5 -23 56.5s7.66699 40.833 23 56.5s34 23.5 56 23.5s40.5 -7.83301 55.5 -23.5s22.5 -34.5 22.5 -56.5z" />
    <glyph glyph-name="yacute" unicode="&#xfd;" horiz-adv-x="494" 
d="M326 216v-216h-158v216l-170 344h177l72 -220l72 220h177zM315 620h-137l109 160h186z" />
    <glyph glyph-name="thorn" unicode="&#xfe;" horiz-adv-x="498" 
d="M317 290c0 35.333 -5.16797 58.6689 -15.501 70.002s-26.833 17 -49.5 17h-30v-199c20 1.33301 36.333 4.16602 49 8.49902s22.334 10.666 29.001 18.999s11.167 19.5 13.5 33.5s3.5 31 3.5 51zM472.999 290.003c0 -41.333 -5.50098 -75.166 -16.501 -101.499
s-27.167 -47.333 -48.5 -63s-47.5 -26.834 -78.5 -33.501s-66.833 -10.667 -107.5 -12v-80h-159v560h159v-76h27c36.667 0 68.834 -2.66699 96.501 -8s51 -15 70 -29s33.333 -33.667 43 -59s14.5 -58 14.5 -98z" />
    <glyph glyph-name="ydieresis" unicode="&#xff;" horiz-adv-x="494" 
d="M326 216v-216h-158v216l-170 344h177l72 -220l72 220h177zM206 690c0 -22 -7.5 -40.833 -22.5 -56.5s-33.5 -23.5 -55.5 -23.5s-40.667 7.83301 -56 23.5s-23 34.5 -23 56.5s7.66699 40.833 23 56.5s34 23.5 56 23.5s40.5 -7.83301 55.5 -23.5s22.5 -34.5 22.5 -56.5z
M444 690c0 -22 -7.5 -40.833 -22.5 -56.5s-33.5 -23.5 -55.5 -23.5s-40.667 7.83301 -56 23.5s-23 34.5 -23 56.5s7.66699 40.833 23 56.5s34 23.5 56 23.5s40.5 -7.83301 55.5 -23.5s22.5 -34.5 22.5 -56.5z" />
    <glyph glyph-name="dotlessi" unicode="&#x131;" horiz-adv-x="287" 
d="M63 0v560h161v-560h-161z" />
    <glyph glyph-name="Lslash" unicode="&#x141;" horiz-adv-x="392" 
d="M360 0h-290v302l-50 -34v108l50 34v290h159v-182l100 69v-108l-100 -68v-283h150z" />
    <glyph glyph-name="lslash" unicode="&#x142;" horiz-adv-x="390" 
d="M357 0h-289v185l-50 -34v105l50 34v270h159v-162l99 69v-105l-99 -69v-170h149z" />
    <glyph glyph-name="OE" unicode="&#x152;" horiz-adv-x="644" 
d="M295 593c-3.33301 0 -6.33105 0.333008 -8.99805 1c-6.66699 1.33301 -11.334 2 -14.001 2c-12.667 0 -23.834 -3 -33.501 -9s-17.667 -18 -24 -36s-11 -43 -14 -75s-4.5 -74 -4.5 -126c0 -53.333 1.83301 -96 5.5 -128s8.83398 -56.833 15.501 -74.5
s14.667 -29.334 24 -35.001s19.666 -8.5 30.999 -8.5h6.5c2.33301 0 4.83301 0.333008 7.5 1s5.66699 1.33398 9 2.00098v486zM604.002 572l-150.999 -0.00195312v-147h141v-117h-141v-180h161v-128h-285c-6 -2 -12.333 -3.66699 -19 -5c-12 -3.33301 -24.667 -5 -38 -5
c-18 0 -36.167 1.33301 -54.5 4s-36.166 8.16699 -53.499 16.5s-33.666 20.5 -48.999 36.5s-28.666 37.333 -39.999 64s-20.333 59.5 -27 98.5s-10 85.833 -10 140.5c0 54 3.33301 100.333 10 139s15.667 71.334 27 98.001s24.666 48.167 39.999 64.5
s31.666 28.833 48.999 37.5s35.166 14.334 53.499 17.001s36.5 4 54.5 4c6 0 12.167 -0.5 18.5 -1.5s12.166 -2.16699 17.499 -3.5c6.66699 -2 13 -3.66699 19 -5h292z" />
    <glyph glyph-name="oe" unicode="&#x153;" horiz-adv-x="644" 
d="M295 458c-2.66699 0 -5.33301 0.332031 -8 0.999023c-6.66699 1.33301 -11.667 2 -15 2c-11.333 0 -21.666 -2.16699 -30.999 -6.5s-17.333 -12.833 -24 -25.5s-11.834 -31 -15.501 -55s-5.5 -55.333 -5.5 -94c0 -39.333 1.83301 -70.666 5.5 -93.999
s8.83398 -41.5 15.501 -54.5s14.667 -21.5 24 -25.5s19.666 -6 30.999 -6c6.66699 0 11.667 0.333008 15 1l8 2v355zM604.001 436.999l-151.001 0.00195312v-97h141v-113h-141v-104h161v-123h-275c-10.667 -3.33301 -21.667 -5.83301 -33 -7.5s-22.666 -2.5 -33.999 -2.5
c-27.333 0 -54.833 3 -82.5 9s-52.834 19.167 -75.501 39.5s-41 49.666 -55 87.999s-21 89.5 -21 153.5s7 115 21 153s32.333 67.167 55 87.5s47.834 33.666 75.501 39.999s55.167 9.5 82.5 9.5c12 0 23.667 -0.833008 35 -2.5s22.333 -4.16699 33 -7.5h279z" />
    <glyph glyph-name="Scaron" unicode="&#x160;" horiz-adv-x="427" 
d="M395 193c0 -44 -6.66211 -79.165 -19.9951 -105.498s-30.5 -46.833 -51.5 -61.5s-44.833 -24.334 -71.5 -29.001s-53.334 -7 -80.001 -7c-19.333 0 -37.166 1 -53.499 3s-30.5 4.33301 -42.5 7c-14 2.66699 -27 6 -39 10v127c16 -4.66699 31.333 -8.33398 46 -11.001
c12.667 -2.66699 25.667 -5 39 -7s24.666 -3 33.999 -3c22 0 40.833 4.83301 56.5 14.5s23.5 28.5 23.5 56.5c0 20 -5.16699 36.167 -15.5 48.5s-23.833 25.833 -40.5 40.5l-53 46c-10.667 9.33301 -21.5 19.666 -32.5 30.999s-20.833 24.333 -29.5 39
s-15.667 31.5 -21 50.5s-8 40.833 -8 65.5c0 39.333 6.5 72 19.5 98s29.667 46.667 50 62s43.166 26.166 68.499 32.499s50 9.5 74 9.5c19.333 0 37.166 -1.16699 53.499 -3.5s30.166 -4.83301 41.499 -7.5c13.333 -3.33301 25.333 -7 36 -11v-123
c-12.667 4 -25.334 7.66699 -38.001 11c-11.333 2.66699 -23.833 5.16699 -37.5 7.5s-27.167 3.5 -40.5 3.5c-21.333 0 -38.333 -5.5 -51 -16.5s-19 -28.5 -19 -52.5c0 -21.333 5.5 -38.166 16.5 -50.499s24.5 -25.166 40.5 -38.499l49 -41c12 -10 23.833 -21 35.5 -33
s22 -25.667 31 -41s16.167 -32.833 21.5 -52.5s8 -42.5 8 -68.5zM305.005 750.002h-144l-128 130h152l51 -62l51 62h147z" />
    <glyph glyph-name="scaron" unicode="&#x161;" horiz-adv-x="427" 
d="M395 166c0 -37.333 -5.49902 -67.5039 -16.499 -90.5039s-26 -40.833 -45 -53.5s-40.833 -21.167 -65.5 -25.5s-50.667 -6.5 -78 -6.5c-19.333 0 -38 1.33301 -56 4s-34.333 5.66699 -49 9c-17.333 4 -33.333 8.66699 -48 14v122c17.333 -5.33301 34.666 -10 51.999 -14
c14.667 -3.33301 29.667 -6.5 45 -9.5s28.666 -4.5 39.999 -4.5c20 0 35.333 3.5 46 10.5s16 19.5 16 37.5c0 15.333 -4.66699 26.833 -14 34.5s-21 15.167 -35 22.5l-42 23c-12.667 6.66699 -25.5 14.5 -38.5 23.5s-24.667 19.833 -35 32.5s-18.833 27.334 -25.5 44.001
s-10 36 -10 58c0 34.667 6 63.334 18 86.001s27.833 40.334 47.5 53.001s41.834 21.5 66.501 26.5s49.667 7.5 75 7.5c23.333 0 43.666 -1.5 60.999 -4.5s31.666 -6.16699 42.999 -9.5c12.667 -4 23.334 -8.33301 32.001 -13v-118c-14 4.66699 -28 9 -42 13
c-12 3.33301 -25.333 6.5 -40 9.5s-28.667 4.5 -42 4.5c-20.667 0 -36.167 -3.33301 -46.5 -10s-15.5 -19 -15.5 -37c0 -16 5.5 -27.833 16.5 -35.5s23.5 -15.167 37.5 -22.5l43 -22c12.667 -6.66699 25.334 -14.167 38.001 -22.5s24 -18.666 34 -30.999s18 -27 24 -44
s9 -37.5 9 -61.5zM292.001 619.996h-134l-133 160h152l51 -72l51 72h147z" />
    <glyph glyph-name="Ydieresis" unicode="&#x178;" horiz-adv-x="494" 
d="M326 276v-276h-158v276l-170 424h177l72 -290l72 290h177zM206 830c0 -22 -7.5 -40.833 -22.5 -56.5s-33.5 -23.5 -55.5 -23.5s-40.667 7.83301 -56 23.5s-23 34.5 -23 56.5s7.66699 40.833 23 56.5s34 23.5 56 23.5s40.5 -7.83301 55.5 -23.5s22.5 -34.5 22.5 -56.5z
M444 830c0 -22 -7.5 -40.833 -22.5 -56.5s-33.5 -23.5 -55.5 -23.5s-40.667 7.83301 -56 23.5s-23 34.5 -23 56.5s7.66699 40.833 23 56.5s34 23.5 56 23.5s40.5 -7.83301 55.5 -23.5s22.5 -34.5 22.5 -56.5z" />
    <glyph glyph-name="Zcaron" unicode="&#x17d;" horiz-adv-x="454" 
d="M402 0h-359v115l208 462h-208v123h368v-115l-208 -462h213zM299 750h-144l-128 130h152l51 -62l51 62h147z" />
    <glyph glyph-name="zcaron" unicode="&#x17e;" horiz-adv-x="454" 
d="M402 0h-359v110l193 332h-193v118h368v-110l-193 -332h198zM302 620h-134l-133 160h152l51 -72l51 72h147z" />
    <glyph glyph-name="florin" unicode="&#x192;" horiz-adv-x="389" 
d="M426 533c-10.667 4 -21.3311 7.66602 -31.998 10.999c-9.33301 2.66699 -19.333 5.16699 -30 7.5s-20.334 3.5 -29.001 3.5c-16.667 0 -28.834 -4.33301 -36.501 -13s-13.167 -21 -16.5 -37l-8 -40h100l-38 -105h-80l-60 -340c-8 -44.667 -19.5 -80.667 -34.5 -108
s-34.833 -48.5 -59.5 -63.5s-54.334 -25.167 -89.001 -30.5s-75.667 -8 -123 -8l20 114c36 2.66699 64.667 11 86 25s35.333 39 42 75l59 336h-70l18 105h70l8 44c6 32.667 15.167 59.5 27.5 80.5s27 37.5 44 49.5s35.833 20.167 56.5 24.5s42 6.5 64 6.5
c18.667 0 35.834 -1.66699 51.501 -5s29.5 -6.66602 41.5 -9.99902c13.333 -4 26 -8.66699 38 -14z" />
    <glyph glyph-name="circumflex" unicode="&#x2c6;" horiz-adv-x="431" 
d="M269 620l-51 72l-51 -72h-152l133 160h134l134 -160h-147z" />
    <glyph glyph-name="caron" unicode="&#x2c7;" horiz-adv-x="431" 
d="M282 620h-134l-133 160h152l51 -72l51 72h147z" />
    <glyph glyph-name="breve" unicode="&#x2d8;" horiz-adv-x="405" 
d="M390 780c0 -27.333 -3.5 -52.333 -10.5 -75s-18 -42.167 -33 -58.5s-34.333 -29 -58 -38s-52.5 -13.5 -86.5 -13.5c-66 0 -113.667 16 -143 48s-44 77.667 -44 137h131c0 -29.333 4 -49.333 12 -60s22.667 -16 44 -16c18 0 32 5.16699 42 15.5s15 30.5 15 60.5h131z" />
    <glyph glyph-name="dotaccent" unicode="&#x2d9;" horiz-adv-x="211" 
d="M196 688c0 -12.667 -2.33301 -24.666 -7 -35.999s-11 -21.166 -19 -29.499s-17.5 -15 -28.5 -20s-22.833 -7.5 -35.5 -7.5c-13.333 0 -25.5 2.5 -36.5 7.5s-20.5 11.667 -28.5 20s-14.333 18.166 -19 29.499s-7 23.333 -7 36s2.33301 24.667 7 36
s11.167 21.166 19.5 29.499s18 14.833 29 19.5s22.833 7 35.5 7c26 0 47.5 -9 64.5 -27s25.5 -39.667 25.5 -65z" />
    <glyph glyph-name="ring" unicode="&#x2da;" horiz-adv-x="319" 
d="M203 683c0 34 -14.333 50.999 -43 50.999c-16 0 -27.167 -4.66699 -33.5 -14s-9.5 -21.666 -9.5 -36.999c0 -16 3.5 -28.5 10.5 -37.5s17.833 -13.5 32.5 -13.5c28.667 0 43 17 43 51zM304 682.999c0 -42 -13.168 -73.667 -39.501 -95s-61.166 -32 -104.499 -32
c-42.667 0 -77.5 10.5 -104.5 31.5s-40.5 52.833 -40.5 95.5c0 42 12.833 73.667 38.5 95s61.167 32 106.5 32c42 0 76.5 -10.833 103.5 -32.5s40.5 -53.167 40.5 -94.5z" />
    <glyph glyph-name="ogonek" unicode="&#x2db;" horiz-adv-x="269" 
d="M254 -181c-10.667 -4 -22.002 -7.33301 -34.002 -10c-10 -2.66699 -21 -4.83398 -33 -6.50098s-24 -2.5 -36 -2.5c-18 0 -35.167 1.66699 -51.5 5s-30.833 9.16602 -43.5 17.499s-22.667 19.5 -30 33.5s-11 32 -11 54c0 17.333 4 32.333 12 45s16.667 23 26 31
c11.333 9.33301 24 17.333 38 24h86c-6.66699 -8.66699 -12.667 -17.667 -18 -27c-4.66699 -8 -8.66699 -16.833 -12 -26.5s-5 -19.167 -5 -28.5c0 -11.333 2.83301 -19.166 8.5 -23.499s13.834 -6.5 24.501 -6.5c5.33301 0 12.333 0.833008 21 2.5
s17.334 3.83398 26.001 6.50098c10 2.66699 20.667 5.66699 32 9v-97z" />
    <glyph glyph-name="tilde" unicode="&#x2dc;" horiz-adv-x="360" 
d="M345 640c-27.333 -17.333 -53.333 -26 -78 -26c-18 0 -33.667 2.33301 -47 7s-26.333 10 -39 16s-25.5 11.333 -38.5 16s-28.5 7 -46.5 7c-23.333 0 -50.333 -10 -81 -30v120c32 18.667 62.667 28 92 28c20.667 0 38.5 -2.33301 53.5 -7s28.667 -9.66699 41 -15l36 -15
c11.667 -4.66699 24.5 -7 38.5 -7c18 0 41 8.33301 69 25v-119z" />
    <glyph glyph-name="hungarumlaut" unicode="&#x2dd;" horiz-adv-x="423" 
d="M112 620h-97l63 160h153zM290 620h-97l63 160h152z" />
    <glyph glyph-name="endash" unicode="&#x2013;" horiz-adv-x="545" 
d="M43 256v134h459v-134h-459z" />
    <glyph glyph-name="emdash" unicode="&#x2014;" horiz-adv-x="645" 
d="M43 256v134h559v-134h-559z" />
    <glyph glyph-name="quoteleft" unicode="&#x2018;" horiz-adv-x="273" 
d="M209 415h-179l87 320h106z" />
    <glyph glyph-name="quoteright" unicode="&#x2019;" horiz-adv-x="272" 
d="M155 415h-105l14 320h178z" />
    <glyph glyph-name="quotesinglbase" unicode="&#x201a;" horiz-adv-x="272" 
d="M155 -175h-105l14 320h178z" />
    <glyph glyph-name="quotedblleft" unicode="&#x201c;" horiz-adv-x="489" 
d="M209 415h-179l87 320h106zM425 415h-178l86 320h106z" />
    <glyph glyph-name="quotedblright" unicode="&#x201d;" horiz-adv-x="488" 
d="M155 415h-105l14 320h178zM372 415h-106l14 320h178z" />
    <glyph glyph-name="quotedblbase" unicode="&#x201e;" horiz-adv-x="488" 
d="M155 -175h-105l14 320h178zM372 -175h-106l14 320h178z" />
    <glyph glyph-name="dagger" unicode="&#x2020;" horiz-adv-x="509" 
d="M334 396v-396h-159v396h-145v134h145v190h159v-190h145v-134h-145z" />
    <glyph glyph-name="daggerdbl" unicode="&#x2021;" horiz-adv-x="509" 
d="M334 161v-161h-159v161h-145v134h145v130h-145v134h145v161h159v-161h145v-134h-145v-130h145v-134h-145z" />
    <glyph glyph-name="bullet" unicode="&#x2022;" horiz-adv-x="356" 
d="M303 378c0 -18 -3 -34.668 -9 -50.001s-14.5 -28.833 -25.5 -40.5s-24.167 -20.667 -39.5 -27s-32 -9.5 -50 -9.5s-34.667 3.16699 -50 9.5s-28.666 15.166 -39.999 26.499s-20.166 24.666 -26.499 39.999s-9.5 32.333 -9.5 51s3.16699 35.834 9.5 51.501
s15.166 29 26.499 40s24.666 19.5 39.999 25.5s32 9 50 9s34.5 -3.16699 49.5 -9.5s28 -15.166 39 -26.499s19.667 -24.666 26 -39.999s9.5 -32 9.5 -50z" />
    <glyph glyph-name="ellipsis" unicode="&#x2026;" horiz-adv-x="838" 
d="M243 78c0 -13.333 -2.33301 -25.833 -7 -37.5s-11.167 -22 -19.5 -31s-18.166 -16.167 -29.499 -21.5s-24 -8 -38 -8s-26.833 2.66699 -38.5 8s-21.667 12.5 -30 21.5s-15 19.333 -20 31s-7.5 24.167 -7.5 37.5c0 26.667 9.16699 49.5 27.5 68.5s41.166 28.5 68.499 28.5
c28 0 50.667 -9.5 68 -28.5s26 -41.833 26 -68.5zM514 78c0 -13.333 -2.33301 -25.833 -7 -37.5s-11.167 -22 -19.5 -31s-18.166 -16.167 -29.499 -21.5s-24 -8 -38 -8s-26.833 2.66699 -38.5 8s-21.667 12.5 -30 21.5s-15 19.333 -20 31s-7.5 24.167 -7.5 37.5
c0 26.667 9.16699 49.5 27.5 68.5s41.166 28.5 68.499 28.5c28 0 50.667 -9.5 68 -28.5s26 -41.833 26 -68.5zM785 78c0 -13.333 -2.33301 -25.833 -7 -37.5s-11.167 -22 -19.5 -31s-18.166 -16.167 -29.499 -21.5s-24 -8 -38 -8s-26.833 2.66699 -38.5 8
s-21.667 12.5 -30 21.5s-15 19.333 -20 31s-7.5 24.167 -7.5 37.5c0 26.667 9.16699 49.5 27.5 68.5s41.166 28.5 68.499 28.5c28 0 50.667 -9.5 68 -28.5s26 -41.833 26 -68.5z" />
    <glyph glyph-name="perthousand" unicode="&#x2030;" horiz-adv-x="1213" 
d="M226 525c0 21.333 -0.5 38.833 -1.5 52.5s-3 24.5 -6 32.5s-6.83301 13.5 -11.5 16.5s-10.667 4.5 -18 4.5c-14.667 0 -24.5 -7.66699 -29.5 -23s-7.5 -43 -7.5 -83c0 -34.667 2.33301 -60.667 7 -78s14.667 -26 30 -26s25.333 8.5 30 25.5s7 43.167 7 78.5zM692 180
c0 21.333 -0.5 38.835 -1.5 52.502s-3 24.5 -6 32.5s-6.83301 13.5 -11.5 16.5s-10.667 4.5 -18 4.5c-14.667 0 -24.5 -7.66699 -29.5 -23s-7.5 -43 -7.5 -83c0 -34.667 2.33301 -60.834 7 -78.501s14.667 -26.5 30 -26.5s25.333 8.66699 30 26s7 43.666 7 78.999z
M1060 180.002c0 21.333 -0.5 38.835 -1.5 52.502s-3 24.5 -6 32.5s-6.83301 13.5 -11.5 16.5s-10.667 4.5 -18 4.5c-14.667 0 -24.5 -7.66699 -29.5 -23s-7.5 -43 -7.5 -83c0 -34.667 2.33301 -60.834 7 -78.501s14.667 -26.5 30 -26.5s25.333 8.66699 30 26
s7 43.666 7 78.999zM355 525.004c0 -36.667 -4.5 -67.167 -13.5 -91.5s-21 -43.833 -36 -58.5s-32.5 -25 -52.5 -31s-41.333 -9 -64 -9c-21.333 0 -42 2.83301 -62 8.5s-37.667 15.667 -53 30s-27.666 33.666 -36.999 57.999s-14 55.5 -14 93.5
c0 36.667 4.5 67.334 13.5 92.001s21.167 44.167 36.5 58.5s33 24.5 53 30.5s41 9 63 9c23.333 0 45.166 -3 65.499 -9s38 -16.333 53 -31s26.667 -34.167 35 -58.5s12.5 -54.833 12.5 -91.5zM353 -9.99609h-139l275 720h139zM821 180.004
c0 -36.667 -4.50195 -67.167 -13.502 -91.5s-21 -43.833 -36 -58.5s-32.5 -25 -52.5 -31s-41.333 -9 -64 -9c-21.333 0 -42.166 2.83301 -62.499 8.5s-38.166 15.667 -53.499 30s-27.666 33.666 -36.999 57.999s-14 55.5 -14 93.5c0 36.667 4.5 67.334 13.5 92.001
s21.333 44.167 37 58.5s33.5 24.5 53.5 30.5s41 9 63 9c23.333 0 45.166 -3 65.499 -9s38 -16.333 53 -31s26.667 -34.167 35 -58.5s12.5 -54.833 12.5 -91.5zM1190 180.004c0 -36.667 -4.5 -67.167 -13.5 -91.5s-21.167 -43.833 -36.5 -58.5s-33 -25 -53 -31
s-41.333 -9 -64 -9c-21.333 0 -42 2.83301 -62 8.5s-37.667 15.667 -53 30s-27.666 33.666 -36.999 57.999s-14 55.5 -14 93.5c0 36.667 4.5 67.334 13.5 92.001s21.167 44.167 36.5 58.5s33 24.5 53 30.5s41 9 63 9c23.333 0 45.166 -3 65.499 -9s38 -16.333 53 -31
s26.833 -34.167 35.5 -58.5s13 -54.833 13 -91.5z" />
    <glyph glyph-name="guilsinglleft" unicode="&#x2039;" horiz-adv-x="269" 
d="M25 286v98l209 233v-207l-83 -73l83 -77v-207z" />
    <glyph glyph-name="guilsinglright" unicode="&#x203a;" horiz-adv-x="269" 
d="M35 53v207l84 77l-84 73v207l209 -233v-98z" />
    <glyph glyph-name="fraction" unicode="&#x2044;" horiz-adv-x="239" 
d="M-6 -110h-114l365 920h114z" />
    <glyph glyph-name="fraction" unicode="&#x2215;" horiz-adv-x="239" 
d="M-6 -110h-114l365 920h114z" />
    <glyph glyph-name="trademark" unicode="&#x2122;" horiz-adv-x="759" 
d="M593 280l-1 223l-81 -144l-82 140l-3 -219h-128l15 315h-84v-315h-128v315h-91v105h407l94 -164l89 164h103l16 -420h-126z" />
    <glyph glyph-name="minus" unicode="&#x2212;" horiz-adv-x="496" 
d="M43 256v134h410v-134h-410z" />
    <glyph glyph-name=".null" horiz-adv-x="0" 
 />
    <glyph glyph-name="nonmarkingreturn" horiz-adv-x="287" 
 />
  </font>
</defs>
</svg>
