<?xml version="1.0" standalone="no"?>
<!DOCTYPE svg PUBLIC "-//W3C//DTD SVG 1.1//EN" "http://www.w3.org/Graphics/SVG/1.1/DTD/svg11.dtd" >
<svg>
<metadata>
Created by FontForge 20090914 at Wed Aug 25 20:31:52 2021
 By www-data
&#60; info@fontfont.de &#62; Copyright Ole Schaefer, 1999. Published by FontShop International for  FontFont Release 25, Fago Condensed is a trademark of FSI Fonts and Software GmbH.
</metadata>
<defs>
<font id="FagoCoLf-Bold" horiz-adv-x="260" >
  <font-face 
    font-family="FagoCoLf"
    font-weight="700"
    font-stretch="normal"
    units-per-em="1000"
    panose-1="2 0 8 6 4 0 0 2 0 4"
    ascent="800"
    descent="-200"
    x-height="530"
    cap-height="700"
    bbox="-120 -210 1130 934.999"
    underline-thickness="50"
    underline-position="-50"
    unicode-range="U+0005-U+2122"
  />
<missing-glyph 
 />
    <glyph glyph-name=".notdef" 
 />
    <glyph glyph-name="breve" horiz-adv-x="398" 
d="M378 780c0 -55.333 -14.165 -99.168 -42.498 -131.501s-73.833 -48.5 -136.5 -48.5c-62 0 -107.333 15 -136 45s-43 75 -43 135h118c0 -17.333 1.33301 -31.333 4 -42s6.5 -19 11.5 -25s11.333 -10 19 -12s16.5 -3 26.5 -3c8.66699 0 16.667 1.16699 24 3.5
s13.666 6.5 18.999 12.5s9.66602 14.333 12.999 25s5 24.334 5 41.001h118v0z" />
    <glyph glyph-name="dotaccent" horiz-adv-x="211" 
d="M191 693c0 -24 -8 -44.667 -24 -62s-36.333 -26 -61 -26s-45.167 8.66699 -61.5 26s-24.5 38 -24.5 62s8.16699 44.5 24.5 61.5s36.833 25.5 61.5 25.5s45 -8.5 61 -25.5s24 -37.5 24 -61.5z" />
    <glyph glyph-name="ring" horiz-adv-x="310" 
d="M290 683c0 -37.333 -11.666 -67 -34.999 -89s-56.666 -33 -99.999 -33c-42.667 0 -75.834 10.833 -99.501 32.5s-35.5 51.5 -35.5 89.5s11.167 67.833 33.5 89.5s56.166 32.5 101.499 32.5c42 0 75 -11 99 -33s36 -51.667 36 -89zM198.001 683c0 18 -3.66699 31 -11 39
s-18 12 -32 12c-28.667 0 -43 -17 -43 -51c0 -16 3.5 -28.5 10.5 -37.5s17.833 -13.5 32.5 -13.5c28.667 0 43 17 43 51z" />
    <glyph glyph-name="hungarumlaut" unicode="&#xa;" horiz-adv-x="414" 
d="M280 620h-92l68 160h138zM112 620h-92l68 160h138z" />
    <glyph glyph-name="ogonek" horiz-adv-x="264" 
d="M244 -181c-10.667 -4 -21.666 -7.33105 -32.999 -9.99805c-9.33301 -2.66699 -19.833 -4.83398 -31.5 -6.50098s-22.834 -2.5 -33.501 -2.5c-16.667 0 -32.667 1.66699 -48 5s-28.666 9.16602 -39.999 17.499s-20.5 19.5 -27.5 33.5s-10.5 32 -10.5 54
c0 17.333 3.5 32 10.5 44s14.833 22.333 23.5 31c10 9.33301 21.333 17.666 34 24.999h78c-6.66699 -8.66699 -12.334 -17.667 -17.001 -27c-4.66699 -8 -8.66699 -16.833 -12 -26.5s-5 -19.167 -5 -28.5c0 -23.333 11 -35 33 -35c5.33301 0 12.5 0.833008 21.5 2.5
s17.833 3.83398 26.5 6.50098c10 2.66699 20.333 5.66699 31 9v-92v0z" />
    <glyph glyph-name="caron" horiz-adv-x="426" 
d="M268 620h-110l-138 160h142l51 -72l51 72h142z" />
    <glyph glyph-name="dotlessi" unicode="&#xd;" 
d="M65 0v530h130v-530h-130z" />
    <glyph glyph-name="fraction" horiz-adv-x="230" 
d="M-20 -110h-100l370 920h100z" />
    <glyph glyph-name="fi" horiz-adv-x="540" 
d="M345 0l-0.00195312 439h-140v-439h-130v439h-70v91h70v42c0 30.667 4.5 56.167 13.5 76.5s21 36.5 36 48.5s32.5 20.5 52.5 25.5s40.667 7.5 62 7.5c14.667 0 28.5 -1 41.5 -3s24.833 -4 35.5 -6c12 -2.66699 23.333 -5.66699 34 -9v-97l-31 8
c-9.33301 2 -19.166 3.83301 -29.499 5.5s-20.166 2.5 -29.499 2.5c-20 0 -34.167 -4.33301 -42.5 -13s-12.5 -22.667 -12.5 -42v-46h270v-530h-130z" />
    <glyph glyph-name="fl" horiz-adv-x="535" 
d="M345 0l0.00292969 608.999c-8.66699 4 -17.667 7.66699 -27 11c-8 2.66699 -16.833 5.16699 -26.5 7.5s-19.167 3.5 -28.5 3.5c-38.667 0 -58 -19.333 -58 -58v-43h90l-15 -91h-75v-439h-130v439h-70v91h70v39c0 30.667 4.66699 56.334 14 77.001
s21.666 37.167 36.999 49.5s33.166 21.166 53.499 26.499s41.166 8 62.499 8c16.667 0 32 -1.66699 46 -5s26 -6.66602 36 -9.99902c12 -4.66699 22.333 -9.66699 31 -15l120 20v-720h-130z" />
    <glyph glyph-name="Lslash" horiz-adv-x="360" 
d="M340 0h-270v311l-50 -35v98l50 35v291h130v-199l90 64v-98l-90 -64v-294h155z" />
    <glyph glyph-name="lslash" 
d="M195 404v-404h-130v311l-50 -35v98l50 35v311h130v-218l50 35v-98z" />
    <glyph glyph-name="Zcaron" horiz-adv-x="410" 
d="M260 750h-110l-138 130h142l51 -62l51 62h142zM370 0h-335v96l210 500h-210v104h340v-96l-210 -500h215z" />
    <glyph glyph-name="zcaron" horiz-adv-x="403" 
d="M257 620h-110l-138 160h142l51 -72l51 72h142zM367 0h-332v90l193 338h-193v102h335v-90l-193 -338h196z" />
    <glyph glyph-name="space" unicode=" " 
 />
    <glyph glyph-name="space" unicode="&#xa0;" 
 />
    <glyph glyph-name="exclam" unicode="!" horiz-adv-x="301" 
d="M199 240h-96l-25 460h146zM236 58c0 -24 -8 -44.667 -24 -62s-36.333 -26 -61 -26s-45.167 8.66699 -61.5 26s-24.5 38 -24.5 62s8.16699 44.5 24.5 61.5s36.833 25.5 61.5 25.5s45 -8.5 61 -25.5s24 -37.5 24 -61.5z" />
    <glyph glyph-name="quotedbl" unicode="&#x22;" horiz-adv-x="463" 
d="M389 415h-106l-23 285h153zM179 415h-106l-23 285h153z" />
    <glyph glyph-name="numbersign" unicode="#" horiz-adv-x="620" 
d="M577 432h-97v-164h100v-108h-100v-160h-120v160h-100v-160h-120v160h-100v108h100v164h-100v108h100v160h120v-160h100v160h120v-160h105zM360 432h-100v-164h100v164z" />
    <glyph glyph-name="dollar" unicode="$" horiz-adv-x="350" 
d="M325 168c0 -89.333 -36.6719 -142.997 -110.005 -160.997v-127h-80v119c-13.333 0.666992 -26.166 2 -38.499 4s-23.166 4.33301 -32.499 7c-11.333 2.66699 -22 5.66699 -32 9v107c12.667 -4.66699 25 -8.33398 37 -11.001c10 -2.66699 20.333 -5 31 -7s19.667 -3 27 -3
c22 0 38.833 4.66699 50.5 14s17.5 27.666 17.5 54.999c0 20.667 -6 38.167 -18 52.5l-36 43.5l-46 56c-7.33301 8.66699 -15 18.5 -23 29.5s-15.5 23.333 -22.5 37s-12.833 28.667 -17.5 45s-7 34.166 -7 53.499c0 40.667 10 75.334 30 104.001s50 48 90 58v127h80v-121
c12 -1.33301 22.667 -2.83301 32 -4.5s17 -3.5 23 -5.5c7.33301 -2.66699 13.333 -5.33398 18 -8.00098v-102c-8 3.33301 -16.667 6.33301 -26 9c-8 2.66699 -17 5 -27 7s-20.667 3 -32 3c-17.333 0 -31.666 -4.83301 -42.999 -14.5s-17 -25.167 -17 -46.5
c0 -22 5.66699 -40.5 17 -55.5l35 -45.5l48 -59c8.66699 -10.667 17.334 -22 26.001 -34s16.334 -24.833 23.001 -38.5s12.167 -28.5 16.5 -44.5s6.5 -33.333 6.5 -52z" />
    <glyph glyph-name="percent" unicode="%" horiz-adv-x="801" 
d="M776 175c0 -35.333 -3.83301 -64.832 -11.5 -88.499s-18.334 -42.667 -32.001 -57s-29.667 -24.5 -48 -30.5s-38.5 -9 -60.5 -9c-21.333 0 -41.166 2.83301 -59.499 8.5s-34.333 15.5 -48 29.5s-24.5 32.833 -32.5 56.5s-12 53.834 -12 90.501c0 35.333 4 64.833 12 88.5
s18.833 42.667 32.5 57s29.667 24.5 48 30.5s38.166 9 59.499 9c22 0 42.333 -3 61 -9s34.834 -16.333 48.501 -31s24.167 -33.834 31.5 -57.501s11 -52.834 11 -87.501zM317 -9.99902h-113l280 720h113zM329 525.001c0 -35.333 -3.83301 -64.832 -11.5 -88.499
s-18.334 -42.667 -32.001 -57s-29.667 -24.5 -48 -30.5s-38.5 -9 -60.5 -9c-21.333 0 -41.166 2.83301 -59.499 8.5s-34.333 15.5 -48 29.5s-24.5 32.833 -32.5 56.5s-12 53.834 -12 90.501c0 35.333 4 64.833 12 88.5s18.833 42.667 32.5 57s29.667 24.5 48 30.5
s38.166 9 59.499 9c22 0 42.333 -3 61 -9s34.834 -16.333 48.501 -31s24.167 -33.834 31.5 -57.501s11 -52.834 11 -87.501zM666 175.002c0 23.333 -0.667969 42.502 -2.00098 57.502s-3.66602 26.833 -6.99902 35.5s-7.66602 14.667 -12.999 18s-12 5 -20 5
c-15.333 0 -26.166 -8.5 -32.499 -25.5s-9.5 -47.167 -9.5 -90.5c0 -36.667 2.66699 -64.834 8 -84.501s16.666 -29.5 33.999 -29.5s28.666 9.66699 33.999 29s8 47.666 8 84.999zM218.999 525.004c0 23.333 -0.667969 42.502 -2.00098 57.502
s-3.66602 26.833 -6.99902 35.5s-7.66602 14.667 -12.999 18s-12 5 -20 5c-15.333 0 -26.166 -8.5 -32.499 -25.5s-9.5 -47.167 -9.5 -90.5c0 -36.667 2.66699 -64.834 8 -84.501s16.666 -29.5 33.999 -29.5s28.666 9.66699 33.999 29s8 47.666 8 84.999z" />
    <glyph glyph-name="ampersand" unicode="&#x26;" horiz-adv-x="630" 
d="M465 -10l-48.001 67.999c-24.667 -21.333 -51.667 -38 -81 -50s-62 -18 -98 -18c-27.333 0 -53.5 3 -78.5 9s-47.167 16.167 -66.5 30.5s-34.666 33.5 -45.999 57.5s-17 53.667 -17 89c0 38.667 8.16699 70.834 24.5 96.501s34.166 46.167 53.499 61.5
c22.667 18 49 32.333 79 43c-18.667 10 -35 22.667 -49 38c-12 13.333 -23 30 -33 50s-15 44 -15 72c0 60.667 16 104.667 48 132s75 41 129 41c58 0 101.5 -12.667 130.5 -38s43.5 -66.333 43.5 -123c0 -33.333 -6.16699 -61.166 -18.5 -83.499
s-25.833 -40.166 -40.5 -53.499c-17.333 -16 -36.666 -28.667 -57.999 -38l103 -136c4 10.667 7.33301 23.667 10 39s4.83398 31.666 6.50098 48.999s2.66699 34.666 3 51.999s0.166016 33.333 -0.500977 48h120c0.666992 -23.333 0 -47.5 -2 -72.5
s-5.83301 -49.833 -11.5 -74.5s-13 -48 -22 -70s-19.833 -41.667 -32.5 -59l122 -150zM312.999 541.999c0 22 -2.83301 41.001 -8.5 57.001s-18.834 24 -39.501 24c-18 0 -30.333 -8.16699 -37 -24.5s-10 -36.833 -10 -61.5c0 -18 2 -33.5 6 -46.5s8.66699 -23.833 14 -32.5
c6 -10 13 -18.333 21 -25c10 6.66699 19 15.334 27 26.001c6.66699 9.33301 12.834 20.666 18.501 33.999s8.5 29.666 8.5 48.999zM229.999 312c-13.333 -5.33301 -25 -13.667 -35 -25c-9.33301 -9.33301 -17.5 -22.333 -24.5 -39s-10.5 -37.667 -10.5 -63
c0 -37.333 7.16699 -63.5 21.5 -78.5s34.166 -22.5 59.499 -22.5c27.333 0 50.833 4.5 70.5 13.5s36.834 21.167 51.501 36.5z" />
    <glyph glyph-name="quotesingle" unicode="'" horiz-adv-x="253" 
d="M179 415h-106l-23 285h153z" />
    <glyph glyph-name="parenleft" unicode="(" horiz-adv-x="283" 
d="M175 -130c-27.333 42.667 -51.666 89.6709 -72.999 141.004c-18 44 -34.5 94.833 -49.5 152.5s-22.5 119.834 -22.5 186.501c0 66 7.5 127.833 22.5 185.5s31.5 108.5 49.5 152.5c21.333 51.333 45.666 98.666 72.999 141.999h118c-23.333 -39.333 -44 -84 -62 -134
c-15.333 -42.667 -29.333 -93.334 -42 -152.001s-19 -123.334 -19 -194.001s6.33301 -135.334 19 -194.001s26.667 -109.334 42 -152.001c18 -50 38.667 -94.667 62 -134h-118z" />
    <glyph glyph-name="parenright" unicode=")" horiz-adv-x="283" 
d="M253 350c0 -66.667 -7.66699 -128.838 -23 -186.505s-32 -108.5 -50 -152.5c-21.333 -51.333 -45.333 -98.333 -72 -141h-118c22.667 39.333 43 84 61 134c15.333 42.667 29.5 93.334 42.5 152.001s19.5 123.334 19.5 194.001s-6.5 135.334 -19.5 194.001
s-27.167 109.334 -42.5 152.001c-18 50 -38.333 94.667 -61 134h118c26.667 -43.333 50.667 -90.666 72 -141.999c18 -44 34.667 -94.833 50 -152.5s23 -119.5 23 -185.5z" />
    <glyph glyph-name="asterisk" unicode="*" horiz-adv-x="449" 
d="M356 390l-95 85l25 -125h-121l24 125l-97 -85l-62 103l125 47l-125 46l62 103l97 -85l-24 126h121l-25 -126l95 85l63 -103l-127 -46l127 -47z" />
    <glyph glyph-name="plus" unicode="+" horiz-adv-x="570" 
d="M355 280v-175h-130v175h-170v120h170v165h130v-165h160v-120h-160z" />
    <glyph glyph-name="comma" unicode="," horiz-adv-x="286" 
d="M176 -170h-100l17 305h140z" />
    <glyph glyph-name="hyphen" unicode="-" horiz-adv-x="450" 
d="M55 270v115h340v-115h-340z" />
    <glyph glyph-name="period" unicode="." horiz-adv-x="301" 
d="M236 78c0 -24 -8 -44.667 -24 -62s-36.333 -26 -61 -26s-45.167 8.66699 -61.5 26s-24.5 38 -24.5 62s8.16699 44.5 24.5 61.5s36.833 25.5 61.5 25.5s45 -8.5 61 -25.5s24 -37.5 24 -61.5z" />
    <glyph glyph-name="slash" unicode="/" horiz-adv-x="272" 
d="M132 -10h-112l120 720h112z" />
    <glyph glyph-name="zero" unicode="0" horiz-adv-x="480" 
d="M445 330c0 -74 -5.49902 -133.332 -16.499 -177.999s-25.833 -79 -44.5 -103s-40.5 -39.833 -65.5 -47.5s-51.167 -11.5 -78.5 -11.5c-28 0 -54.333 4 -79 12s-46.334 24 -65.001 48s-33.5 58.333 -44.5 103s-16.5 103.667 -16.5 177c0 74 5.83301 133.333 17.5 178
s27.167 79 46.5 103s41.166 39.833 65.499 47.5s49.5 11.5 75.5 11.5c24.667 0 49.334 -3.66699 74.001 -11s46.667 -23 66 -47s35 -58.333 47 -103s18 -104.334 18 -179.001zM315.001 330.001c0 50.667 -1.3291 92.168 -3.99609 124.501s-6.83398 57.666 -12.501 75.999
s-13.334 30.833 -23.001 37.5s-21.5 10 -35.5 10c-13.333 0 -24.833 -3 -34.5 -9s-17.5 -18 -23.5 -36s-10.333 -43.167 -13 -75.5s-4 -74.833 -4 -127.5c0 -50 1.5 -90.833 4.5 -122.5s7.5 -56.667 13.5 -75s13.667 -31 23 -38s20.666 -10.5 33.999 -10.5
s24.666 3.16699 33.999 9.5s17 18.5 23 36.5s10.5 43 13.5 75s4.5 73.667 4.5 125z" />
    <glyph glyph-name="one" unicode="1" horiz-adv-x="320" 
d="M120 0v528l-110 -52v104l140 80h100v-660h-130z" />
    <glyph glyph-name="two" unicode="2" horiz-adv-x="385" 
d="M345 0l-325.004 0.00195312v112l109 138c24.667 31.333 46 63.166 64 95.499s27 68.166 27 107.499s-5.16699 68.333 -15.5 87s-29.5 28 -57.5 28c-13.333 0 -27.166 -1.16699 -41.499 -3.5s-27.5 -4.83301 -39.5 -7.5c-14 -2.66699 -27.667 -6 -41 -10v98
c12 4.66699 25.333 8.66699 40 12c12.667 3.33301 27.334 6.33301 44.001 9s34.667 4 54 4c26.667 0 51.334 -3.66699 74.001 -11s42.334 -19 59.001 -35s29.667 -37 39 -63s14 -57.667 14 -95c0 -31.333 -3.66699 -59.5 -11 -84.5s-17 -48.5 -29 -70.5
s-25.667 -42.667 -41 -62l-47 -58l-71 -84h205z" />
    <glyph glyph-name="three" unicode="3" horiz-adv-x="405" 
d="M370 192c0 -42.667 -8.32812 -77.9971 -24.9951 -105.997s-38.667 -50 -66 -66c-18 -10.667 -37.333 -19.334 -58 -26.001s-42.334 -12 -65.001 -16s-45.5 -6.83301 -68.5 -8.5s-45.5 -2.83398 -67.5 -3.50098v96c26.667 1.33301 54.167 3.5 82.5 6.5
s53.5 10.167 75.5 21.5c18.667 9.33301 33.667 22 45 38s17 39 17 69c0 66.667 -38 100 -114 100h-51v94h52c33.333 0 57.833 7.5 73.5 22.5s23.5 40.167 23.5 75.5c0 29.333 -6 50.333 -18 63s-31.667 19 -59 19c-14.667 0 -29.5 -0.833008 -44.5 -2.5
s-28.5 -3.5 -40.5 -5.5l-42 -8v95c12.667 4 26 7.33301 40 10c12 2.66699 25.5 5 40.5 7s30.833 3 47.5 3c29.333 0 56.666 -2.5 81.999 -7.5s47.166 -13.667 65.499 -26s32.666 -29.333 42.999 -51s15.5 -48.834 15.5 -81.501c0 -24.667 -3.33301 -45.834 -10 -63.501
s-15.5 -32.667 -26.5 -45s-23.667 -22.166 -38 -29.499s-28.833 -13.333 -43.5 -18c18 -3.33301 35.167 -8.5 51.5 -15.5s30.666 -16.667 42.999 -29s22 -27.5 29 -45.5s10.5 -40 10.5 -66z" />
    <glyph glyph-name="four" unicode="4" horiz-adv-x="470" 
d="M455 122h-74v-132l-130 -20v152h-241v100l76 438h148l-93 -430h110l24 240h106v-240h84z" />
    <glyph glyph-name="five" unicode="5" horiz-adv-x="425" 
d="M395 235c0 -54 -10.5 -98.9961 -31.5 -134.996s-48.833 -63.667 -83.5 -83c-32 -18 -68.167 -30.833 -108.5 -38.5s-81.5 -12.167 -123.5 -13.5v98c30 2.66699 59.333 6.16699 88 10.5s53.334 13.166 74.001 26.499c17.333 11.333 30.833 27 40.5 47s14.5 47 14.5 81
c0 31.333 -4.5 55.166 -13.5 71.499s-28.167 24.5 -57.5 24.5c-11.333 0 -22.5 -1.83301 -33.5 -5.5s-20.833 -7.83398 -29.5 -12.501c-10 -5.33301 -19.667 -11.333 -29 -18l-62 22l10 350h325l-13 -109h-192l-8 -149c6 4 13.333 7.66699 22 11
c7.33301 2.66699 16.166 5.16699 26.499 7.5s22.166 3.5 35.499 3.5c18.667 0 36.834 -2.5 54.501 -7.5s33.5 -14.5 47.5 -28.5s25.333 -33.333 34 -58s13 -56.334 13 -95.001z" />
    <glyph glyph-name="six" unicode="6" horiz-adv-x="485" 
d="M455 227c0 -48 -6.16602 -87.332 -18.499 -117.999s-28.5 -54.834 -48.5 -72.501s-42.5 -29.834 -67.5 -36.501s-50.167 -10 -75.5 -10c-28.667 0 -55.834 4 -81.501 12s-48 22.833 -67 44.5s-34 51.834 -45 90.501s-16.5 88.667 -16.5 150
c0 60.667 7.5 116.334 22.5 167.001s37.833 94.167 68.5 130.5s69 64.5 115 84.5s100 30 162 30v-97c-31.333 0 -60.333 -3.16699 -87 -9.5s-50.167 -17.333 -70.5 -33s-37.166 -36.5 -50.499 -62.5s-22 -58.667 -26 -98c8 8 18 15.667 30 23
c10 5.33301 22.5 10.5 37.5 15.5s32.5 7.5 52.5 7.5c21.333 0 42 -3.33301 62 -10s37.667 -18.334 53 -35.001s27.666 -39 36.999 -67s14 -63.333 14 -106zM325.001 223.001c0 25.333 -1.16895 46.333 -3.50195 63s-6.16602 30 -11.499 40s-12.5 17 -21.5 21
s-20.5 6 -34.5 6c-12.667 0 -24.334 -2 -35.001 -6s-20 -8.33301 -28 -13c-9.33301 -5.33301 -17.666 -11.333 -24.999 -18c-0.666992 -5.33301 -1 -10.666 -1 -15.999v-30c0 -37.333 1.5 -68.166 4.5 -92.499s7.83301 -43.5 14.5 -57.5s15 -23.833 25 -29.5
s22 -8.5 36 -8.5c12.667 0 23.834 1.83301 33.501 5.5s18 10.667 25 21s12.333 24.666 16 42.999s5.5 42.166 5.5 71.499z" />
    <glyph glyph-name="seven" unicode="7" horiz-adv-x="370" 
d="M365 561c-34 -40.667 -61.668 -79.666 -83.001 -116.999s-38 -77.333 -50 -120s-20.167 -89.834 -24.5 -141.501s-6.5 -112.5 -6.5 -182.5h-130c0 63.333 2.66699 121 8 173s15 100 29 144s32.833 85 56.5 123s53.834 75 90.501 111h-250v109h360v-99v0z" />
    <glyph glyph-name="eight" unicode="8" horiz-adv-x="506" 
d="M471 177c0 -35.333 -6.16699 -65.0029 -18.5 -89.0029s-28.5 -43.167 -48.5 -57.5s-43.167 -24.666 -69.5 -30.999s-53.5 -9.5 -81.5 -9.5c-30 0 -58.167 2.66699 -84.5 8s-49.5 14.833 -69.5 28.5s-35.667 32 -47 55s-17 52.5 -17 88.5c0 35.333 6.5 64 19.5 86
s27.5 39.333 43.5 52c18.667 14.667 40 25.667 64 33c-20.667 6 -39 15.667 -55 29c-13.333 11.333 -25.666 27 -36.999 47s-17 46 -17 78c0 34.667 5.83301 63.167 17.5 85.5s27 40.166 46 53.499s40.5 22.666 64.5 27.999s48 8 72 8c23.333 0 47 -2.66699 71 -8
s45.5 -14.666 64.5 -27.999s34.5 -31.166 46.5 -53.499s18 -50.5 18 -84.5c0 -30 -5.83301 -54.5 -17.5 -73.5s-24.5 -34.167 -38.5 -45.5c-16.667 -13.333 -35.334 -23.666 -56.001 -30.999c24 -5.33301 45.667 -14.666 65 -27.999c16 -11.333 30.833 -28.333 44.5 -51
s20.5 -52.667 20.5 -90zM323 490.997c0 13.333 -0.832031 25.5 -2.49902 36.5s-5 20.5 -10 28.5s-12 14.333 -21 19s-21.167 7 -36.5 7c-14 0 -25.5 -2.5 -34.5 -7.5s-16.167 -11.667 -21.5 -20s-9 -18 -11 -29s-3 -22.5 -3 -34.5c0 -20.667 4.33301 -39.167 13 -55.5
s21.667 -28.166 39 -35.499l37 -15c9.33301 6 17.666 14 24.999 24c6.66699 8.66699 12.667 19.667 18 33s8 29.666 8 48.999zM341.001 178.997c0 18 -2.16699 32.999 -6.5 44.999s-10.5 22 -18.5 30s-17.667 14.667 -29 20s-24 11 -38 17l-27 11
c-11.333 -8 -21 -18 -29 -30c-7.33301 -10 -13.833 -22.667 -19.5 -38s-8.5 -33.666 -8.5 -54.999c0 -33.333 7 -58.333 21 -75s36.333 -25 67 -25c28 0 49.667 7.83301 65 23.5s23 41.167 23 76.5z" />
    <glyph glyph-name="nine" unicode="9" horiz-adv-x="487" 
d="M452 366c0 -127.333 -28.501 -225.167 -85.501 -293.5s-145.833 -104.166 -266.5 -107.499v99c28 2 54.667 6.66699 80 14s48 18 68 32s36.5 31.667 49.5 53s21.167 47 24.5 77c-8.66699 -6 -18.334 -11 -29.001 -15c-9.33301 -4 -20.5 -7.5 -33.5 -10.5
s-28.167 -4.5 -45.5 -4.5c-19.333 0 -39.666 3.16699 -60.999 9.5s-41.166 18.166 -59.499 35.499s-33.5 40.833 -45.5 70.5s-18 68.167 -18 115.5c0 38 5.5 71.333 16.5 100s26.167 52.5 45.5 71.5s41.833 33.333 67.5 43s53.5 14.5 83.5 14.5
c31.333 0 59.833 -5.83301 85.5 -17.5s47.667 -29.834 66 -54.501s32.5 -56.167 42.5 -94.5s15 -84.166 15 -137.499zM324.999 331.999c0 42 -1.00098 78.333 -3.00098 109s-5.66699 56.167 -11 76.5s-13.166 35.5 -23.499 45.5s-23.833 15 -40.5 15
c-32 0 -54.5 -11 -67.5 -33s-19.5 -54.667 -19.5 -98c0 -54 7 -91.333 21 -112s33 -31 57 -31c13.333 0 25.333 1.5 36 4.5s19.667 6.16699 27 9.5c8.66699 4 16.667 8.66699 24 14z" />
    <glyph glyph-name="colon" unicode=":" horiz-adv-x="301" 
d="M236 453c0 -24 -8 -44.667 -24 -62s-36.333 -26 -61 -26s-45.167 8.66699 -61.5 26s-24.5 38 -24.5 62s8.16699 44.5 24.5 61.5s36.833 25.5 61.5 25.5s45 -8.5 61 -25.5s24 -37.5 24 -61.5zM236 78c0 -24 -8 -44.667 -24 -62s-36.333 -26 -61 -26
s-45.167 8.66699 -61.5 26s-24.5 38 -24.5 62s8.16699 44.5 24.5 61.5s36.833 25.5 61.5 25.5s45 -8.5 61 -25.5s24 -37.5 24 -61.5z" />
    <glyph glyph-name="semicolon" unicode=";" horiz-adv-x="306" 
d="M246 453c0 -24 -8 -44.667 -24 -62s-36.333 -26 -61 -26s-45.167 8.66699 -61.5 26s-24.5 38 -24.5 62s8.16699 44.5 24.5 61.5s36.833 25.5 61.5 25.5s45 -8.5 61 -25.5s24 -37.5 24 -61.5zM176 -170h-100l17 305h140z" />
    <glyph glyph-name="less" unicode="&#x3c;" horiz-adv-x="540" 
d="M55 285v100l430 215v-140l-305 -123l305 -127v-140z" />
    <glyph glyph-name="equal" unicode="=" horiz-adv-x="540" 
d="M55 380v120h430v-120h-430zM55 170v120h430v-120h-430z" />
    <glyph glyph-name="greater" unicode="&#x3e;" horiz-adv-x="540" 
d="M55 70v140l305 127l-305 123v140l430 -215v-100z" />
    <glyph glyph-name="question" unicode="?" horiz-adv-x="338" 
d="M318 562c0 -18.667 -2.5 -35.166 -7.5 -49.499s-11.167 -27.333 -18.5 -39s-15.5 -22.334 -24.5 -32.001l-26.5 -27.5l-15.5 -18c-5 -6 -9.33301 -13 -13 -21s-6.5 -17.5 -8.5 -28.5s-3 -24.167 -3 -39.5c0 -21.333 2.33301 -43.666 7 -66.999h-114
c-1.33301 11.333 -2.5 22.166 -3.5 32.499s-1.5 20.166 -1.5 29.499c0 24.667 1.83301 45.834 5.5 63.501s8.16699 32.834 13.5 45.501s11.5 23.5 18.5 32.5l20.5 25.5c11.333 13.333 21.333 26.833 30 40.5s13 30.5 13 50.5c0 18 -4.5 30 -13.5 36s-21.167 9 -36.5 9
c-10.667 0 -22 -1 -34 -3s-23.333 -4.33301 -34 -7c-12 -2.66699 -24.333 -6 -37 -10v101c14.667 4.66699 29.667 8.66699 45 12c13.333 3.33301 28 6.16602 44 8.49902s32 3.5 48 3.5c46 0 81.833 -11.5 107.5 -34.5s38.5 -60.833 38.5 -113.5zM240 58.001
c0 -24 -8 -44.667 -24 -62s-36.333 -26 -61 -26s-45.167 8.66699 -61.5 26s-24.5 38 -24.5 62s8.16699 44.5 24.5 61.5s36.833 25.5 61.5 25.5s45 -8.5 61 -25.5s24 -37.5 24 -61.5z" />
    <glyph glyph-name="at" unicode="@" horiz-adv-x="909" 
d="M874 326c0 -55.333 -5.50391 -102.833 -16.5039 -142.5s-25.667 -72.167 -44 -97.5s-39.5 -43.833 -63.5 -55.5s-48.667 -17.5 -74 -17.5c-30.667 0 -54.5 5.83301 -71.5 17.5s-29.833 24.834 -38.5 39.501c-10 17.333 -16 36.666 -18 57.999
c-10.667 -22 -23.667 -41.667 -39 -59c-13.333 -15.333 -30.166 -29 -50.499 -41s-44.5 -18 -72.5 -18c-18 0 -35.833 3.16699 -53.5 9.5s-33.5 16.666 -47.5 30.999s-25.333 33.333 -34 57s-13 53.167 -13 88.5c0 46.667 6.16699 88.667 18.5 126s29 69 50 95s45 46 72 60
s55.5 21 85.5 21c16.667 0 31 -2 43 -6s22 -8.66699 30 -14c9.33301 -6 17 -12.667 23 -20l24 32h89l-44 -269c-5.33301 -32.667 -4.16602 -59.5 3.50098 -80.5s21.5 -31.5 41.5 -31.5c14.667 0 27.334 3.83301 38.001 11.5s19.5 20 26.5 37s12.167 39.333 15.5 67
s5 61.5 5 101.5c0 96 -23.833 168.167 -71.5 216.5s-115.167 72.5 -202.5 72.5c-50 0 -95.667 -8.83301 -137 -26.5s-76.666 -43.167 -105.999 -76.5s-52 -74 -68 -122s-24 -102.667 -24 -164c0 -62.667 8.33301 -115 25 -157s38.167 -75.5 64.5 -100.5
s55.833 -42.667 88.5 -53s65 -15.5 97 -15.5c31.333 0 59.833 1.33301 85.5 4s48.167 5.66699 67.5 9c22 4 42.333 8.66699 61 14v-101c-18.667 -5.33301 -39.334 -9.66602 -62.001 -12.999c-19.333 -3.33301 -42 -6.33301 -68 -9s-54 -4 -84 -4
c-47.333 0 -94.166 6.83301 -140.499 20.5s-88 37 -125 70s-67 76.833 -90 131.5s-34.5 122.667 -34.5 204c0 80 12.5 150.167 37.5 210.5s58.5 110.833 100.5 151.5s90 71.167 144 91.5s110 30.5 168 30.5c54.667 0 105.667 -8 153 -24s88.5 -40 123.5 -72
s62.5 -72 82.5 -120s30 -104 30 -168zM535.996 384c-4.66699 4 -10 7.66992 -16 11.0029c-5.33301 3.33301 -11.833 6.16602 -19.5 8.49902s-16.5 3.5 -26.5 3.5c-14 0 -28 -5.16699 -42 -15.5s-26.5 -24.833 -37.5 -43.5s-20 -40.834 -27 -66.501s-10.5 -53.5 -10.5 -83.5
c0 -34.667 4.33301 -58.834 13 -72.501s21 -20.5 37 -20.5c15.333 0 29 5.66699 41 17s22.667 24 32 38c10.667 16 20 34.333 28 55l28 169v0z" />
    <glyph glyph-name="A" unicode="A" horiz-adv-x="480" 
d="M347 0l-27 146h-160l-27 -146h-138l172 700h146l172 -700h-138zM271 438c-3.33301 17.333 -6.66699 37 -10 59l-10 63c-3.33301 23.333 -7 47 -11 71c-4 -24 -7.66699 -47.667 -11 -71c-3.33301 -20 -6.5 -41 -9.5 -63s-6.16699 -41.667 -9.5 -59l-34 -194h128z" />
    <glyph glyph-name="B" unicode="B" horiz-adv-x="500" 
d="M465 201c0 -38 -4.66992 -69.832 -14.0029 -95.499s-23.166 -46.334 -41.499 -62.001s-41.5 -26.834 -69.5 -33.501s-60.667 -10 -98 -10h-177v700h177c70.667 0 122.167 -14 154.5 -42s48.5 -73.333 48.5 -136c0 -26 -3 -48.167 -9 -66.5s-14.167 -33.666 -24.5 -45.999
s-22.166 -22 -35.499 -29s-27 -12.5 -41 -16.5c16.667 -3.33301 32.834 -8.5 48.501 -15.5s29.5 -17 41.5 -30s21.667 -29 29 -48s11 -42.167 11 -69.5zM314.997 517.001c0 20 -1.83398 35.833 -5.50098 47.5s-9.16699 20.667 -16.5 27s-16.333 10.5 -27 12.5
s-22.667 3 -36 3h-35v-202h27c34.667 0 58.834 8.33301 72.501 25s20.5 45.667 20.5 87zM334.996 200.001c0 44.667 -9 75 -27 91s-46.667 24 -86 24h-27v-222h44c14 0 26.833 1.33301 38.5 4s21.667 8 30 16s15 19 20 33s7.5 32 7.5 54z" />
    <glyph glyph-name="C" unicode="C" horiz-adv-x="385" 
d="M375 14c-11.333 -4.66699 -23.6709 -8.66504 -37.0039 -11.998c-11.333 -3.33301 -24.833 -6.16602 -40.5 -8.49902s-32.167 -3.5 -49.5 -3.5c-23.333 0 -47.5 3.33301 -72.5 10s-48 22 -69 46s-38.167 59.167 -51.5 105.5s-20 109.166 -20 188.499
c0 80.667 7.83301 145.334 23.5 194.001s35.167 86 58.5 112s48.833 43.167 76.5 51.5s53.167 12.5 76.5 12.5c15.333 0 29.5 -1.16699 42.5 -3.5s24.167 -4.83301 33.5 -7.5c10.667 -3.33301 20.334 -7 29.001 -11v-104c-10.667 4 -22 7.66699 -34 11
c-10 2.66699 -21.333 5.16699 -34 7.5s-25.667 3.5 -39 3.5c-14.667 0 -28.167 -4.33301 -40.5 -13s-23.166 -23.334 -32.499 -44.001s-16.666 -48 -21.999 -82s-8 -76.333 -8 -127c0 -46 2 -84.667 6 -116s10 -56.5 18 -75.5s17.833 -32.5 29.5 -40.5
s24.834 -12 39.501 -12c13.333 0 26.833 1.16699 40.5 3.5s26.167 5.16602 37.5 8.49902c13.333 3.33301 26.333 7.66602 39 12.999v-107v0z" />
    <glyph glyph-name="D" unicode="D" horiz-adv-x="510" 
d="M475 360c0 -78 -6.83203 -140.5 -20.499 -187.5s-32.334 -83.333 -56.001 -109s-51.5 -42.667 -83.5 -51s-66.333 -12.5 -103 -12.5h-147v700h147c34.667 0 67.834 -3.83301 99.501 -11.5s59.667 -23.5 84 -47.5s43.666 -58.333 57.999 -103s21.5 -104 21.5 -178z
M345.001 360c0 52.667 -3 94.502 -9 125.502s-14.167 54.833 -24.5 71.5s-22.833 27.5 -37.5 32.5s-30.667 7.5 -48 7.5h-31v-493h23c22 0 41 3 57 9s29.167 18.167 39.5 36.5s18 44.166 23 77.499s7.5 77.666 7.5 132.999z" />
    <glyph glyph-name="E" unicode="E" horiz-adv-x="420" 
d="M390 592h-195v-172h175v-98h-175v-214h200v-108h-330v700h335z" />
    <glyph glyph-name="F" unicode="F" horiz-adv-x="400" 
d="M380 590h-185v-170h175v-98h-175v-322h-130v700h330z" />
    <glyph glyph-name="G" unicode="G" horiz-adv-x="535" 
d="M475 29c-21.333 -7.33301 -43.0039 -14 -65.0039 -20c-19.333 -5.33301 -40 -9.83301 -62 -13.5s-43 -5.5 -63 -5.5c-16 0 -33.333 0.666992 -52 2s-37.167 5.33301 -55.5 12s-36.166 17.167 -53.499 31.5s-32.5 34.5 -45.5 60.5s-23.5 58.833 -31.5 98.5
s-12 88.167 -12 145.5c0 79.333 8.66699 143.333 26 192s39.333 86.167 66 112.5s55.834 43.833 87.501 52.5s61.834 13 90.501 13c22.667 0 42.834 -1.66699 60.501 -5s32.834 -7 45.501 -11c14.667 -4.66699 27.667 -10 39 -16v-104c-13.333 6 -28 11.333 -44 16
c-13.333 4 -28.833 7.66699 -46.5 11s-36.5 5 -56.5 5c-18 0 -35.167 -3.5 -51.5 -10.5s-31 -20.167 -44 -39.5s-23.333 -46.333 -31 -81s-11.5 -79.667 -11.5 -135c0 -59.333 3.5 -105.5 10.5 -138.5s16 -57.5 27 -73.5s23.333 -25.667 37 -29s27.167 -5 40.5 -5
c14 0 28.333 1.66699 43 5c7.33301 1.33301 14.666 3 21.999 5v219h-80l-10 97h220v-391v0z" />
    <glyph glyph-name="H" unicode="H" horiz-adv-x="550" 
d="M355 0v322h-160v-322h-130v700h130v-280h160v280h130v-700h-130z" />
    <glyph glyph-name="I" unicode="I" horiz-adv-x="262" 
d="M65 0v700h132v-700h-132z" />
    <glyph glyph-name="J" unicode="J" horiz-adv-x="305" 
d="M240 125c0 -28 -3.66797 -50.667 -11.001 -68s-17.333 -31 -30 -41s-27.167 -16.833 -43.5 -20.5s-33.833 -5.5 -52.5 -5.5c-15.333 0 -29.166 0.833008 -41.499 2.5s-23.166 3.5 -32.499 5.5c-10.667 2.66699 -20.334 5.66699 -29.001 9v100
c10.667 -2.66699 20.667 -5 30 -7l24.5 -4c8.33301 -1.33301 14.5 -2 18.5 -2c12 0 21.167 3.5 27.5 10.5s9.5 19.167 9.5 36.5v559h130v-575v0z" />
    <glyph glyph-name="K" unicode="K" horiz-adv-x="485" 
d="M340 -10l-143 382l130 328h148l-154 -322l164 -378zM65 0v700h130v-700h-130z" />
    <glyph glyph-name="L" unicode="L" horiz-adv-x="355" 
d="M335 0h-270v700h130v-591h155z" />
    <glyph glyph-name="M" unicode="M" horiz-adv-x="690" 
d="M501 0l-5.99902 291.001c-0.666992 21.333 -0.5 44.833 0.5 70.5s2.16699 49.167 3.5 70.5c1.33301 25.333 3 50.333 5 75l-22 -59l-21 -53c-7.33301 -18.667 -14.333 -35.334 -21 -50.001l-95 -208l-99 214c-6.66699 13.333 -13.5 29 -20.5 47l-19.5 52l-22 59l6 -81
l4 -73.5c1.33301 -25.667 1.66602 -49.167 0.999023 -70.5l-6 -284h-129l24 700h121l140 -345l141 345h120l24 -700h-129z" />
    <glyph glyph-name="N" unicode="N" horiz-adv-x="540" 
d="M358 0l-97.999 246.001c-11.333 27.333 -22 55.333 -32 84s-18.667 54.667 -26 78l-25 81c3.33301 -34 6.33301 -67 9 -99l6 -83c2 -28 3 -50.667 3 -68v-239h-130v700h127l97 -247c11.333 -28 21.5 -55.833 30.5 -83.5s16.833 -52.834 23.5 -75.501l21 -76
c-4 32 -7.33301 63.667 -10 95c-2.66699 26.667 -4.83398 54.5 -6.50098 83.5s-2.5 54.167 -2.5 75.5v228h130v-700h-117z" />
    <glyph glyph-name="O" unicode="O" horiz-adv-x="500" 
d="M470 350c0 -54 -3.1709 -100.329 -9.50391 -138.996s-14.833 -71.334 -25.5 -98.001s-23.167 -48.167 -37.5 -64.5s-29.666 -28.833 -45.999 -37.5s-33.166 -14.334 -50.499 -17.001s-34.333 -4 -51 -4s-33.667 1.33301 -51 4s-34.166 8.16699 -50.499 16.5
s-31.666 20.5 -45.999 36.5s-26.833 37.333 -37.5 64s-19.167 59.5 -25.5 98.5s-9.5 85.833 -9.5 140.5c0 80.667 6.66699 144.667 20 192s30.666 83.5 51.999 108.5s45 41.167 71 48.5s51.667 11 77 11c24 0 49 -3.66699 75 -11s49.833 -23.333 71.5 -48
s39.334 -60.834 53.001 -108.501s20.5 -111.834 20.5 -192.501zM339.996 350.004c0 52 -2.00098 95 -6.00098 129s-9.66699 61.167 -17 81.5s-16.666 34.5 -27.999 42.5s-24.333 12 -39 12c-14 0 -26.667 -3.66699 -38 -11s-20.833 -20.833 -28.5 -40.5
s-13.5 -46.667 -17.5 -81s-6 -78.5 -6 -132.5c0 -56.667 2.33301 -102.334 7 -137.001s11 -61.5 19 -80.5s17.5 -31.667 28.5 -38s22.833 -9.5 35.5 -9.5c12 0 23.5 3.16699 34.5 9.5s20.5 19 28.5 38s14.5 45.833 19.5 80.5s7.5 80.334 7.5 137.001z" />
    <glyph glyph-name="P" unicode="P" horiz-adv-x="465" 
d="M445 460c0 -43.333 -5.50098 -80.168 -16.501 -110.501s-27 -55 -48 -74s-47 -33.167 -78 -42.5s-66.833 -14.666 -107.5 -15.999v-217h-130v700h157c40.667 0 75.334 -4.33301 104.001 -13s51.667 -22.5 69 -41.5s30 -43.833 38 -74.5s12 -67.667 12 -111z
M314.999 459.998c0 31.333 -1.66992 56.333 -5.00293 75s-8.66602 33 -15.999 43s-16.666 16.5 -27.999 19.5s-24.666 4.5 -39.999 4.5h-31v-296c27.333 2 49 6.5 65 13.5s28 16.833 36 29.5s13.167 28.167 15.5 46.5s3.5 39.833 3.5 64.5z" />
    <glyph glyph-name="Q" unicode="Q" horiz-adv-x="500" 
d="M470 350c0 -69.333 -5.16504 -126.335 -15.498 -171.002s-23.833 -80.167 -40.5 -106.5s-35.834 -45.333 -57.501 -57s-43.5 -19.167 -65.5 -22.5l100 -183h-150l-33 183c-22 2.66699 -43.667 9.66699 -65 21s-40.333 30.166 -57 56.499s-30.167 61.833 -40.5 106.5
s-15.5 102.334 -15.5 173.001c0 54 3.16699 100.333 9.5 139s14.833 71.334 25.5 98.001s23.167 48.167 37.5 64.5s29.666 28.833 45.999 37.5s33.166 14.334 50.499 17.001s34.333 4 51 4c24 0 49 -3.83301 75 -11.5s49.833 -24 71.5 -49s39.334 -61.167 53.001 -108.5
s20.5 -111 20.5 -191zM340.002 349.998c0 52 -2 95.001 -6 129.001s-9.83301 61.167 -17.5 81.5s-17.167 34.5 -28.5 42.5s-24 12 -38 12s-26.667 -3.5 -38 -10.5s-20.833 -20.333 -28.5 -40s-13.5 -46.667 -17.5 -81s-6 -78.833 -6 -133.5c0 -56.667 2 -102.5 6 -137.5
s10 -62.333 18 -82s17.5 -33 28.5 -40s23.5 -10.5 37.5 -10.5s26.5 3.5 37.5 10.5s20.333 20.167 28 39.5s13.667 46.666 18 81.999s6.5 81.333 6.5 138z" />
    <glyph glyph-name="R" unicode="R" horiz-adv-x="490" 
d="M326 0l-27.999 159.001c-5.33301 30.667 -12 58 -20 82s-18 41.667 -30 53l-53 -4v-290h-130v700h177c31.333 0 60.166 -2.83301 86.499 -8.5s48.833 -15.834 67.5 -30.501s33.167 -34.667 43.5 -60s15.5 -57.333 15.5 -96c0 -50.667 -9.66699 -90.5 -29 -119.5
s-45 -50.833 -77 -65.5c19.333 -8.66699 34.833 -25.667 46.5 -51s21.167 -54 28.5 -86l41 -183h-139zM325.001 505.001c0 20.667 -1.83203 37.333 -5.49902 50s-9.33398 22.334 -17.001 29.001s-17.167 11.167 -28.5 13.5s-24.333 3.5 -39 3.5h-40v-221
c24 1.33301 44.333 3.66602 61 6.99902s30 9.5 40 18.5s17.333 21.333 22 37s7 36.5 7 62.5z" />
    <glyph glyph-name="S" unicode="S" horiz-adv-x="386" 
d="M361 186c0 -42 -5.99707 -75.833 -17.9971 -101.5s-27.833 -45.5 -47.5 -59.5s-42 -23.333 -67 -28s-50.167 -7 -75.5 -7c-17.333 0 -33.333 0.833008 -48 2.5s-27.667 3.83398 -39 6.50098c-12.667 2.66699 -24.667 5.66699 -36 9v109c14.667 -4 28.667 -7.33301 42 -10
c11.333 -2.66699 23.5 -5 36.5 -7s24.5 -3 34.5 -3c11.333 0 22.333 1.16699 33 3.5s20 6.66602 28 12.999s14.5 14.833 19.5 25.5s7.5 24.334 7.5 41.001c0 13.333 -1.33301 24.833 -4 34.5s-6.66699 18.5 -12 26.5s-11.833 15.667 -19.5 23l-25.5 24l-58 53
c-10 9.33301 -19.833 19.666 -29.5 30.999s-18.334 24 -26.001 38s-13.834 29.833 -18.501 47.5s-7 37.167 -7 58.5c0 37.333 6 68.333 18 93s27.5 44.5 46.5 59.5s40.167 25.667 63.5 32s46.666 9.5 69.999 9.5c19.333 0 36.333 -1.16699 51 -3.5s27 -4.83301 37 -7.5
c12 -2.66699 22 -6 30 -10v-106c-10.667 4 -22 7.66699 -34 11c-10 3.33301 -21.5 6.16602 -34.5 8.49902s-26.167 3.5 -39.5 3.5c-23.333 0 -42.5 -6.33301 -57.5 -19s-22.5 -33.334 -22.5 -62.001c0 -12.667 1.5 -23.667 4.5 -33s7 -17.833 12 -25.5s11 -15 18 -22
s14.5 -13.833 22.5 -20.5l51 -44c12 -10.667 23.667 -22.167 35 -34.5s21.333 -26.166 30 -41.499s15.667 -32.666 21 -51.999s8 -41.333 8 -66z" />
    <glyph glyph-name="T" unicode="T" horiz-adv-x="390" 
d="M405 590h-130v-590h-130v590h-145v110h420z" />
    <glyph glyph-name="U" unicode="U" horiz-adv-x="516" 
d="M456 180c0 -68.667 -16.501 -117.499 -49.501 -146.499s-82.5 -43.5 -148.5 -43.5c-33.333 0 -62.5 3.33301 -87.5 10s-45.667 17.5 -62 32.5s-28.5 34.5 -36.5 58.5s-12 53.667 -12 89v520h130v-529c0 -12 0.833008 -23 2.5 -33s5 -18.333 10 -25
s11.833 -11.834 20.5 -15.501s20.334 -5.5 35.001 -5.5c25.333 0 43 7 53 21s15 33.333 15 58v529h130v-520v0z" />
    <glyph glyph-name="V" unicode="V" horiz-adv-x="440" 
d="M301 0l-162 0.000976562l-149 700h145l56 -400c3.33301 -23.333 6.5 -49.333 9.5 -78s6.16699 -55.334 9.5 -80.001l10 -87l10 92c3.33301 25.333 6.5 52 9.5 80s6.16699 52.333 9.5 73l56 400h145z" />
    <glyph glyph-name="W" unicode="W" horiz-adv-x="746" 
d="M632 0l-169.999 0.000976562l-57 387c-3.33301 19.333 -6.66602 43.666 -9.99902 72.999l-10 86l-12 103l-12 -103l-10.5 -86c-3.66699 -29.333 -6.83398 -53.666 -9.50098 -72.999l-56 -387h-171l-109 700h142l35 -393c2 -21.333 4 -46.5 6 -75.5s4 -56.5 6 -82.5l6 -94
l11 99c3.33301 27.333 6.5 55.166 9.5 83.499s5.83301 51.5 8.5 69.5l54 393h178l56 -393c2.66699 -19.333 5.5 -43 8.5 -71s6.16699 -55.667 9.5 -83l10 -98l8 99c2 27.333 4.16699 55 6.5 83s4.16602 51.333 5.49902 70l34 393h142z" />
    <glyph glyph-name="X" unicode="X" horiz-adv-x="450" 
d="M307 0l-82 268l-83 -268h-152l153 364l-143 336h154l71 -249l71 249h154l-142 -336l152 -364h-153z" />
    <glyph glyph-name="Y" unicode="Y" horiz-adv-x="450" 
d="M290 288v-288h-130v288l-170 412h150l85 -300l85 300h150z" />
    <glyph glyph-name="Z" unicode="Z" horiz-adv-x="410" 
d="M370 0h-335v96l210 500h-210v104h340v-96l-210 -500h215z" />
    <glyph glyph-name="bracketleft" unicode="[" horiz-adv-x="305" 
d="M65 -130v960h250v-111h-120v-738h120v-111h-250z" />
    <glyph glyph-name="backslash" unicode="\" horiz-adv-x="272" 
d="M140 -10l-120 720h112l120 -720h-112z" />
    <glyph glyph-name="bracketright" unicode="]" horiz-adv-x="305" 
d="M-10 -130v111h120v738h-120v111h250v-960h-250z" />
    <glyph glyph-name="asciicircum" unicode="^" horiz-adv-x="446" 
d="M294 420l-71 234l-71 -234h-132l149 350h108l149 -350h-132z" />
    <glyph glyph-name="underscore" unicode="_" horiz-adv-x="490" 
d="M0 -210v115h490v-115h-490z" />
    <glyph glyph-name="grave" unicode="`" horiz-adv-x="316" 
d="M174 620l-154 160h158l118 -160h-122z" />
    <glyph glyph-name="a" unicode="a" horiz-adv-x="460" 
d="M293 0l-19.999 42c-7.33301 -10 -16 -18.667 -26 -26c-8.66699 -6.66699 -19.167 -12.667 -31.5 -18s-26.5 -8 -42.5 -8c-15.333 0 -31.333 1.83301 -48 5.5s-32 11.5 -46 23.5s-25.667 29.167 -35 51.5s-14 52.5 -14 90.5c0 37.333 6.16699 67.5 18.5 90.5
s27.5 40.667 45.5 53s37 20.666 57 24.999s37.667 6.5 53 6.5h66v50c0 17.333 -4.33301 30.333 -13 39s-26 13 -52 13c-12.667 0 -26.834 -1.66699 -42.501 -5s-30.167 -6.66602 -43.5 -9.99902c-16.667 -4.66699 -33 -9.66699 -49 -15v101c15.333 5.33301 32 10.333 50 15
c15.333 4 33 7.66699 53 11s40.667 5 62 5s42 -2.16699 62 -6.5s37.667 -12.166 53 -23.499s27.5 -26.833 36.5 -46.5s13.5 -44.834 13.5 -75.501v-388h-107zM270.001 257l-46 -0.999023c-22.667 -0.666992 -39 -7.16699 -49 -19.5s-15 -36.5 -15 -72.5
c0 -16.667 1.16699 -30.167 3.5 -40.5s5.5 -18.333 9.5 -24s8.83301 -9.5 14.5 -11.5s11.5 -3 17.5 -3c7.33301 0 15 1.33301 23 4s15 5.66699 21 9c7.33301 3.33301 14.333 7.66602 21 12.999v146z" />
    <glyph glyph-name="b" unicode="b" horiz-adv-x="500" 
d="M465 272c0 -44.667 -3.66602 -82.666 -10.999 -113.999s-17 -57.5 -29 -78.5s-25.833 -37.333 -41.5 -49s-31.834 -20.5 -48.501 -26.5s-33.5 -9.83301 -50.5 -11.5s-32.5 -2.5 -46.5 -2.5c-20 0 -40.167 1.16699 -60.5 3.5s-38.833 5.16602 -55.5 8.49902
c-19.333 3.33301 -38.333 7.33301 -57 12v706h130v-217c11.333 9.33301 25.666 17.833 42.999 25.5s38 11.5 62 11.5c14.667 0 31.667 -2.16699 51 -6.5s37.333 -15.333 54 -33s30.834 -44.5 42.501 -80.5s17.5 -85.333 17.5 -148zM335.001 272.001
c0 38.667 -1.66699 69.166 -5 91.499s-8 39 -14 50s-13 17.833 -21 20.5s-16.333 4 -25 4c-9.33301 0 -18.5 -1.16699 -27.5 -3.5s-17.167 -5.16602 -24.5 -8.49902c-8 -3.33301 -15.667 -7.33301 -23 -12v-323c6.66699 -1.33301 13.667 -2.33301 21 -3
c6 -0.666992 12.167 -1.16699 18.5 -1.5s11.833 -0.5 16.5 -0.5c9.33301 0 19 2.16699 29 6.5s19 13 27 26s14.667 31.667 20 56s8 56.833 8 97.5z" />
    <glyph glyph-name="c" unicode="c" horiz-adv-x="355" 
d="M345 12c-9.33301 -4.66699 -20 -8.33496 -32 -11.002c-10 -3.33301 -21.833 -6 -35.5 -8s-28.5 -3 -44.5 -3s-35.333 2.33301 -58 7s-44.334 16.167 -65.001 34.5s-38.334 45.666 -53.001 81.999s-22 85.833 -22 148.5c0 44 3.83301 81.333 11.5 112
s17.667 56.334 30 77.001s26.333 36.834 42 48.501s31.334 20.5 47.001 26.5s30.834 9.83301 45.501 11.5s27 2.5 37 2.5c14 0 27 -1.16699 39 -3.5s22.333 -4.83301 31 -7.5c10 -3.33301 19 -7 27 -11v-103c-10.667 4 -21.334 7.66699 -32.001 11
c-9.33301 2.66699 -19.5 5.16699 -30.5 7.5s-21.5 3.5 -31.5 3.5s-20.167 -2.16699 -30.5 -6.5s-19.666 -12.666 -27.999 -24.999s-15 -30 -20 -53s-7.5 -53.167 -7.5 -90.5c0 -33.333 2.16699 -60.833 6.5 -82.5s10 -38.667 17 -51s15.167 -20.833 24.5 -25.5
s19.333 -7 30 -7c12 0 24 1 36 3s23 4.66699 33 8c11.333 3.33301 22.333 7.33301 33 12v-107v0z" />
    <glyph glyph-name="d" unicode="d" horiz-adv-x="510" 
d="M342 0l-15.999 39.9971c-7.33301 -9.33301 -16.666 -17.666 -27.999 -24.999c-9.33301 -6.66699 -21 -12.5 -35 -17.5s-30 -7.5 -48 -7.5c-16 0 -34.333 2.33301 -55 7s-40.334 16.167 -59.001 34.5s-34.334 45.833 -47.001 82.5s-19 87 -19 151
c0 42.667 3.5 79.167 10.5 109.5s16.333 55.833 28 76.5s24.667 36.834 39 48.501s29 20.5 44 26.5s29.333 9.83301 43 11.5s25.5 2.5 35.5 2.5c13.333 0 25 -1.66699 35 -5s18.333 -6.66602 25 -9.99902c7.33301 -4.66699 14 -9.66699 20 -15v210h130v-720h-103z
M315.001 418.997c-5.33301 3.33301 -11.335 6.33301 -18.002 9c-5.33301 2.66699 -11.666 5 -18.999 7s-15.666 3 -24.999 3c-12 0 -23.333 -1.5 -34 -4.5s-20 -10.167 -28 -21.5s-14.333 -28.666 -19 -51.999s-7 -55 -7 -95c0 -41.333 2.16699 -73.5 6.5 -96.5
s10 -40.333 17 -52s15.167 -18.834 24.5 -21.501s19.333 -4 30 -4c9.33301 0 18 1.5 26 4.5s15.667 6.16699 23 9.5c7.33301 4 15 9 23 15v299z" />
    <glyph glyph-name="e" unicode="e" horiz-adv-x="445" 
d="M414 222l-250 -0.00292969c0 -28 2.5 -50.5 7.5 -67.5s11.833 -30 20.5 -39s18.334 -14.833 29.001 -17.5s22 -4 34 -4c11.333 0 24.666 1 39.999 3s29.666 4.33301 42.999 7c16 2.66699 32.333 6.33398 49 11.001v-103c-12.667 -4.66699 -26 -8.33398 -40 -11.001
c-12 -3.33301 -26 -6 -42 -8s-32.667 -3 -50 -3c-26 0 -52 2.33301 -78 7s-49.5 16.334 -70.5 35.001s-38.167 46.334 -51.5 83.001s-20 86.667 -20 150c0 56 5.5 101.833 16.5 137.5s25.667 63.667 44 84s39.666 34.333 63.999 42s49.5 11.5 75.5 11.5
c26.667 0 51.334 -4.33301 74.001 -13s42 -23.5 58 -44.5s28.333 -49.167 37 -84.5s12.334 -79.666 11.001 -132.999zM288 303.997c0 52 -3.16699 89.667 -9.5 113s-20.833 35 -43.5 35c-12 0 -22.333 -1.83301 -31 -5.5s-16 -10.834 -22 -21.501s-10.333 -25.667 -13 -45
s-4 -44.666 -4 -75.999h123v0z" />
    <glyph glyph-name="f" unicode="f" horiz-adv-x="310" 
d="M350 615l-31.002 8c-9.33301 2 -19.166 3.83301 -29.499 5.5s-20.166 2.5 -29.499 2.5c-20 0 -34.167 -4.33301 -42.5 -13s-12.5 -22.667 -12.5 -42v-46h100l-15 -91h-85v-439h-130v439h-70v91h70v42c0 30.667 4.5 56.167 13.5 76.5s21 36.5 36 48.5s32.5 20.5 52.5 25.5
s40.667 7.5 62 7.5c16.667 0 32 -1 46 -3s25.667 -4 35 -6c11.333 -2.66699 21.333 -5.66699 30 -9v-97v0z" />
    <glyph glyph-name="g" unicode="g" horiz-adv-x="469" 
d="M386 442c8.66699 -12 15.334 -25.3291 20.001 -39.9961s7 -29 7 -43c0 -36.667 -4.66699 -67 -14 -91s-22.166 -43 -38.499 -57s-35.666 -23.833 -57.999 -29.5s-46.5 -8.5 -72.5 -8.5c-8 0 -15.5 0.333008 -22.5 1s-13.167 1.66699 -18.5 3
c-6.66699 1.33301 -12.334 2.66602 -17.001 3.99902c-3.33301 -2.66699 -6.33301 -5.66699 -9 -9c-6 -7.33301 -9 -14.666 -9 -21.999c0 -11.333 3.66699 -19.333 11 -24s18 -7.66699 32 -9l101 -10c24.667 -2.66699 46.667 -6.33398 66 -11.001s35.833 -12.167 49.5 -22.5
s24 -24 31 -41s10.5 -38.833 10.5 -65.5c0 -32 -4.83301 -58.667 -14.5 -80s-24.334 -38.5 -44.001 -51.5s-44.334 -22.167 -74.001 -27.5s-64.5 -8 -104.5 -8c-29.333 0 -55.5 1.83301 -78.5 5.5s-42.833 10 -59.5 19s-29.334 21.333 -38.001 37s-13 35.5 -13 59.5
c0 13.333 2 25.666 6 36.999s9.16699 21.666 15.5 30.999s13.333 17.833 21 25.5s15.5 14.5 23.5 20.5c-13.333 7.33301 -24.333 17.5 -33 30.5s-13 30.5 -13 52.5c0 22.667 6.66699 41.667 20 57s27.333 27.333 42 36c-18.667 14.667 -34.167 33.667 -46.5 57
s-18.5 54.666 -18.5 93.999c0 34.667 5.16699 63.5 15.5 86.5s24.166 41.333 41.499 55s37 23.167 59 28.5s44.667 8 68 8c8.66699 0 16.334 -0.5 23.001 -1.5s13 -2.16699 19 -3.5s11.833 -2.5 17.5 -3.5s11.834 -1.5 18.501 -1.5h156v-88h-78zM284 362.004
c0 36.667 -3.83301 61.501 -11.5 74.501s-21.834 19.5 -42.501 19.5c-19.333 0 -33.166 -6.66699 -41.499 -20s-12.5 -38 -12.5 -74c0 -20.667 0.833008 -37.667 2.5 -51s4.66699 -24 9 -32s10 -13.667 17 -17s15.5 -5 25.5 -5c11.333 0 20.5 1.5 27.5 4.5
s12.5 8.5 16.5 16.5s6.66699 18.667 8 32s2 30.666 2 51.999zM329 -47.9951c0 21.333 -4.83203 35.334 -14.499 42.001s-25.167 11 -46.5 13l-92 9c-6 -10 -11.5 -21.5 -16.5 -34.5s-7.5 -26.5 -7.5 -40.5c0 -21.333 6.66699 -35.833 20 -43.5s28.666 -11.5 45.999 -11.5
c34 0 61 4.16699 81 12.5s30 26.166 30 53.499z" />
    <glyph glyph-name="h" unicode="h" horiz-adv-x="525" 
d="M335 0v376.001c0 18.667 -2.33301 32 -7 40s-15.667 12 -33 12c-11.333 0 -23 -1.83301 -35 -5.5s-22.667 -7.5 -32 -11.5c-11.333 -4.66699 -22.333 -10 -33 -16v-395h-130v720h130v-235c11.333 10 24 19 38 27c12 7.33301 26.333 13.833 43 19.5s35.667 8.5 57 8.5
c42 0 74.5 -10.833 97.5 -32.5s34.5 -56.834 34.5 -105.501v-402h-130z" />
    <glyph glyph-name="i" unicode="i" 
d="M204 680c0 -20.667 -7 -38.334 -21 -53.001s-31.667 -22 -53 -22s-39 7.33301 -53 22s-21 32.334 -21 53.001s7 38.334 21 53.001s31.667 22 53 22s39 -7.33301 53 -22s21 -32.334 21 -53.001zM65 0v530h130v-530h-130z" />
    <glyph glyph-name="j" unicode="j" 
d="M204 680c0 -20.667 -7 -38.334 -21 -53.001s-31.667 -22 -53 -22s-39 7.33301 -53 22s-21 32.334 -21 53.001s7 38.334 21 53.001s31.667 22 53 22s39 -7.33301 53 -22s21 -32.334 21 -53.001zM195 -61c0 -29.333 -3.83203 -53.167 -11.499 -71.5
s-17.5 -32.5 -29.5 -42.5s-25.667 -16.667 -41 -20s-30.333 -5 -45 -5c-14 0 -27.667 0.833008 -41 2.5s-25.333 3.5 -36 5.5c-12 2.66699 -24 5.66699 -36 9v101l28 -6l24.5 -4c8.33301 -1.33301 15.5 -2 21.5 -2c11.333 0 20.166 3 26.499 9s9.5 16 9.5 30v585h130v-591v0
z" />
    <glyph glyph-name="k" unicode="k" horiz-adv-x="460" 
d="M315 -10l-118 310l94 230h149l-116 -224l136 -306zM65 0v720h130v-720h-130z" />
    <glyph glyph-name="l" unicode="l" horiz-adv-x="250" 
d="M60 0v720h130v-720h-130z" />
    <glyph glyph-name="m" unicode="m" horiz-adv-x="745" 
d="M555 0l0.00195312 395.997c0 12.667 -2 21.334 -6 26.001s-12.667 7 -26 7c-9.33301 0 -18.833 -1.66699 -28.5 -5s-18.5 -7 -26.5 -11c-9.33301 -4.66699 -18.666 -10 -27.999 -16v-397h-130v396c0 12.667 -2 21.334 -6 26.001s-12.667 7 -26 7
c-9.33301 0 -18.833 -1.66699 -28.5 -5s-18.5 -7 -26.5 -11c-9.33301 -4.66699 -18.666 -10 -27.999 -16v-397h-130v530h102l25 -44c11.333 10 23.333 19 36 27c11.333 6.66699 24.166 12.834 38.499 18.501s29.833 8.5 46.5 8.5c31.333 0 55.666 -4.66699 72.999 -14
s31.666 -25.333 42.999 -48c18 16.667 37.667 31.167 59 43.5s44.666 18.5 69.999 18.5c47.333 0 80.333 -11.833 99 -35.5s28 -56.167 28 -97.5v-407h-130z" />
    <glyph glyph-name="n" unicode="n" horiz-adv-x="525" 
d="M335 0v376.001c0 18.667 -2.33301 32 -7 40s-15.667 12 -33 12c-11.333 0 -23 -1.83301 -35 -5.5s-22.667 -7.5 -32 -11.5c-11.333 -4.66699 -22.333 -10 -33 -16v-395h-130v530h102l25 -45c11.333 10 24.333 19 39 27c12.667 7.33301 27.5 13.833 44.5 19.5
s36.167 8.5 57.5 8.5c42 0 74.5 -10.833 97.5 -32.5s34.5 -56.834 34.5 -105.501v-402h-130z" />
    <glyph glyph-name="o" unicode="o" horiz-adv-x="484" 
d="M454 265c0 -57.333 -5.99805 -103.833 -17.998 -139.5s-27.833 -63.5 -47.5 -83.5s-42.334 -33.667 -68.001 -41s-51.834 -11 -78.501 -11c-27.333 0 -53.666 3.66699 -78.999 11s-47.833 21.166 -67.5 41.499s-35.5 48.333 -47.5 84s-18 81.834 -18 138.501
c0 54.667 6 99.667 18 135s27.833 63.333 47.5 84s42.167 35.167 67.5 43.5s51.666 12.5 78.999 12.5c26.667 0 52.667 -3.83301 78 -11.5s48 -21.667 68 -42s36 -48.333 48 -84s18 -81.5 18 -137.5zM324.002 265c0 39.333 -1.83105 71.0029 -5.49805 95.0029
s-9 42.667 -16 56s-15.5 22.166 -25.5 26.499s-21.667 6.5 -35 6.5c-14 0 -26 -2.66699 -36 -8s-18.5 -15 -25.5 -29s-12.167 -32.833 -15.5 -56.5s-5 -53.834 -5 -90.501c0 -37.333 2.16699 -68 6.5 -92s10.166 -42.667 17.499 -56s16 -22.5 26 -27.5s20.667 -7.5 32 -7.5
s22 2.16699 32 6.5s18.667 13.166 26 26.499s13.166 31.833 17.499 55.5s6.5 55.167 6.5 94.5z" />
    <glyph glyph-name="p" unicode="p" horiz-adv-x="500" 
d="M465 271c0 -65.333 -6.83203 -116.83 -20.499 -154.497s-30.5 -65.834 -50.5 -84.501s-41.333 -30.334 -64 -35.001s-42.667 -7 -60 -7c-9.33301 0 -18.333 0.666992 -27 2s-16.667 2.66602 -24 3.99902c-8 2 -16 4.33301 -24 7v-193h-130v720h104l18 -38
c8 8.66699 18 16.667 30 24c9.33301 6 21.166 11.5 35.499 16.5s30.166 7.5 47.499 7.5c18.667 0 37.834 -2.5 57.501 -7.5s37.5 -16.667 53.5 -35s29 -45.333 39 -81s15 -84.167 15 -145.5zM335.001 271.003c0 37.333 -1.50098 67.168 -4.50098 89.501
s-7.16699 39.333 -12.5 51s-12.166 19.167 -20.499 22.5s-17.5 5 -27.5 5c-11.333 0 -21.5 -1.66699 -30.5 -5s-16.833 -7 -23.5 -11c-7.33301 -4.66699 -14.333 -9.66699 -21 -15v-313c6 -2 12.667 -3.66699 20 -5c6 -1.33301 12.333 -2.33301 19 -3s13 -1 19 -1
c9.33301 0 18.833 1.83301 28.5 5.5s18.5 12 26.5 25s14.5 31.667 19.5 56s7.5 57.166 7.5 98.499z" />
    <glyph glyph-name="q" unicode="q" horiz-adv-x="510" 
d="M315 -190l0.000976562 204.997c-7.33301 -5.33301 -16 -9.66602 -26 -12.999c-8.66699 -3.33301 -18.834 -6.16602 -30.501 -8.49902s-24.5 -3.5 -38.5 -3.5c-17.333 0 -36.666 2.33301 -57.999 7s-41.5 16.334 -60.5 35.001s-34.833 46.5 -47.5 83.5
s-19 87.833 -19 152.5c0 59.333 6.5 107 19.5 143s28.833 63.5 47.5 82.5s38.667 31.5 60 37.5s40.666 9 57.999 9c18.667 0 34.5 -2.5 47.5 -7.5s23.833 -10.5 32.5 -16.5c10 -7.33301 18.333 -15 25 -23l20 37h100v-720h-130zM315.001 407.997
c-7.33301 5.33301 -14.666 9.99902 -21.999 13.999c-6.66699 3.33301 -14 6.5 -22 9.5s-16.667 4.5 -26 4.5c-12 0 -23 -2 -33 -6s-18.5 -12 -25.5 -24s-12.333 -29 -16 -51s-5.5 -51 -5.5 -87c0 -40.667 2 -72.834 6 -96.501s9.5 -41.667 16.5 -54
s15.333 -20.166 25 -23.499s20.5 -5 32.5 -5c8.66699 0 17.167 0.833008 25.5 2.5s15.833 3.83398 22.5 6.50098c7.33301 2.66699 14.666 5.66699 21.999 9v301z" />
    <glyph glyph-name="r" unicode="r" horiz-adv-x="333" 
d="M328 411l-17 4.99902c-5.33301 1.33301 -11.666 2.5 -18.999 3.5s-15.333 1.5 -24 1.5c-11.333 0 -21.333 -1.66699 -30 -5s-16.334 -6.66602 -23.001 -9.99902c-7.33301 -4 -14 -8.66699 -20 -14v-392h-130v530h104l18 -55c4.66699 12 11 22.667 19 32
c7.33301 8 16.833 15.5 28.5 22.5s26.5 10.5 44.5 10.5c8 0 15 -0.5 21 -1.5s11 -2.16699 15 -3.5c4.66699 -2 9 -3.66699 13 -5v-119v0z" />
    <glyph glyph-name="s" unicode="s" horiz-adv-x="354" 
d="M329 158c0 -34.667 -5.33301 -63.001 -16 -85.001s-24.834 -39.167 -42.501 -51.5s-37.5 -20.666 -59.5 -24.999s-44 -6.5 -66 -6.5c-14.667 0 -28.834 1 -42.501 3s-25.834 4.33301 -36.501 7c-12.667 2.66699 -24.667 6.33398 -36 11.001v106
c14 -4.66699 27.333 -8.66699 40 -12c11.333 -3.33301 23 -6 35 -8s22 -3 30 -3c22 0 38.833 4.33301 50.5 13s17.5 23.334 17.5 44.001c0 17.333 -4.66699 30 -14 38s-20.666 15.667 -33.999 23l-36 20c-8 4.66699 -17.333 10.5 -28 17.5s-21 16.167 -31 27.5
s-18.333 25.166 -25 41.499s-10 35.833 -10 58.5c0 30 4.83301 55.333 14.5 76s22.834 37.5 39.501 50.5s35.667 22.333 57 28s44 8.5 68 8.5c15.333 0 29.333 -1.16699 42 -3.5s23.667 -4.83301 33 -7.5c11.333 -3.33301 21.333 -7 30 -11v-101
c-10 4 -20.667 7.33301 -32 10c-9.33301 2.66699 -20 5.16699 -32 7.5s-24.667 3.5 -38 3.5c-17.333 0 -31.166 -4.66699 -41.499 -14s-15.5 -21.666 -15.5 -36.999c0 -9.33301 1.33301 -17 4 -23s6.5 -11.333 11.5 -16s10.833 -8.83398 17.5 -12.501s14 -7.5 22 -11.5
l41 -23c9.33301 -5.33301 19 -11.833 29 -19.5s19 -17.334 27 -29.001s14.5 -25.167 19.5 -40.5s7.5 -33.333 7.5 -54z" />
    <glyph glyph-name="t" unicode="t" horiz-adv-x="320" 
d="M315 4c-10 -2.66699 -20.667 -5.00098 -32 -7.00098c-9.33301 -2 -20.333 -3.66699 -33 -5s-26 -2 -40 -2s-28.833 1.16699 -44.5 3.5s-30.167 8 -43.5 17s-24.5 22.333 -33.5 40s-13.5 41.834 -13.5 72.501v316h-70v91h70l14 120l116 40v-160h100l-15 -91h-85v-302
c0 -18 3.5 -29.833 10.5 -35.5s17.167 -8.5 30.5 -8.5c4.66699 0 11 0.666992 19 2l23 4l27 6v-101v0z" />
    <glyph glyph-name="u" unicode="u" horiz-adv-x="515" 
d="M342 0l-16.001 40.999c-10.667 -10 -22 -18.667 -34 -26c-10.667 -6.66699 -23 -12.5 -37 -17.5s-29 -7.5 -45 -7.5c-20 0 -39 2 -57 6s-33.833 11.833 -47.5 23.5s-24.667 28.334 -33 50.001s-12.5 50.167 -12.5 85.5v375h130v-375c0 -22.667 3.83301 -37.5 11.5 -44.5
s17.834 -10.5 30.501 -10.5c10.667 0 21.167 1.66699 31.5 5s19.833 7 28.5 11c10 4.66699 19.333 10 28 16v398h130v-530h-108z" />
    <glyph glyph-name="v" unicode="v" horiz-adv-x="440" 
d="M297 0h-153.997l-148 530h142l53 -280c3.33301 -16.667 6.66602 -35.667 9.99902 -57l10 -61l10 -69l10 69c3.33301 19.333 6.66602 39.833 9.99902 61.5s6.66602 40.5 9.99902 56.5l53 280h142z" />
    <glyph glyph-name="w" unicode="w" horiz-adv-x="734" 
d="M615 0l-167.998 -0.000976562l-46 254c-3.33301 18.667 -7 40.667 -11 66s-7.66699 49.666 -11 72.999l-12 84l-13 -83c-3.33301 -23.333 -7 -47.666 -11 -72.999s-7.66699 -47.333 -11 -66l-46 -255h-167l-104 530h141l28 -267c2 -18.667 4 -40.167 6 -64.5l6 -70.5
c2.66699 -26.667 5 -53.667 7 -81c4 27.333 7.66699 54.333 11 81l10 71c3.33301 24.667 6.66602 46 9.99902 64l47 267h171l48 -267c3.33301 -18 6.66602 -39.333 9.99902 -64l10 -71l10 -81c2 28 4.33301 55.333 7 82c2 22.667 4.33301 46.334 7 71.001l7 63l29 267h139z
" />
    <glyph glyph-name="x" unicode="x" horiz-adv-x="460" 
d="M307 0l-77 202l-77 -202h-158l149 279l-139 251h159l66 -182l66 182h159l-139 -251l149 -279h-158z" />
    <glyph glyph-name="y" unicode="y" horiz-adv-x="425" 
d="M283 -55c-7.33301 -28 -15.6699 -51.334 -25.0029 -70.001s-20.666 -33.5 -33.999 -44.5s-28.833 -18.833 -46.5 -23.5s-38.5 -7 -62.5 -7c-15.333 0 -29.166 0.833008 -41.499 2.5s-23.166 3.83398 -32.499 6.50098c-11.333 2.66699 -21.333 5.66699 -30 9v100l35 -8
c10 -2 20.333 -3.83301 31 -5.5s20 -2.5 28 -2.5c16.667 0 29.667 3.5 39 10.5s16 19.167 20 36.5l12 49l-181 532h155l77 -377l61 377h142z" />
    <glyph glyph-name="z" unicode="z" horiz-adv-x="403" 
d="M367 0h-332v90l193 338h-193v102h335v-90l-193 -338h196z" />
    <glyph glyph-name="braceleft" unicode="{" horiz-adv-x="303" 
d="M276 -130c-66.667 0 -117.167 15.666 -151.5 46.999s-51.5 83.333 -51.5 156v129c0 21.333 -3.83301 38.333 -11.5 51s-16.167 22.334 -25.5 29.001c-10.667 7.33301 -22.667 12 -36 14v110c13.333 2.66699 25.333 7.66699 36 15
c9.33301 6.66699 17.833 16.167 25.5 28.5s11.5 29.166 11.5 50.499v127c0 72.667 17.167 124.667 51.5 156s84.833 47 151.5 47h37v-108h-7c-17.333 0 -32.5 -1 -45.5 -3s-23.833 -6 -32.5 -12s-15 -14.833 -19 -26.5s-6 -27.167 -6 -46.5v-129
c0 -23.333 -2.83301 -43.666 -8.5 -60.999s-13.5 -32.333 -23.5 -45s-21.5 -23 -34.5 -31s-26.5 -14 -40.5 -18c30.667 -7.33301 56.167 -23.333 76.5 -48s30.5 -59.667 30.5 -105v-131c0 -35.333 8.83301 -58.833 26.5 -70.5s43.167 -17.5 76.5 -17.5h7v-108h-37z" />
    <glyph glyph-name="bar" unicode="|" 
d="M65 -110v920h130v-920h-130z" />
    <glyph glyph-name="braceright" unicode="}" horiz-adv-x="303" 
d="M303 296c-14 -2 -26.334 -6.66602 -37.001 -13.999c-9.33301 -6.66699 -17.666 -16.334 -24.999 -29.001s-11 -29.667 -11 -51v-129c0 -72.667 -17.167 -124.667 -51.5 -156s-84.833 -47 -151.5 -47h-37v108h7c32.667 0 58 5.83301 76 17.5s27 35.167 27 70.5v131
c0 45.333 10.167 80.333 30.5 105s45.833 40.667 76.5 48c-14 4 -27.5 10 -40.5 18s-24.5 18.333 -34.5 31s-17.833 27.667 -23.5 45s-8.5 37.666 -8.5 60.999v129c0 19.333 -2.16699 34.833 -6.5 46.5s-10.666 20.5 -18.999 26.5s-19 10 -32 12s-28.167 3 -45.5 3h-7v108
h37c66.667 0 117.167 -15.667 151.5 -47s51.5 -83.333 51.5 -156v-127c0 -21.333 3.66699 -38.166 11 -50.499s15.666 -21.833 24.999 -28.5c10.667 -7.33301 23 -12.333 37 -15v-110v0z" />
    <glyph glyph-name="asciitilde" unicode="~" horiz-adv-x="630" 
d="M575 285c-12.667 -8 -26.665 -15.333 -41.998 -22c-13.333 -5.33301 -28.333 -10.166 -45 -14.499s-33.667 -6.5 -51 -6.5c-21.333 0 -42.333 3.5 -63 10.5s-40.834 14.667 -60.501 23l-56 23c-17.667 7 -34.5 10.5 -50.5 10.5c-17.333 0 -35 -2.33301 -53 -7
s-34.333 -9.66699 -49 -15c-17.333 -6.66699 -34 -14 -50 -22v120c14 8 29.667 15.333 47 22c14 5.33301 30.333 10.333 49 15s37.667 7 57 7c23.333 0 45.666 -3.5 66.999 -10.5s41.5 -14.833 60.5 -23.5s37 -16.5 54 -23.5s33.5 -10.5 49.5 -10.5
c13.333 0 28 2.16699 44 6.5s30.667 9.16602 44 14.499c16 6.66699 32 14 48 22v-119v0z" />
    <glyph glyph-name="exclamdown" unicode="&#xa1;" horiz-adv-x="301" 
d="M236 452c0 -24 -8.16699 -44.5 -24.5 -61.5s-36.833 -25.5 -61.5 -25.5s-45 8.5 -61 25.5s-24 37.5 -24 61.5s8 44.667 24 62s36.333 26 61 26s45.167 -8.66699 61.5 -26s24.5 -38 24.5 -62zM77 -190l25 460h96l25 -460h-146z" />
    <glyph glyph-name="cent" unicode="&#xa2;" horiz-adv-x="365" 
d="M345 12c-6.66699 -2.66699 -13.9951 -5.33789 -21.9951 -8.00488c-7.33301 -2 -15.833 -4.16699 -25.5 -6.5s-20.5 -4.16602 -32.5 -5.49902v-102h-80v105c-16.667 3.33301 -33.834 9.83301 -51.501 19.5s-33.834 24.667 -48.501 45s-26.667 46.833 -36 79.5
s-14 73.667 -14 123c0 48.667 4.66699 89.334 14 122.001s21.166 59.334 35.499 80.001s30.333 36.334 48 47.001s35.167 18 52.5 22v107h80v-101c12 -1.33301 22.833 -3.16602 32.5 -5.49902s18.167 -4.83301 25.5 -7.5c8 -2.66699 15.333 -5.66699 22 -9v-103
c-10.667 4 -21.334 7.66699 -32.001 11c-9.33301 3.33301 -19.5 6.16602 -30.5 8.49902s-21.5 3.5 -31.5 3.5s-20.167 -2.16699 -30.5 -6.5s-19.666 -12.666 -27.999 -24.999s-15 -30 -20 -53s-7.5 -53.167 -7.5 -90.5c0 -33.333 2.33301 -60.833 7 -82.5
s10.667 -38.667 18 -51s15.666 -20.833 24.999 -25.5s18.666 -7 27.999 -7c12 0 24 1 36 3s23 4.66699 33 8c11.333 3.33301 22.333 7.33301 33 12v-107v0z" />
    <glyph glyph-name="sterling" unicode="&#xa3;" horiz-adv-x="469" 
d="M20 0l-0.000976562 106h90v199h-80v101h80v74c0 62.667 16.167 110 48.5 142s79.833 48 142.5 48c20.667 0 38.834 -1.66699 54.501 -5s29.167 -6.66602 40.5 -9.99902c12.667 -4 23.667 -8.66699 33 -14v-99c-12 4.66699 -24.667 8.66699 -38 12
c-11.333 3.33301 -24.333 6.16602 -39 8.49902s-29.667 3.5 -45 3.5c-14.667 0 -26.5 -2.16699 -35.5 -6.5s-16 -10.333 -21 -18s-8.33301 -16.667 -10 -27s-2.5 -21.833 -2.5 -34.5v-74h146l-15 -101h-131v-199h191v-106h-409z" />
    <glyph glyph-name="currency" unicode="&#xa4;" horiz-adv-x="495" 
d="M475 17c-11.333 -5.33301 -23.9951 -9.99707 -37.9951 -13.9971c-12 -3.33301 -26.833 -6.33301 -44.5 -9s-37.5 -4 -59.5 -4c-24 0 -48.333 2.33301 -73 7s-47.834 14.334 -69.501 29.001s-40.5 35.667 -56.5 63s-27.333 63.666 -34 108.999h-80l12 98h55
c0 5.33301 -0.166992 10.833 -0.5 16.5s-0.5 11.5 -0.5 17.5v20.5c0 6.33301 0.333008 12.5 1 18.5h-67l12 98h73c7.33301 44 20.166 79.333 38.499 106s39 47.167 62 61.5s46.833 23.833 71.5 28.5s46.667 7 66 7s36.833 -1.33301 52.5 -4s29.5 -5.66699 41.5 -9
c13.333 -4 26 -8.33301 38 -13v-102c-12.667 4.66699 -26.334 8.66699 -41.001 12c-12.667 3.33301 -26.834 6.16602 -42.501 8.49902s-31.834 3.5 -48.501 3.5c-28 0 -52.833 -8 -74.5 -24s-35.167 -41 -40.5 -75h172l-9 -98h-175c-0.666992 -6 -1 -12.167 -1 -18.5v-20.5
v-17.5c0 -5.66699 0.333008 -11.167 1 -16.5h184l-9 -98h-165c5.33301 -34.667 18.166 -60.5 38.499 -77.5s46.5 -25.5 78.5 -25.5c16 0 31.833 1.16699 47.5 3.5s29.834 5.16602 42.501 8.49902c14.667 3.33301 28.667 7.66602 42 12.999v-103v0z" />
    <glyph glyph-name="yen" unicode="&#xa5;" horiz-adv-x="450" 
d="M333 393h77v-114h-120v-67h120v-114h-120v-98h-130v98h-120v114h120v67h-120v114h77l-116 267h150l74 -260l74 260h150z" />
    <glyph glyph-name="brokenbar" unicode="&#xa6;" 
d="M65 420v390h130v-390h-130zM65 -110v390h130v-390h-130z" />
    <glyph glyph-name="section" unicode="&#xa7;" horiz-adv-x="440" 
d="M410 290c0 -22 -4.3291 -40.6641 -12.9961 -55.9971s-18.334 -27.666 -29.001 -36.999c-12 -11.333 -26 -20.333 -42 -27c12 -6 23 -14.667 33 -26c8 -9.33301 15.5 -21.666 22.5 -36.999s10.5 -34 10.5 -56c0 -30 -5.5 -54.833 -16.5 -74.5
s-25.833 -35.334 -44.5 -47.001s-39.834 -19.834 -63.501 -24.501s-48.5 -7 -74.5 -7c-17.333 0 -34.5 1 -51.5 3s-32.5 4.66699 -46.5 8c-16.667 3.33301 -32.334 7.33301 -47.001 12v104c16.667 -5.33301 33.334 -10 50.001 -14c14 -3.33301 29.167 -6.5 45.5 -9.5
s31.833 -4.5 46.5 -4.5c22 0 39.833 3.83301 53.5 11.5s20.5 20.5 20.5 38.5c0 9.33301 -1.66699 17.333 -5 24s-8 12.5 -14 17.5s-13 9.5 -21 13.5l-25 13l-37 20l-47.5 26.5c-15.667 9 -29.667 19.167 -42 30.5s-22.5 24.5 -30.5 39.5s-12 32.833 -12 53.5
c0 20 4.33301 36.833 13 50.5s18.334 25.167 29.001 34.5c12 10 26.333 18.333 43 25c-12.667 6.66699 -24 16 -34 28c-8.66699 10 -16.334 22.667 -23.001 38s-10 34 -10 56c0 28 5.16699 51.667 15.5 71s24.5 35.166 42.5 47.499s39 21.166 63 26.499s50 8 78 8
c20 0 38.667 -1.83301 56 -5.5s32.666 -7.83398 45.999 -12.501c15.333 -5.33301 29.666 -11 42.999 -17v-100c-15.333 6 -31.333 11.667 -48 17c-14 4.66699 -29.333 8.83398 -46 12.501s-32.667 5.5 -48 5.5c-49.333 0 -74 -17 -74 -51c0 -17.333 7 -31 21 -41
s30.667 -20 50 -30l39 -21l44 -24.5c14.667 -8.33301 28 -17.833 40 -28.5s21.667 -22.834 29 -36.501s11 -29.5 11 -47.5zM291.004 265.003c0 8.66699 -2.00098 16.167 -6.00098 22.5s-9 12 -15 17s-12.333 9.16699 -19 12.5s-12.667 6.66602 -18 9.99902l-48 25
c-7.33301 -5.33301 -15 -11.666 -23 -18.999s-12 -17.333 -12 -30c0 -8 2.16699 -15 6.5 -21s9.83301 -11.5 16.5 -16.5s13.834 -9.66699 21.501 -14l20.5 -11.5l51 -29c5.33301 5.33301 10.833 12.333 16.5 21s8.5 19.667 8.5 33z" />
    <glyph glyph-name="dieresis" unicode="&#xa8;" horiz-adv-x="367" 
d="M347 690c0 -19.333 -6.66699 -35.833 -20 -49.5s-29.666 -20.5 -48.999 -20.5s-35.666 6.83301 -48.999 20.5s-20 30.167 -20 49.5s6.66699 35.833 20 49.5s29.666 20.5 48.999 20.5s35.666 -6.83301 48.999 -20.5s20 -30.167 20 -49.5zM158 690
c0 -19.333 -6.66699 -35.833 -20 -49.5s-29.666 -20.5 -48.999 -20.5s-35.666 6.83301 -48.999 20.5s-20 30.167 -20 49.5s6.66699 35.833 20 49.5s29.666 20.5 48.999 20.5s35.666 -6.83301 48.999 -20.5s20 -30.167 20 -49.5z" />
    <glyph glyph-name="copyright" unicode="&#xa9;" horiz-adv-x="720" 
d="M685 345c0 -58 -8.00098 -109.668 -24.001 -155.001s-38.333 -83.5 -67 -114.5s-62.834 -54.667 -102.501 -71s-83.5 -24.5 -131.5 -24.5s-92 7.83301 -132 23.5s-74.167 38.834 -102.5 69.501s-50.5 68.834 -66.5 114.501s-24 98.167 -24 157.5
c0 58 8.16699 109.5 24.5 154.5s39 83.167 68 114.5s63.333 55.166 103 71.499s82.834 24.5 129.501 24.5c48 0 91.833 -8.33301 131.5 -25s73.834 -40.667 102.501 -72s51 -69.5 67 -114.5s24 -96.167 24 -153.5zM581.999 344.999c0 90 -19.333 158.333 -58 205
s-93.334 70 -164.001 70s-125.334 -23 -164.001 -69s-58 -114.667 -58 -206c0 -92 19.333 -160.833 58 -206.5s93.334 -68.5 164.001 -68.5s125.334 22.667 164.001 68s58 114.333 58 207zM475.999 168.999c-8.66699 -4.66699 -17.9961 -8.33301 -27.9961 -11
c-8.66699 -2.66699 -18.834 -5 -30.501 -7s-23.834 -3 -36.501 -3c-16.667 0 -34.834 2.16699 -54.501 6.5s-37.834 13.5 -54.501 27.5s-30.5 34 -41.5 60s-16.5 61 -16.5 105c0 42.667 6.5 77 19.5 103s28.5 46 46.5 60s37 23.167 57 27.5s37 6.5 51 6.5
c12.667 0 24.334 -1.16699 35.001 -3.5s20 -4.83301 28 -7.5c9.33301 -3.33301 17.666 -7 24.999 -11v-76c-10 4 -20 7.33301 -30 10c-8.66699 2.66699 -18.167 5 -28.5 7s-20.166 3 -29.499 3c-20.667 0 -37.167 -8.83301 -49.5 -26.5s-18.5 -48.5 -18.5 -92.5
c0 -78.667 20.333 -118 61 -118c9.33301 0 19.5 1 30.5 3s21.167 4.33301 30.5 7c11.333 2.66699 22.666 6 33.999 10v-80v0z" />
    <glyph glyph-name="ordfeminine" unicode="&#xaa;" horiz-adv-x="368" 
d="M229 260l-16.999 29.998c-6.66699 -7.33301 -13.667 -14 -21 -20c-6.66699 -5.33301 -14.334 -9.83301 -23.001 -13.5s-18.334 -5.5 -29.001 -5.5c-12.667 0 -26 1.33301 -40 4s-26.833 8.83398 -38.5 18.501s-21.334 23.834 -29.001 42.501s-11.5 44.334 -11.5 77.001
c0 31.333 5.16699 56.5 15.5 75.5s23 33.833 38 44.5s30.833 17.667 47.5 21s31.334 5 44.001 5h45v36c0 14 -2 24.833 -6 32.5s-16.667 11.5 -38 11.5c-10.667 0 -22.5 -1.33301 -35.5 -4s-25.167 -5.66699 -36.5 -9c-13.333 -3.33301 -27 -7.33301 -41 -12v91
c12.667 4.66699 26.667 8.66699 42 12c12.667 3.33301 27.334 6.33301 44.001 9s34 4 52 4s35.333 -2 52 -6s31.167 -10.833 43.5 -20.5s22.333 -22.834 30 -39.501s11.5 -37.667 11.5 -63v-321h-99zM20.001 -0.00195312v115h308v-115h-308zM210.001 467.998l-29 -1.00098
c-6.66699 0 -12.667 -1 -18 -3s-9.83301 -5.5 -13.5 -10.5s-6.5 -12.167 -8.5 -21.5s-3 -21.333 -3 -36c0 -22.667 2.5 -38.5 7.5 -47.5s12.833 -13.5 23.5 -13.5c6.66699 0 12.5 1 17.5 3s9.16699 4.66699 12.5 8c4 2.66699 7.66699 6.33398 11 11.001v111z" />
    <glyph glyph-name="guillemotleft" unicode="&#xab;" horiz-adv-x="470" 
d="M240 297v76l190 227v-186l-81 -77l81 -81v-186zM30 297v76l190 227v-186l-81 -77l81 -81v-186z" />
    <glyph glyph-name="logicalnot" unicode="&#xac;" horiz-adv-x="610" 
d="M435 99v181h-380v120h500v-301h-120z" />
    <glyph glyph-name="minus" unicode="&#xad;" horiz-adv-x="510" 
d="M55 270v115h400v-115h-400z" />
    <glyph glyph-name="registered" unicode="&#xae;" horiz-adv-x="720" 
d="M685 345c0 -58 -8.00098 -109.668 -24.001 -155.001s-38.333 -83.5 -67 -114.5s-62.834 -54.667 -102.501 -71s-83.5 -24.5 -131.5 -24.5s-92 7.83301 -132 23.5s-74.167 38.834 -102.5 69.501s-50.5 68.834 -66.5 114.501s-24 98.167 -24 157.5
c0 58 8.16699 109.5 24.5 154.5s39 83.167 68 114.5s63.333 55.166 103 71.499s82.834 24.5 129.501 24.5c48 0 91.833 -8.33301 131.5 -25s73.834 -40.667 102.501 -72s51 -69.5 67 -114.5s24 -96.167 24 -153.5zM581.999 344.999c0 90 -19.333 158.333 -58 205
s-93.334 70 -164.001 70s-125.334 -23 -164.001 -69s-58 -114.667 -58 -206c0 -92 19.333 -160.833 58 -206.5s93.334 -68.5 164.001 -68.5s125.334 22.667 164.001 68s58 114.333 58 207zM405.999 166.999l-13 59.999c-4 17.333 -8.83301 33.333 -14.5 48
s-13.5 26.667 -23.5 36l-27 -3v-141h-90v370h111c19.333 0 38 -1 56 -3s34 -6.66699 48 -14s25.167 -18.333 33.5 -33s12.5 -34.334 12.5 -59.001c0 -26 -6.5 -46.167 -19.5 -60.5s-30.833 -26.5 -53.5 -36.5c16 -11.333 28 -24.166 36 -38.499s15 -30.166 21 -47.499
l26 -78h-103zM406.999 427.998c0 21.333 -5.33301 34.5 -16 39.5s-27.667 7.5 -51 7.5h-12v-110c17.333 0.666992 31.166 2.16699 41.499 4.5s18.333 6 24 11s9.33398 11.333 11.001 19s2.5 17.167 2.5 28.5z" />
    <glyph glyph-name="macron" unicode="&#xaf;" horiz-adv-x="335" 
d="M20 650v120h295v-120h-295z" />
    <glyph glyph-name="degree" unicode="&#xb0;" horiz-adv-x="394" 
d="M364 535c0 -33.333 -4.16602 -61.666 -12.499 -84.999s-19.833 -42.333 -34.5 -57s-32.334 -25.5 -53.001 -32.5s-43 -10.5 -67 -10.5c-23.333 0 -45 3 -65 9s-37.667 16.167 -53 30.5s-27.333 33.333 -36 57s-13 53.167 -13 88.5c0 34 4.5 62.833 13.5 86.5
s21.167 42.667 36.5 57s33 24.833 53 31.5s41.333 10 64 10c24 0 46.167 -3.16699 66.5 -9.5s38 -16.833 53 -31.5s26.667 -33.834 35 -57.501s12.5 -52.5 12.5 -86.5zM244.001 535c0 37.333 -2.5 64.668 -7.5 82.001s-18.167 26 -39.5 26
c-18.667 0 -31.167 -8.83301 -37.5 -26.5s-9.5 -44.834 -9.5 -81.501c0 -36 3 -62.667 9 -80s18.667 -26 38 -26s32 8.66699 38 26s9 44 9 80z" />
    <glyph glyph-name="plusminus" unicode="&#xb1;" horiz-adv-x="570" 
d="M355 280v-135h-130v135h-170v120h170v165h130v-165h160v-120h-160zM55 -15v115h460v-115h-460z" />
    <glyph glyph-name="twosuperior" unicode="&#xb2;" horiz-adv-x="294" 
d="M259 278l-226.002 -0.000976562v72l81 99c14.667 17.333 26.834 36.333 36.501 57s14.5 44.334 14.5 71.001c0 21.333 -3.5 36.166 -10.5 44.499s-17.833 12.5 -32.5 12.5c-9.33301 0 -19 -1 -29 -3s-19.333 -4 -28 -6c-10 -2.66699 -19.667 -5.66699 -29 -9v74
c7.33301 4 16 7.33301 26 10c8.66699 2.66699 18.667 5 30 7s24.333 3 39 3c18 0 35 -2.16699 51 -6.5s29.833 -11.666 41.5 -21.999s21 -23.833 28 -40.5s10.5 -37 10.5 -61c0 -38.667 -8.16699 -72.5 -24.5 -101.5s-36.166 -56.5 -59.499 -82.5l-35 -39h124z" />
    <glyph glyph-name="threesuperior" unicode="&#xb3;" horiz-adv-x="294" 
d="M268 405c0 -27.333 -4.33398 -49.834 -13.001 -67.501s-19.667 -31.667 -33 -42s-28.666 -17.5 -45.999 -21.5s-34.333 -6 -51 -6c-11.333 0 -22.666 0.666992 -33.999 2s-21.333 2.66602 -30 3.99902c-10.667 2 -20.334 4.33301 -29.001 7v74
c10 -2.66699 20.667 -5 32 -7c9.33301 -1.33301 19.5 -2.66602 30.5 -3.99902s21.167 -2 30.5 -2c13.333 0 24.166 4.16699 32.499 12.5s12.5 25.833 12.5 52.5c0 25.333 -5 41.833 -15 49.5s-26.333 11.5 -49 11.5h-43v70h43c18.667 0 32.334 3.5 41.001 10.5
s13 22.167 13 45.5c0 16 -3 27 -9 33s-14.667 9 -26 9c-9.33301 0 -19.5 -0.833008 -30.5 -2.5s-21.167 -3.5 -30.5 -5.5c-11.333 -2.66699 -22 -5.33398 -32 -8.00098v72c8.66699 3.33301 18.334 6.33301 29.001 9c9.33301 2 19.666 4 30.999 6s23.333 3 36 3
c17.333 0 33.833 -1.66699 49.5 -5s29.5 -9 41.5 -17s21.5 -18.833 28.5 -32.5s10.5 -31.167 10.5 -52.5c0 -27.333 -5.83301 -48.666 -17.5 -63.999s-27.167 -26 -46.5 -32c23.333 -6 41.5 -16.667 54.5 -32s19.5 -38.666 19.5 -69.999z" />
    <glyph glyph-name="acute" unicode="&#xb4;" horiz-adv-x="316" 
d="M142 620h-122l118 160h158z" />
    <glyph glyph-name="mu" unicode="&#xb5;" horiz-adv-x="520" 
d="M347 0l-16 40.999c-11.333 -10 -23.333 -18.667 -36 -26c-11.333 -6.66699 -23.833 -12.5 -37.5 -17.5s-27.834 -7.5 -42.501 -7.5h-13c-2.66699 0 -5 0.333008 -7 1v-181h-130v720h130v-375c0 -22.667 3.83301 -37.5 11.5 -44.5s17.834 -10.5 30.501 -10.5
c10.667 0 21.167 1.66699 31.5 5s19.833 7 28.5 11c10 4.66699 19.333 10.334 28 17.001v397h130v-530h-108z" />
    <glyph glyph-name="paragraph" unicode="&#xb6;" horiz-adv-x="595" 
d="M410 0v700h120v-700h-120zM225 0l-0.000976562 219c-31.333 0 -59.333 3.66699 -84 11s-45.5 20.166 -62.5 38.499s-30.167 43 -39.5 74s-14 70.167 -14 117.5c0 49.333 5.5 89.5 16.5 120.5s26.333 55.333 46 73s43.334 29.834 71.001 36.501s58.167 10 91.5 10h95v-700
h-120zM224.999 587c-14.667 0 -26.667 -1.83301 -36 -5.5s-16.5 -10.334 -21.5 -20.001s-8.33301 -22.667 -10 -39s-2.5 -37.166 -2.5 -62.499c0 -23.333 0.666992 -43.5 2 -60.5s4.33301 -31 9 -42s11.667 -19.333 21 -25s22 -8.5 38 -8.5v263z" />
    <glyph glyph-name="periodcentered" unicode="&#xb7;" horiz-adv-x="301" 
d="M236 379c0 -24 -8 -44.667 -24 -62s-36.333 -26 -61 -26s-45.167 8.66699 -61.5 26s-24.5 38 -24.5 62s8.16699 44.5 24.5 61.5s36.833 25.5 61.5 25.5s45 -8.5 61 -25.5s24 -37.5 24 -61.5z" />
    <glyph glyph-name="periodcentered" unicode="&#x2219;" horiz-adv-x="301" 
d="M236 379c0 -24 -8 -44.667 -24 -62s-36.333 -26 -61 -26s-45.167 8.66699 -61.5 26s-24.5 38 -24.5 62s8.16699 44.5 24.5 61.5s36.833 25.5 61.5 25.5s45 -8.5 61 -25.5s24 -37.5 24 -61.5z" />
    <glyph glyph-name="cedilla" unicode="&#xb8;" horiz-adv-x="264" 
d="M244 -90c0 -22 -3.33496 -40.002 -10.002 -54.002s-15.667 -25.167 -27 -33.5s-24.666 -14.166 -39.999 -17.499s-31.666 -5 -48.999 -5c-10.667 0 -21.834 0.833008 -33.501 2.5s-22.167 3.83398 -31.5 6.50098c-11.333 2.66699 -22.333 6 -33 10v92
c10.667 -3.33301 21 -6.33301 31 -9c8.66699 -2.66699 17.334 -4.83398 26.001 -6.50098s16 -2.5 22 -2.5c22 0 33 11.667 33 35c0 9.33301 -1.83301 18.833 -5.5 28.5s-7.5 18.5 -11.5 26.5c-5.33301 9.33301 -11 18.333 -17 27h78c12.667 -7.33301 24 -15.666 34 -24.999
c8.66699 -8.66699 16.5 -19 23.5 -31s10.5 -26.667 10.5 -44z" />
    <glyph glyph-name="onesuperior" unicode="&#xb9;" horiz-adv-x="294" 
d="M122 278v321l-81 -37v81l106 57h73v-422h-98z" />
    <glyph glyph-name="ordmasculine" unicode="&#xba;" horiz-adv-x="405" 
d="M380 479c0 -48 -5 -86.834 -15 -116.501s-23.333 -53 -40 -70s-35.5 -28.5 -56.5 -34.5s-42.833 -9 -65.5 -9s-44.667 3.16699 -66 9.5s-40.333 18 -57 35s-30 40.333 -40 70s-15 68.167 -15 115.5c0 45.333 5 82.833 15 112.5s23.333 53.334 40 71.001s35.667 30 57 37
s43.333 10.5 66 10.5c22 0 43.667 -3.16699 65 -9.5s40.333 -18 57 -35s30 -40.5 40 -70.5s15 -68.667 15 -116zM25 -0.000976562v115h355v-115h-355zM261 478.999c0 32 -1.16504 57.501 -3.49805 76.501s-5.83301 33.5 -10.5 43.5s-10.667 16.667 -18 20s-16 5 -26 5
s-18.833 -2.16699 -26.5 -6.5s-13.834 -12 -18.501 -23s-8.16699 -25.833 -10.5 -44.5s-3.5 -42.334 -3.5 -71.001s1.33301 -52.167 4 -70.5s6.5 -32.833 11.5 -43.5s11.167 -18.167 18.5 -22.5s15.666 -6.5 24.999 -6.5c8.66699 0 16.667 1.66699 24 5
s13.5 10.166 18.5 20.499s8.83301 24.833 11.5 43.5s4 43.334 4 74.001z" />
    <glyph glyph-name="guillemotright" unicode="&#xbb;" horiz-adv-x="470" 
d="M250 70v186l81 81l-81 77v186l190 -227v-76zM40 70v186l81 81l-81 77v186l190 -227v-76z" />
    <glyph glyph-name="onequarter" unicode="&#xbc;" horiz-adv-x="797" 
d="M786 82h-35v-82h-98v82h-149v67l46 273h109l-56 -260h51l15 140h82v-140h43zM258 -110h-84l365 920h84zM122 278v321l-81 -37v81l106 57h73v-422h-98z" />
    <glyph glyph-name="onehalf" unicode="&#xbd;" horiz-adv-x="797" 
d="M762 0l-226.002 -0.000976562v72l81 99c14.667 17.333 26.834 36.333 36.501 57s14.5 44.334 14.5 71.001c0 21.333 -3.5 36.166 -10.5 44.499s-17.833 12.5 -32.5 12.5c-9.33301 0 -19 -1 -29 -3s-19.333 -4 -28 -6c-10 -2.66699 -19.667 -5.66699 -29 -9v74
c7.33301 4 16 7.33301 26 10c8.66699 2.66699 18.667 5 30 7s24.333 3 39 3c18 0 35 -2.16699 51 -6.5s29.833 -11.666 41.5 -21.999s21 -23.833 28 -40.5s10.5 -37 10.5 -61c0 -38.667 -8.16699 -72.5 -24.5 -101.5s-36.166 -56.5 -59.499 -82.5l-35 -39h124z
M257.998 -110.001h-84l365 920h84zM121.998 277.999v321l-81 -37v81l106 57h73v-422h-98z" />
    <glyph glyph-name="threequarters" unicode="&#xbe;" horiz-adv-x="797" 
d="M786 82h-35v-82h-98v82h-149v67l46 273h109l-56 -260h51l15 140h82v-140h43zM258 -110h-84l365 920h84zM268 405c0 -27.333 -4.33398 -49.834 -13.001 -67.501s-19.667 -31.667 -33 -42s-28.666 -17.5 -45.999 -21.5s-34.333 -6 -51 -6
c-11.333 0 -22.666 0.666992 -33.999 2s-21.333 2.66602 -30 3.99902c-10.667 2 -20.334 4.33301 -29.001 7v74c10 -2.66699 20.667 -5 32 -7c9.33301 -1.33301 19.5 -2.66602 30.5 -3.99902s21.167 -2 30.5 -2c13.333 0 24.166 4.16699 32.499 12.5s12.5 25.833 12.5 52.5
c0 25.333 -5 41.833 -15 49.5s-26.333 11.5 -49 11.5h-43v70h43c18.667 0 32.334 3.5 41.001 10.5s13 22.167 13 45.5c0 16 -3 27 -9 33s-14.667 9 -26 9c-9.33301 0 -19.5 -0.833008 -30.5 -2.5s-21.167 -3.5 -30.5 -5.5c-11.333 -2.66699 -22 -5.33398 -32 -8.00098v72
c8.66699 3.33301 18.334 6.33301 29.001 9c9.33301 2 19.666 4 30.999 6s23.333 3 36 3c17.333 0 33.833 -1.66699 49.5 -5s29.5 -9 41.5 -17s21.5 -18.833 28.5 -32.5s10.5 -31.167 10.5 -52.5c0 -27.333 -5.83301 -48.666 -17.5 -63.999s-27.167 -26 -46.5 -32
c23.333 -6 41.5 -16.667 54.5 -32s19.5 -38.666 19.5 -69.999z" />
    <glyph glyph-name="questiondown" unicode="&#xbf;" horiz-adv-x="338" 
d="M269 452c0 -24 -8.16699 -44.5 -24.5 -61.5s-36.833 -25.5 -61.5 -25.5s-45 8.5 -61 25.5s-24 37.5 -24 61.5s8 44.667 24 62s36.333 26 61 26s45.167 -8.66699 61.5 -26s24.5 -38 24.5 -62zM303 -176c-14.667 -4.66699 -29.6699 -8.66992 -45.0029 -12.0029
c-13.333 -3.33301 -28.166 -6.16602 -44.499 -8.49902s-32.166 -3.5 -47.499 -3.5c-46 0 -81.833 11.5 -107.5 34.5s-38.5 60.833 -38.5 113.5c0 18.667 2.33301 35.167 7 49.5s10.834 27.333 18.501 39s16 22.167 25 31.5l26.5 28l15.5 18c5 6 9.33301 13 13 21
s6.5 17.5 8.5 28.5s3 24.167 3 39.5c0 21.333 -2.33301 43.666 -7 66.999h114c1.33301 -11.333 2.5 -22.166 3.5 -32.499s1.5 -20.166 1.5 -29.499c0 -25.333 -1.83301 -46.666 -5.5 -63.999s-8.16699 -32.333 -13.5 -45s-11.5 -23.5 -18.5 -32.5l-20.5 -25.5
c-11.333 -13.333 -21.333 -26.833 -30 -40.5s-13 -30.5 -13 -50.5c0 -18 4.5 -30 13.5 -36s21.167 -9 36.5 -9c10 0 21.167 1 33.5 3s23.833 4.33301 34.5 7c12 2.66699 24.333 6 37 10v-101v0z" />
    <glyph glyph-name="Agrave" unicode="&#xc0;" horiz-adv-x="480" 
d="M176 750l-154 130h163l113 -130h-122zM347 0l-27 146h-160l-27 -146h-138l172 700h146l172 -700h-138zM271 438c-3.33301 17.333 -6.66699 37 -10 59l-10 63c-3.33301 23.333 -7 47 -11 71c-4 -24 -7.66699 -47.667 -11 -71c-3.33301 -20 -6.5 -41 -9.5 -63
s-6.16699 -41.667 -9.5 -59l-34 -194h128z" />
    <glyph glyph-name="Aacute" unicode="&#xc1;" horiz-adv-x="480" 
d="M299 750h-122l113 130h163zM347 0l-27 146h-160l-27 -146h-138l172 700h146l172 -700h-138zM271 438c-3.33301 17.333 -6.66699 37 -10 59l-10 63c-3.33301 23.333 -7 47 -11 71c-4 -24 -7.66699 -47.667 -11 -71c-3.33301 -20 -6.5 -41 -9.5 -63
s-6.16699 -41.667 -9.5 -59l-34 -194h128z" />
    <glyph glyph-name="Acircumflex" unicode="&#xc2;" horiz-adv-x="480" 
d="M291 750l-51 58l-51 -58h-142l138 130h110l138 -130h-142zM347 0l-27 146h-160l-27 -146h-138l172 700h146l172 -700h-138zM271 438c-3.33301 17.333 -6.66699 37 -10 59l-10 63c-3.33301 23.333 -7 47 -11 71c-4 -24 -7.66699 -47.667 -11 -71
c-3.33301 -20 -6.5 -41 -9.5 -63s-6.16699 -41.667 -9.5 -59l-34 -194h128z" />
    <glyph glyph-name="Atilde" unicode="&#xc3;" horiz-adv-x="480" 
d="M400 780c-27.333 -17.333 -51.667 -26.002 -73 -26.002c-16 0 -31.167 1.83301 -45.5 5.5s-28 7.83398 -41 12.501s-25.833 8.83398 -38.5 12.501s-25.667 5.5 -39 5.5c-15.333 0 -29.166 -2.5 -41.499 -7.5s-26.166 -12.5 -41.499 -22.5v110
c15.333 9.33301 30.166 16.333 44.499 21s28.5 7 42.5 7c18.667 0 35.834 -1.83301 51.501 -5.5s30 -7.5 43 -11.5l36 -11.5c11 -3.66699 21.5 -5.5 31.5 -5.5c11.333 0 22.666 2.16699 33.999 6.5s23.666 10.5 36.999 18.5v-109v0zM346.999 -0.00195312l-27 146h-160
l-27 -146h-138l172 700h146l172 -700h-138zM270.999 437.998c-3.33301 17.333 -6.66699 37 -10 59l-10 63c-3.33301 23.333 -7 47 -11 71c-4 -24 -7.66699 -47.667 -11 -71c-3.33301 -20 -6.5 -41 -9.5 -63s-6.16699 -41.667 -9.5 -59l-34 -194h128z" />
    <glyph glyph-name="Adieresis" unicode="&#xc4;" horiz-adv-x="480" 
d="M414 820c0 -19.333 -6.66699 -35.833 -20 -49.5s-29.666 -20.5 -48.999 -20.5s-35.666 6.83301 -48.999 20.5s-20 30.167 -20 49.5s6.66699 35.833 20 49.5s29.666 20.5 48.999 20.5s35.666 -6.83301 48.999 -20.5s20 -30.167 20 -49.5zM205 820
c0 -19.333 -6.66699 -35.833 -20 -49.5s-29.666 -20.5 -48.999 -20.5s-35.666 6.83301 -48.999 20.5s-20 30.167 -20 49.5s6.66699 35.833 20 49.5s29.666 20.5 48.999 20.5s35.666 -6.83301 48.999 -20.5s20 -30.167 20 -49.5zM347 0l-27 146h-160l-27 -146h-138l172 700
h146l172 -700h-138zM271 438c-3.33301 17.333 -6.66699 37 -10 59l-10 63c-3.33301 23.333 -7 47 -11 71c-4 -24 -7.66699 -47.667 -11 -71c-3.33301 -20 -6.5 -41 -9.5 -63s-6.16699 -41.667 -9.5 -59l-34 -194h128z" />
    <glyph glyph-name="Aring" unicode="&#xc5;" horiz-adv-x="480" 
d="M378 818c0 -37.333 -12.166 -66.168 -36.499 -86.501s-58.166 -30.5 -101.499 -30.5c-42.667 0 -76.334 10 -101.001 30s-37 49 -37 87s11.667 67 35 87s57.666 30 102.999 30c42 0 75.5 -10.167 100.5 -30.5s37.5 -49.166 37.5 -86.499zM347.001 -0.00195312l-27 146
h-160l-27 -146h-138l172 700h146l172 -700h-138zM286.001 817.998c0 18 -4.16699 30.501 -12.5 37.501s-19.5 10.5 -33.5 10.5c-30.667 0 -46 -16 -46 -48s15.333 -48 46 -48c13.333 0 24.333 3.66699 33 11s13 19.666 13 36.999zM271.001 437.999
c-3.33301 17.333 -6.66699 37 -10 59l-10 63c-3.33301 23.333 -7 47 -11 71c-4 -24 -7.66699 -47.667 -11 -71c-3.33301 -20 -6.5 -41 -9.5 -63s-6.16699 -41.667 -9.5 -59l-34 -194h128z" />
    <glyph glyph-name="AE" unicode="&#xc6;" horiz-adv-x="595" 
d="M565 591h-165v-171h155v-98h-155v-213h170v-109h-300v146h-104l-34 -146h-142l208 700h377zM270 605l-14 -66l-12.5 -55l-10.5 -46l-46 -194h83v361z" />
    <glyph glyph-name="Ccedilla" unicode="&#xc7;" horiz-adv-x="385" 
d="M375 14c-8 -3.33301 -17.0039 -6.33105 -27.0039 -8.99805c-8.66699 -2.66699 -18.834 -5.16699 -30.501 -7.5s-24.167 -4.16602 -37.5 -5.49902c9.33301 -8 18.5 -18.833 27.5 -32.5s13.5 -30.167 13.5 -49.5c0 -22 -3.33301 -40 -10 -54s-15.667 -25.167 -27 -33.5
s-24.666 -14.166 -39.999 -17.499s-31.666 -5 -48.999 -5c-10.667 0 -21.834 0.833008 -33.501 2.5s-22.167 3.83398 -31.5 6.50098c-11.333 2.66699 -22.333 6 -33 10v92c10.667 -3.33301 21 -6.33301 31 -9c8.66699 -2.66699 17.334 -4.83398 26.001 -6.50098
s16 -2.5 22 -2.5c22 0 33 11.667 33 35c0 12.667 -3 25.5 -9 38.5s-11.667 23.5 -17 31.5c-19.333 5.33301 -37.833 14.666 -55.5 27.999s-33.334 33 -47.001 59s-24.667 59.667 -33 101s-12.5 92.666 -12.5 153.999c0 80.667 7.83301 145.334 23.5 194.001
s35.167 86 58.5 112s48.833 43.167 76.5 51.5s53.167 12.5 76.5 12.5c15.333 0 29.5 -1.16699 42.5 -3.5s24.167 -4.83301 33.5 -7.5c10.667 -3.33301 20.334 -7 29.001 -11v-104c-10.667 4 -22 7.66699 -34 11c-10 2.66699 -21.333 5.16699 -34 7.5s-25.667 3.5 -39 3.5
c-14.667 0 -28.167 -4.33301 -40.5 -13s-23.166 -23.334 -32.499 -44.001s-16.666 -48 -21.999 -82s-8 -76.333 -8 -127c0 -46 2 -84.667 6 -116s10 -56.5 18 -75.5s17.833 -32.5 29.5 -40.5s24.834 -12 39.501 -12c13.333 0 26.833 1.16699 40.5 3.5
s26.167 5.16602 37.5 8.49902c13.333 3.33301 26.333 7.66602 39 12.999v-107v0z" />
    <glyph glyph-name="Egrave" unicode="&#xc8;" horiz-adv-x="420" 
d="M184 750l-154 130h163l113 -130h-122zM390 592h-195v-172h175v-98h-175v-214h200v-108h-330v700h335z" />
    <glyph glyph-name="Eacute" unicode="&#xc9;" horiz-adv-x="420" 
d="M272 750h-122l113 130h163zM390 592h-195v-172h175v-98h-175v-214h200v-108h-330v700h335z" />
    <glyph glyph-name="Ecircumflex" unicode="&#xca;" horiz-adv-x="420" 
d="M274 750l-51 58l-51 -58h-142l138 130h110l138 -130h-142zM390 592h-195v-172h175v-98h-175v-214h200v-108h-330v700h335z" />
    <glyph glyph-name="Edieresis" unicode="&#xcb;" horiz-adv-x="420" 
d="M407 820c0 -19.333 -6.66699 -35.833 -20 -49.5s-29.666 -20.5 -48.999 -20.5s-35.666 6.83301 -48.999 20.5s-20 30.167 -20 49.5s6.66699 35.833 20 49.5s29.666 20.5 48.999 20.5s35.666 -6.83301 48.999 -20.5s20 -30.167 20 -49.5zM198 820
c0 -19.333 -6.66699 -35.833 -20 -49.5s-29.666 -20.5 -48.999 -20.5s-35.666 6.83301 -48.999 20.5s-20 30.167 -20 49.5s6.66699 35.833 20 49.5s29.666 20.5 48.999 20.5s35.666 -6.83301 48.999 -20.5s20 -30.167 20 -49.5zM390 592h-195v-172h175v-98h-175v-214h200
v-108h-330v700h335z" />
    <glyph glyph-name="Igrave" unicode="&#xcc;" horiz-adv-x="262" 
d="M69 750l-154 130h163l113 -130h-122zM65 0v700h132v-700h-132z" />
    <glyph glyph-name="Iacute" unicode="&#xcd;" horiz-adv-x="262" 
d="M190 750h-122l113 130h163zM65 0v700h132v-700h-132z" />
    <glyph glyph-name="Icircumflex" unicode="&#xce;" horiz-adv-x="262" 
d="M182 750l-51 58l-51 -58h-142l138 130h110l138 -130h-142zM65 0v700h132v-700h-132z" />
    <glyph glyph-name="Idieresis" unicode="&#xcf;" horiz-adv-x="262" 
d="M295 820c0 -19.333 -6.66699 -35.833 -20 -49.5s-29.666 -20.5 -48.999 -20.5s-35.666 6.83301 -48.999 20.5s-20 30.167 -20 49.5s6.66699 35.833 20 49.5s29.666 20.5 48.999 20.5s35.666 -6.83301 48.999 -20.5s20 -30.167 20 -49.5zM106 820
c0 -19.333 -6.66699 -35.833 -20 -49.5s-29.666 -20.5 -48.999 -20.5s-35.666 6.83301 -48.999 20.5s-20 30.167 -20 49.5s6.66699 35.833 20 49.5s29.666 20.5 48.999 20.5s35.666 -6.83301 48.999 -20.5s20 -30.167 20 -49.5zM65 0v700h132v-700h-132z" />
    <glyph glyph-name="Eth" unicode="&#xd0;" horiz-adv-x="515" 
d="M480 360c0 -78 -6.83203 -140.5 -20.499 -187.5s-32.334 -83.333 -56.001 -109s-51.5 -42.667 -83.5 -51s-66.333 -12.5 -103 -12.5h-147v332h-55v88h55v280h147c34.667 0 67.834 -3.33301 99.501 -10s59.667 -21.667 84 -45s43.666 -57.5 57.999 -102.5
s21.5 -105.833 21.5 -182.5zM350.001 360c0 52 -3.16699 93.502 -9.5 124.502s-14.833 54.833 -25.5 71.5s-23.167 27.5 -37.5 32.5s-29.833 7.5 -46.5 7.5h-31v-176h85v-88h-85v-228h23c22 0 41 3 57 9s29.167 18.167 39.5 36.5s18 44.166 23 77.499
s7.5 77.666 7.5 132.999z" />
    <glyph glyph-name="Ntilde" unicode="&#xd1;" horiz-adv-x="540" 
d="M430 780c-27.333 -17.333 -51.667 -26.002 -73 -26.002c-16 0 -31.167 1.83301 -45.5 5.5s-28 7.83398 -41 12.501s-25.833 8.83398 -38.5 12.501s-25.667 5.5 -39 5.5c-15.333 0 -29.166 -2.5 -41.499 -7.5s-26.166 -12.5 -41.499 -22.5v110
c15.333 9.33301 30.166 16.333 44.499 21s28.5 7 42.5 7c18.667 0 35.834 -1.83301 51.501 -5.5s30 -7.5 43 -11.5l36 -11.5c11 -3.66699 21.5 -5.5 31.5 -5.5c11.333 0 22.666 2.16699 33.999 6.5s23.666 10.5 36.999 18.5v-109v0zM357.999 -0.00195312l-97.999 246.001
c-11.333 27.333 -22 55.333 -32 84s-18.667 54.667 -26 78l-25 81c3.33301 -34 6.33301 -67 9 -99l6 -83c2 -28 3 -50.667 3 -68v-239h-130v700h127l97 -247c11.333 -28 21.5 -55.833 30.5 -83.5s16.833 -52.834 23.5 -75.501l21 -76c-4 32 -7.33301 63.667 -10 95
c-2.66699 26.667 -4.83398 54.5 -6.50098 83.5s-2.5 54.167 -2.5 75.5v228h130v-700h-117z" />
    <glyph glyph-name="Ograve" unicode="&#xd2;" horiz-adv-x="500" 
d="M194 750l-154 130h163l113 -130h-122zM470 350c0 -54 -3.1709 -100.329 -9.50391 -138.996s-14.833 -71.334 -25.5 -98.001s-23.167 -48.167 -37.5 -64.5s-29.666 -28.833 -45.999 -37.5s-33.166 -14.334 -50.499 -17.001s-34.333 -4 -51 -4s-33.667 1.33301 -51 4
s-34.166 8.16699 -50.499 16.5s-31.666 20.5 -45.999 36.5s-26.833 37.333 -37.5 64s-19.167 59.5 -25.5 98.5s-9.5 85.833 -9.5 140.5c0 80.667 6.66699 144.667 20 192s30.666 83.5 51.999 108.5s45 41.167 71 48.5s51.667 11 77 11c24 0 49 -3.66699 75 -11
s49.833 -23.333 71.5 -48s39.334 -60.834 53.001 -108.501s20.5 -111.834 20.5 -192.501zM339.996 350.004c0 52 -2.00098 95 -6.00098 129s-9.66699 61.167 -17 81.5s-16.666 34.5 -27.999 42.5s-24.333 12 -39 12c-14 0 -26.667 -3.66699 -38 -11
s-20.833 -20.833 -28.5 -40.5s-13.5 -46.667 -17.5 -81s-6 -78.5 -6 -132.5c0 -56.667 2.33301 -102.334 7 -137.001s11 -61.5 19 -80.5s17.5 -31.667 28.5 -38s22.833 -9.5 35.5 -9.5c12 0 23.5 3.16699 34.5 9.5s20.5 19 28.5 38s14.5 45.833 19.5 80.5
s7.5 80.334 7.5 137.001z" />
    <glyph glyph-name="Oacute" unicode="&#xd3;" horiz-adv-x="500" 
d="M302 750h-122l113 130h163zM470 350c0 -54 -3.1709 -100.329 -9.50391 -138.996s-14.833 -71.334 -25.5 -98.001s-23.167 -48.167 -37.5 -64.5s-29.666 -28.833 -45.999 -37.5s-33.166 -14.334 -50.499 -17.001s-34.333 -4 -51 -4s-33.667 1.33301 -51 4
s-34.166 8.16699 -50.499 16.5s-31.666 20.5 -45.999 36.5s-26.833 37.333 -37.5 64s-19.167 59.5 -25.5 98.5s-9.5 85.833 -9.5 140.5c0 80.667 6.66699 144.667 20 192s30.666 83.5 51.999 108.5s45 41.167 71 48.5s51.667 11 77 11c24 0 49 -3.66699 75 -11
s49.833 -23.333 71.5 -48s39.334 -60.834 53.001 -108.501s20.5 -111.834 20.5 -192.501zM339.996 350.004c0 52 -2.00098 95 -6.00098 129s-9.66699 61.167 -17 81.5s-16.666 34.5 -27.999 42.5s-24.333 12 -39 12c-14 0 -26.667 -3.66699 -38 -11
s-20.833 -20.833 -28.5 -40.5s-13.5 -46.667 -17.5 -81s-6 -78.5 -6 -132.5c0 -56.667 2.33301 -102.334 7 -137.001s11 -61.5 19 -80.5s17.5 -31.667 28.5 -38s22.833 -9.5 35.5 -9.5c12 0 23.5 3.16699 34.5 9.5s20.5 19 28.5 38s14.5 45.833 19.5 80.5
s7.5 80.334 7.5 137.001z" />
    <glyph glyph-name="Ocircumflex" unicode="&#xd4;" horiz-adv-x="500" 
d="M301 750l-51 58l-51 -58h-142l138 130h110l138 -130h-142zM470 350c0 -54 -3.1709 -100.329 -9.50391 -138.996s-14.833 -71.334 -25.5 -98.001s-23.167 -48.167 -37.5 -64.5s-29.666 -28.833 -45.999 -37.5s-33.166 -14.334 -50.499 -17.001s-34.333 -4 -51 -4
s-33.667 1.33301 -51 4s-34.166 8.16699 -50.499 16.5s-31.666 20.5 -45.999 36.5s-26.833 37.333 -37.5 64s-19.167 59.5 -25.5 98.5s-9.5 85.833 -9.5 140.5c0 80.667 6.66699 144.667 20 192s30.666 83.5 51.999 108.5s45 41.167 71 48.5s51.667 11 77 11
c24 0 49 -3.66699 75 -11s49.833 -23.333 71.5 -48s39.334 -60.834 53.001 -108.501s20.5 -111.834 20.5 -192.501zM339.996 350.004c0 52 -2.00098 95 -6.00098 129s-9.66699 61.167 -17 81.5s-16.666 34.5 -27.999 42.5s-24.333 12 -39 12c-14 0 -26.667 -3.66699 -38 -11
s-20.833 -20.833 -28.5 -40.5s-13.5 -46.667 -17.5 -81s-6 -78.5 -6 -132.5c0 -56.667 2.33301 -102.334 7 -137.001s11 -61.5 19 -80.5s17.5 -31.667 28.5 -38s22.833 -9.5 35.5 -9.5c12 0 23.5 3.16699 34.5 9.5s20.5 19 28.5 38s14.5 45.833 19.5 80.5
s7.5 80.334 7.5 137.001z" />
    <glyph glyph-name="Otilde" unicode="&#xd5;" horiz-adv-x="500" 
d="M410 780c-27.333 -17.333 -51.667 -26.002 -73 -26.002c-16 0 -31.167 1.83301 -45.5 5.5s-28 7.83398 -41 12.501s-25.833 8.83398 -38.5 12.501s-25.667 5.5 -39 5.5c-15.333 0 -29.166 -2.5 -41.499 -7.5s-26.166 -12.5 -41.499 -22.5v110
c15.333 9.33301 30.166 16.333 44.499 21s28.5 7 42.5 7c18.667 0 35.834 -1.83301 51.501 -5.5s30 -7.5 43 -11.5l36 -11.5c11 -3.66699 21.5 -5.5 31.5 -5.5c11.333 0 22.666 2.16699 33.999 6.5s23.666 10.5 36.999 18.5v-109v0zM469.999 349.998
c0 -54 -3.1709 -100.329 -9.50391 -138.996s-14.833 -71.334 -25.5 -98.001s-23.167 -48.167 -37.5 -64.5s-29.666 -28.833 -45.999 -37.5s-33.166 -14.334 -50.499 -17.001s-34.333 -4 -51 -4s-33.667 1.33301 -51 4s-34.166 8.16699 -50.499 16.5
s-31.666 20.5 -45.999 36.5s-26.833 37.333 -37.5 64s-19.167 59.5 -25.5 98.5s-9.5 85.833 -9.5 140.5c0 80.667 6.66699 144.667 20 192s30.666 83.5 51.999 108.5s45 41.167 71 48.5s51.667 11 77 11c24 0 49 -3.66699 75 -11s49.833 -23.333 71.5 -48
s39.334 -60.834 53.001 -108.501s20.5 -111.834 20.5 -192.501zM339.995 350.002c0 52 -2.00098 95 -6.00098 129s-9.66699 61.167 -17 81.5s-16.666 34.5 -27.999 42.5s-24.333 12 -39 12c-14 0 -26.667 -3.66699 -38 -11s-20.833 -20.833 -28.5 -40.5
s-13.5 -46.667 -17.5 -81s-6 -78.5 -6 -132.5c0 -56.667 2.33301 -102.334 7 -137.001s11 -61.5 19 -80.5s17.5 -31.667 28.5 -38s22.833 -9.5 35.5 -9.5c12 0 23.5 3.16699 34.5 9.5s20.5 19 28.5 38s14.5 45.833 19.5 80.5s7.5 80.334 7.5 137.001z" />
    <glyph glyph-name="Odieresis" unicode="&#xd6;" horiz-adv-x="500" 
d="M424 820c0 -19.333 -6.66699 -35.833 -20 -49.5s-29.666 -20.5 -48.999 -20.5s-35.666 6.83301 -48.999 20.5s-20 30.167 -20 49.5s6.66699 35.833 20 49.5s29.666 20.5 48.999 20.5s35.666 -6.83301 48.999 -20.5s20 -30.167 20 -49.5zM215 820
c0 -19.333 -6.66699 -35.833 -20 -49.5s-29.666 -20.5 -48.999 -20.5s-35.666 6.83301 -48.999 20.5s-20 30.167 -20 49.5s6.66699 35.833 20 49.5s29.666 20.5 48.999 20.5s35.666 -6.83301 48.999 -20.5s20 -30.167 20 -49.5zM470 350
c0 -54 -3.1709 -100.329 -9.50391 -138.996s-14.833 -71.334 -25.5 -98.001s-23.167 -48.167 -37.5 -64.5s-29.666 -28.833 -45.999 -37.5s-33.166 -14.334 -50.499 -17.001s-34.333 -4 -51 -4s-33.667 1.33301 -51 4s-34.166 8.16699 -50.499 16.5
s-31.666 20.5 -45.999 36.5s-26.833 37.333 -37.5 64s-19.167 59.5 -25.5 98.5s-9.5 85.833 -9.5 140.5c0 80.667 6.66699 144.667 20 192s30.666 83.5 51.999 108.5s45 41.167 71 48.5s51.667 11 77 11c24 0 49 -3.66699 75 -11s49.833 -23.333 71.5 -48
s39.334 -60.834 53.001 -108.501s20.5 -111.834 20.5 -192.501zM339.996 350.004c0 52 -2.00098 95 -6.00098 129s-9.66699 61.167 -17 81.5s-16.666 34.5 -27.999 42.5s-24.333 12 -39 12c-14 0 -26.667 -3.66699 -38 -11s-20.833 -20.833 -28.5 -40.5
s-13.5 -46.667 -17.5 -81s-6 -78.5 -6 -132.5c0 -56.667 2.33301 -102.334 7 -137.001s11 -61.5 19 -80.5s17.5 -31.667 28.5 -38s22.833 -9.5 35.5 -9.5c12 0 23.5 3.16699 34.5 9.5s20.5 19 28.5 38s14.5 45.833 19.5 80.5s7.5 80.334 7.5 137.001z" />
    <glyph glyph-name="multiply" unicode="&#xd7;" horiz-adv-x="479" 
d="M357 126l-118 117l-117 -117l-92 92l117 117l-117 117l92 92l117 -117l118 117l92 -92l-118 -117l118 -117z" />
    <glyph glyph-name="Oslash" unicode="&#xd8;" horiz-adv-x="500" 
d="M470 350c0 -53.333 -3.16406 -99.334 -9.49707 -138.001s-14.833 -71.334 -25.5 -98.001s-23.167 -48 -37.5 -64s-29.666 -28.5 -45.999 -37.5s-33.166 -15 -50.499 -18s-34.333 -4.5 -51 -4.5c-13.333 0 -26.833 0.833008 -40.5 2.5s-27.167 4.83398 -40.5 9.50098
l-37 -112h-72l50 149c-11.333 12 -22 26.833 -32 44.5s-18.5 39 -25.5 64s-12.5 54.167 -16.5 87.5s-6 71.666 -6 114.999c0 54 3.16699 100.333 9.5 139s14.833 71.334 25.5 98.001s23.167 48.167 37.5 64.5s29.666 28.833 45.999 37.5s33.166 14.334 50.499 17.001
s34.333 4 51 4c13.333 0 26.666 -0.833008 39.999 -2.5s26.666 -5.16699 39.999 -10.5l38 113h72l-51 -152c23.333 -24 42.666 -60.333 57.999 -109s23 -115 23 -199zM296.003 594.999c-12.667 13.333 -28 20 -46 20c-14 0 -26.667 -3.5 -38 -10.5
s-20.833 -20.333 -28.5 -40s-13.5 -46.667 -17.5 -81s-6 -78.833 -6 -133.5c0 -29.333 0.5 -55.333 1.5 -78s2.83301 -43 5.5 -61l129 384v0zM340.003 349.999c0 28.667 -0.501953 54.499 -1.50195 77.499s-2.83301 43.5 -5.5 61.5l-129 -385
c6.66699 -7.33301 13.834 -12.333 21.501 -15s15.834 -4 24.501 -4c12 0 23.5 3.16699 34.5 9.5s20.5 19 28.5 38s14.5 45.833 19.5 80.5s7.5 80.334 7.5 137.001z" />
    <glyph glyph-name="Ugrave" unicode="&#xd9;" horiz-adv-x="516" 
d="M204 750l-154 130h163l113 -130h-122zM456 180c0 -68.667 -16.501 -117.499 -49.501 -146.499s-82.5 -43.5 -148.5 -43.5c-33.333 0 -62.5 3.33301 -87.5 10s-45.667 17.5 -62 32.5s-28.5 34.5 -36.5 58.5s-12 53.667 -12 89v520h130v-529c0 -12 0.833008 -23 2.5 -33
s5 -18.333 10 -25s11.833 -11.834 20.5 -15.501s20.334 -5.5 35.001 -5.5c25.333 0 43 7 53 21s15 33.333 15 58v529h130v-520v0z" />
    <glyph glyph-name="Uacute" unicode="&#xda;" horiz-adv-x="516" 
d="M302 750h-122l113 130h163zM456 180c0 -68.667 -16.501 -117.499 -49.501 -146.499s-82.5 -43.5 -148.5 -43.5c-33.333 0 -62.5 3.33301 -87.5 10s-45.667 17.5 -62 32.5s-28.5 34.5 -36.5 58.5s-12 53.667 -12 89v520h130v-529c0 -12 0.833008 -23 2.5 -33
s5 -18.333 10 -25s11.833 -11.834 20.5 -15.501s20.334 -5.5 35.001 -5.5c25.333 0 43 7 53 21s15 33.333 15 58v529h130v-520v0z" />
    <glyph glyph-name="Ucircumflex" unicode="&#xdb;" horiz-adv-x="516" 
d="M309 750l-51 58l-51 -58h-142l138 130h110l138 -130h-142zM456 180c0 -68.667 -16.501 -117.499 -49.501 -146.499s-82.5 -43.5 -148.5 -43.5c-33.333 0 -62.5 3.33301 -87.5 10s-45.667 17.5 -62 32.5s-28.5 34.5 -36.5 58.5s-12 53.667 -12 89v520h130v-529
c0 -12 0.833008 -23 2.5 -33s5 -18.333 10 -25s11.833 -11.834 20.5 -15.501s20.334 -5.5 35.001 -5.5c25.333 0 43 7 53 21s15 33.333 15 58v529h130v-520v0z" />
    <glyph glyph-name="Udieresis" unicode="&#xdc;" horiz-adv-x="516" 
d="M432 820c0 -19.333 -6.66699 -35.833 -20 -49.5s-29.666 -20.5 -48.999 -20.5s-35.666 6.83301 -48.999 20.5s-20 30.167 -20 49.5s6.66699 35.833 20 49.5s29.666 20.5 48.999 20.5s35.666 -6.83301 48.999 -20.5s20 -30.167 20 -49.5zM223 820
c0 -19.333 -6.66699 -35.833 -20 -49.5s-29.666 -20.5 -48.999 -20.5s-35.666 6.83301 -48.999 20.5s-20 30.167 -20 49.5s6.66699 35.833 20 49.5s29.666 20.5 48.999 20.5s35.666 -6.83301 48.999 -20.5s20 -30.167 20 -49.5zM456 180
c0 -68.667 -16.501 -117.499 -49.501 -146.499s-82.5 -43.5 -148.5 -43.5c-33.333 0 -62.5 3.33301 -87.5 10s-45.667 17.5 -62 32.5s-28.5 34.5 -36.5 58.5s-12 53.667 -12 89v520h130v-529c0 -12 0.833008 -23 2.5 -33s5 -18.333 10 -25s11.833 -11.834 20.5 -15.501
s20.334 -5.5 35.001 -5.5c25.333 0 43 7 53 21s15 33.333 15 58v529h130v-520v0z" />
    <glyph glyph-name="Yacute" unicode="&#xdd;" horiz-adv-x="450" 
d="M282 750h-122l113 130h163zM290 288v-288h-130v288l-170 412h150l85 -300l85 300h150z" />
    <glyph glyph-name="Thorn" unicode="&#xde;" horiz-adv-x="465" 
d="M445 360c0 -43.333 -5.50098 -80.168 -16.501 -110.501s-27 -55 -48 -74s-47 -33.167 -78 -42.5s-66.833 -14.666 -107.5 -15.999v-117h-130v700h130v-100h27c40.667 0 75.334 -4.33301 104.001 -13s51.667 -22.5 69 -41.5s30 -43.833 38 -74.5s12 -67.667 12 -111z
M314.999 359.998c0 31.333 -1.66992 56.333 -5.00293 75s-8.66602 33 -15.999 43s-16.666 16.5 -27.999 19.5s-24.666 4.5 -39.999 4.5h-31v-296c27.333 2 49 6.5 65 13.5s28 16.833 36 29.5s13.167 28.167 15.5 46.5s3.5 39.833 3.5 64.5z" />
    <glyph glyph-name="germandbls" unicode="&#xdf;" horiz-adv-x="524" 
d="M504 147c0 -33.333 -5.49707 -60.3291 -16.4971 -80.9961s-25 -36.667 -42 -48s-35.833 -18.833 -56.5 -22.5s-40.334 -5.5 -59.001 -5.5c-10 0 -20 0.666992 -30 2s-19.333 2.66602 -28 3.99902c-10 2 -19.667 4.33301 -29 7v104c8 -2.66699 16.667 -5 26 -7
c7.33301 -2 15.833 -3.66699 25.5 -5s19.167 -2 28.5 -2c16.667 0 29.667 4.66699 39 14s14 23.333 14 42c0 14.667 -3.16699 28.334 -9.5 41.001s-13.833 22.667 -22.5 30l-33 29c-7.33301 6 -14.833 13.167 -22.5 21.5s-15 17.666 -22 27.999s-12.667 21.666 -17 33.999
s-6.5 26.166 -6.5 41.499c0 20 3.66699 40 11 60s15.333 37 24 51s16.5 28 23.5 42s10.5 30.333 10.5 49c0 23.333 -5.5 39.166 -16.5 47.499s-25.167 12.5 -42.5 12.5c-19.333 0 -34.666 -6.16699 -45.999 -18.5s-17 -36.5 -17 -72.5v-545h-130v545
c0 62.667 17.333 109.167 52 139.5s80.667 45.5 138 45.5c28 0 53.667 -2.83301 77 -8.5s43.5 -14.167 60.5 -25.5s30.167 -26 39.5 -44s14 -39.333 14 -64c0 -32 -6 -57.833 -18 -77.5s-25 -36.167 -39 -49.5c-10.667 -10 -19.834 -20.667 -27.501 -32
s-11.5 -21.666 -11.5 -30.999c0 -12 4 -22.833 12 -32.5s18.667 -19.834 32 -30.501l37 -30c9.33301 -8 18.666 -16.667 27.999 -26s17.666 -20.333 24.999 -33s13.333 -27 18 -43s7 -34.667 7 -56z" />
    <glyph glyph-name="agrave" unicode="&#xe0;" horiz-adv-x="460" 
d="M174 620l-154 160h158l118 -160h-122zM293 0l-19.999 42c-7.33301 -10 -16 -18.667 -26 -26c-8.66699 -6.66699 -19.167 -12.667 -31.5 -18s-26.5 -8 -42.5 -8c-15.333 0 -31.333 1.83301 -48 5.5s-32 11.5 -46 23.5s-25.667 29.167 -35 51.5s-14 52.5 -14 90.5
c0 37.333 6.16699 67.5 18.5 90.5s27.5 40.667 45.5 53s37 20.666 57 24.999s37.667 6.5 53 6.5h66v50c0 17.333 -4.33301 30.333 -13 39s-26 13 -52 13c-12.667 0 -26.834 -1.66699 -42.501 -5s-30.167 -6.66602 -43.5 -9.99902c-16.667 -4.66699 -33 -9.66699 -49 -15v101
c15.333 5.33301 32 10.333 50 15c15.333 4 33 7.66699 53 11s40.667 5 62 5s42 -2.16699 62 -6.5s37.667 -12.166 53 -23.499s27.5 -26.833 36.5 -46.5s13.5 -44.834 13.5 -75.501v-388h-107zM270.001 257l-46 -0.999023c-22.667 -0.666992 -39 -7.16699 -49 -19.5
s-15 -36.5 -15 -72.5c0 -16.667 1.16699 -30.167 3.5 -40.5s5.5 -18.333 9.5 -24s8.83301 -9.5 14.5 -11.5s11.5 -3 17.5 -3c7.33301 0 15 1.33301 23 4s15 5.66699 21 9c7.33301 3.33301 14.333 7.66602 21 12.999v146z" />
    <glyph glyph-name="aacute" unicode="&#xe1;" horiz-adv-x="460" 
d="M292 620h-122l118 160h158zM293 0l-19.999 42c-7.33301 -10 -16 -18.667 -26 -26c-8.66699 -6.66699 -19.167 -12.667 -31.5 -18s-26.5 -8 -42.5 -8c-15.333 0 -31.333 1.83301 -48 5.5s-32 11.5 -46 23.5s-25.667 29.167 -35 51.5s-14 52.5 -14 90.5
c0 37.333 6.16699 67.5 18.5 90.5s27.5 40.667 45.5 53s37 20.666 57 24.999s37.667 6.5 53 6.5h66v50c0 17.333 -4.33301 30.333 -13 39s-26 13 -52 13c-12.667 0 -26.834 -1.66699 -42.501 -5s-30.167 -6.66602 -43.5 -9.99902c-16.667 -4.66699 -33 -9.66699 -49 -15v101
c15.333 5.33301 32 10.333 50 15c15.333 4 33 7.66699 53 11s40.667 5 62 5s42 -2.16699 62 -6.5s37.667 -12.166 53 -23.499s27.5 -26.833 36.5 -46.5s13.5 -44.834 13.5 -75.501v-388h-107zM270.001 257l-46 -0.999023c-22.667 -0.666992 -39 -7.16699 -49 -19.5
s-15 -36.5 -15 -72.5c0 -16.667 1.16699 -30.167 3.5 -40.5s5.5 -18.333 9.5 -24s8.83301 -9.5 14.5 -11.5s11.5 -3 17.5 -3c7.33301 0 15 1.33301 23 4s15 5.66699 21 9c7.33301 3.33301 14.333 7.66602 21 12.999v146z" />
    <glyph glyph-name="acircumflex" unicode="&#xe2;" horiz-adv-x="460" 
d="M281 620l-51 72l-51 -72h-142l138 160h110l138 -160h-142zM293 0l-19.999 42c-7.33301 -10 -16 -18.667 -26 -26c-8.66699 -6.66699 -19.167 -12.667 -31.5 -18s-26.5 -8 -42.5 -8c-15.333 0 -31.333 1.83301 -48 5.5s-32 11.5 -46 23.5s-25.667 29.167 -35 51.5
s-14 52.5 -14 90.5c0 37.333 6.16699 67.5 18.5 90.5s27.5 40.667 45.5 53s37 20.666 57 24.999s37.667 6.5 53 6.5h66v50c0 17.333 -4.33301 30.333 -13 39s-26 13 -52 13c-12.667 0 -26.834 -1.66699 -42.501 -5s-30.167 -6.66602 -43.5 -9.99902
c-16.667 -4.66699 -33 -9.66699 -49 -15v101c15.333 5.33301 32 10.333 50 15c15.333 4 33 7.66699 53 11s40.667 5 62 5s42 -2.16699 62 -6.5s37.667 -12.166 53 -23.499s27.5 -26.833 36.5 -46.5s13.5 -44.834 13.5 -75.501v-388h-107zM270.001 257l-46 -0.999023
c-22.667 -0.666992 -39 -7.16699 -49 -19.5s-15 -36.5 -15 -72.5c0 -16.667 1.16699 -30.167 3.5 -40.5s5.5 -18.333 9.5 -24s8.83301 -9.5 14.5 -11.5s11.5 -3 17.5 -3c7.33301 0 15 1.33301 23 4s15 5.66699 21 9c7.33301 3.33301 14.333 7.66602 21 12.999v146z" />
    <glyph glyph-name="atilde" unicode="&#xe3;" horiz-adv-x="460" 
d="M390 650c-27.333 -17.333 -51.666 -26 -72.999 -26c-18 0 -33.667 2.33301 -47 7s-26.333 10 -39 16s-25.5 11.333 -38.5 16s-28.5 7 -46.5 7c-11.333 0 -23 -2.5 -35 -7.5s-25.667 -12.5 -41 -22.5v110c15.333 9.33301 30.166 16.333 44.499 21s28.5 7 42.5 7
c20.667 0 38.5 -2.33301 53.5 -7s28.667 -9.66699 41 -15l36 -15c11.667 -4.66699 24.5 -7 38.5 -7c9.33301 0 19 2.16699 29 6.5s21.667 10.5 35 18.5v-109v0zM293 0l-19.999 42c-7.33301 -10 -16 -18.667 -26 -26c-8.66699 -6.66699 -19.167 -12.667 -31.5 -18
s-26.5 -8 -42.5 -8c-15.333 0 -31.333 1.83301 -48 5.5s-32 11.5 -46 23.5s-25.667 29.167 -35 51.5s-14 52.5 -14 90.5c0 37.333 6.16699 67.5 18.5 90.5s27.5 40.667 45.5 53s37 20.666 57 24.999s37.667 6.5 53 6.5h66v50c0 17.333 -4.33301 30.333 -13 39s-26 13 -52 13
c-12.667 0 -26.834 -1.66699 -42.501 -5s-30.167 -6.66602 -43.5 -9.99902c-16.667 -4.66699 -33 -9.66699 -49 -15v101c15.333 5.33301 32 10.333 50 15c15.333 4 33 7.66699 53 11s40.667 5 62 5s42 -2.16699 62 -6.5s37.667 -12.166 53 -23.499s27.5 -26.833 36.5 -46.5
s13.5 -44.834 13.5 -75.501v-388h-107zM270.001 257l-46 -0.999023c-22.667 -0.666992 -39 -7.16699 -49 -19.5s-15 -36.5 -15 -72.5c0 -16.667 1.16699 -30.167 3.5 -40.5s5.5 -18.333 9.5 -24s8.83301 -9.5 14.5 -11.5s11.5 -3 17.5 -3c7.33301 0 15 1.33301 23 4
s15 5.66699 21 9c7.33301 3.33301 14.333 7.66602 21 12.999v146z" />
    <glyph glyph-name="adieresis" unicode="&#xe4;" horiz-adv-x="460" 
d="M394 690c0 -19.333 -6.66699 -35.833 -20 -49.5s-29.666 -20.5 -48.999 -20.5s-35.666 6.83301 -48.999 20.5s-20 30.167 -20 49.5s6.66699 35.833 20 49.5s29.666 20.5 48.999 20.5s35.666 -6.83301 48.999 -20.5s20 -30.167 20 -49.5zM205 690
c0 -19.333 -6.66699 -35.833 -20 -49.5s-29.666 -20.5 -48.999 -20.5s-35.666 6.83301 -48.999 20.5s-20 30.167 -20 49.5s6.66699 35.833 20 49.5s29.666 20.5 48.999 20.5s35.666 -6.83301 48.999 -20.5s20 -30.167 20 -49.5zM293 0l-19.999 42
c-7.33301 -10 -16 -18.667 -26 -26c-8.66699 -6.66699 -19.167 -12.667 -31.5 -18s-26.5 -8 -42.5 -8c-15.333 0 -31.333 1.83301 -48 5.5s-32 11.5 -46 23.5s-25.667 29.167 -35 51.5s-14 52.5 -14 90.5c0 37.333 6.16699 67.5 18.5 90.5s27.5 40.667 45.5 53
s37 20.666 57 24.999s37.667 6.5 53 6.5h66v50c0 17.333 -4.33301 30.333 -13 39s-26 13 -52 13c-12.667 0 -26.834 -1.66699 -42.501 -5s-30.167 -6.66602 -43.5 -9.99902c-16.667 -4.66699 -33 -9.66699 -49 -15v101c15.333 5.33301 32 10.333 50 15
c15.333 4 33 7.66699 53 11s40.667 5 62 5s42 -2.16699 62 -6.5s37.667 -12.166 53 -23.499s27.5 -26.833 36.5 -46.5s13.5 -44.834 13.5 -75.501v-388h-107zM270.001 257l-46 -0.999023c-22.667 -0.666992 -39 -7.16699 -49 -19.5s-15 -36.5 -15 -72.5
c0 -16.667 1.16699 -30.167 3.5 -40.5s5.5 -18.333 9.5 -24s8.83301 -9.5 14.5 -11.5s11.5 -3 17.5 -3c7.33301 0 15 1.33301 23 4s15 5.66699 21 9c7.33301 3.33301 14.333 7.66602 21 12.999v146z" />
    <glyph glyph-name="aring" unicode="&#xe5;" horiz-adv-x="460" 
d="M369 683c0 -37.333 -11.666 -67 -34.999 -89s-56.666 -33 -99.999 -33c-42.667 0 -75.834 10.833 -99.501 32.5s-35.5 51.5 -35.5 89.5s11.167 67.833 33.5 89.5s56.166 32.5 101.499 32.5c42 0 75 -11 99 -33s36 -51.667 36 -89zM293.001 0l-19.999 42
c-7.33301 -10 -16 -18.667 -26 -26c-8.66699 -6.66699 -19.167 -12.667 -31.5 -18s-26.5 -8 -42.5 -8c-15.333 0 -31.333 1.83301 -48 5.5s-32 11.5 -46 23.5s-25.667 29.167 -35 51.5s-14 52.5 -14 90.5c0 37.333 6.16699 67.5 18.5 90.5s27.5 40.667 45.5 53
s37 20.666 57 24.999s37.667 6.5 53 6.5h66v50c0 17.333 -4.33301 30.333 -13 39s-26 13 -52 13c-12.667 0 -26.834 -1.66699 -42.501 -5s-30.167 -6.66602 -43.5 -9.99902c-16.667 -4.66699 -33 -9.66699 -49 -15v101c15.333 5.33301 32 10.333 50 15
c15.333 4 33 7.66699 53 11s40.667 5 62 5s42 -2.16699 62 -6.5s37.667 -12.166 53 -23.499s27.5 -26.833 36.5 -46.5s13.5 -44.834 13.5 -75.501v-388h-107zM277.002 683c0 18 -3.66699 31 -11 39s-18 12 -32 12c-28.667 0 -43 -17 -43 -51c0 -16 3.5 -28.5 10.5 -37.5
s17.833 -13.5 32.5 -13.5c28.667 0 43 17 43 51zM270.002 257l-46 -0.999023c-22.667 -0.666992 -39 -7.16699 -49 -19.5s-15 -36.5 -15 -72.5c0 -16.667 1.16699 -30.167 3.5 -40.5s5.5 -18.333 9.5 -24s8.83301 -9.5 14.5 -11.5s11.5 -3 17.5 -3
c7.33301 0 15 1.33301 23 4s15 5.66699 21 9c7.33301 3.33301 14.333 7.66602 21 12.999v146z" />
    <glyph glyph-name="ae" unicode="&#xe6;" horiz-adv-x="680" 
d="M649 222l-249.998 0.000976562c0 -28 2.5 -50.5 7.5 -67.5s11.833 -30 20.5 -39s18.334 -14.833 29.001 -17.5s22 -4 34 -4c11.333 0 24.666 1 39.999 3s29.666 4.33301 42.999 7c16 2.66699 32.333 6.33398 49 11.001v-103c-12.667 -4.66699 -26 -8.33398 -40 -11.001
c-12 -3.33301 -26 -6 -42 -8s-32.667 -3 -50 -3c-16 0 -31.833 0.666992 -47.5 2s-30.834 4.66602 -45.501 9.99902s-28.5 13.166 -41.5 23.499s-24.833 24.5 -35.5 42.5c-14.667 -19.333 -33.667 -37.166 -57 -53.499s-50 -24.5 -80 -24.5c-16.667 0 -34 1.66699 -52 5
s-34.5 10.666 -49.5 21.999s-27.333 28.333 -37 51s-14.5 53.667 -14.5 93c0 37.333 6.16699 67.5 18.5 90.5s27.5 40.667 45.5 53s37 20.666 57 24.999s37.667 6.5 53 6.5h66v50c0 17.333 -4.33301 30.333 -13 39s-26 13 -52 13c-12.667 0 -26.834 -1.66699 -42.501 -5
s-30.167 -6.66602 -43.5 -9.99902c-16.667 -4.66699 -33 -9.66699 -49 -15v101c15.333 5.33301 32 10.333 50 15c15.333 4 33 7.66699 53 11s40.667 5 62 5c22.667 0 43.834 -3.16699 63.501 -9.5s37.167 -17.5 52.5 -33.5c15.333 15.333 33.666 26.333 54.999 33
s42.666 10 63.999 10c26.667 0 51.334 -4.33301 74.001 -13s42 -23.5 58 -44.5s28.333 -49.167 37 -84.5s12.334 -79.666 11.001 -132.999zM523.002 304.001c0 32 -1 57.667 -3 77s-5.16699 34.333 -9.5 45s-9.83301 17.667 -16.5 21s-14.667 5 -24 5
c-12 0 -22.333 -1.83301 -31 -5.5s-16 -10.834 -22 -21.501s-10.333 -25.667 -13 -45s-4 -44.666 -4 -75.999h123v0zM270.002 257.001l-46.001 -0.999023c-22.667 -0.666992 -39 -7.16699 -49 -19.5s-15 -36.5 -15 -72.5c0 -16.667 1.16699 -30.167 3.5 -40.5
s5.5 -18.333 9.5 -24s8.83301 -9.5 14.5 -11.5s11.5 -3 17.5 -3c10.667 0 20 2.16699 28 6.5s14.833 9.66602 20.5 15.999s9.83398 13.333 12.501 21s4 15.167 4 22.5v106z" />
    <glyph glyph-name="ccedilla" unicode="&#xe7;" horiz-adv-x="355" 
d="M345 12l-23.0049 -8.00488c-7.33301 -2 -16 -4.16699 -26 -6.5s-21 -4.16602 -33 -5.49902c9.33301 -8 18.5 -18.833 27.5 -32.5s13.5 -30.167 13.5 -49.5c0 -22 -3.33301 -40 -10 -54s-15.667 -25.167 -27 -33.5s-24.666 -14.166 -39.999 -17.499s-31.666 -5 -48.999 -5
c-10.667 0 -21.834 0.833008 -33.501 2.5s-22.167 3.83398 -31.5 6.50098c-11.333 2.66699 -22.333 6 -33 10v92c10.667 -3.33301 21 -6.33301 31 -9c8.66699 -2.66699 17.334 -4.83398 26.001 -6.50098s16 -2.5 22 -2.5c22 0 33 11.667 33 35
c0 13.333 -3.16699 26.833 -9.5 40.5s-12.166 24.167 -17.499 31.5c-15.333 5.33301 -30.833 13.5 -46.5 24.5s-29.667 26.667 -42 47s-22.333 46 -30 77s-11.5 68.833 -11.5 113.5c0 44 3.83301 81.333 11.5 112s17.667 56.334 30 77.001s26.333 36.834 42 48.501
s31.334 20.5 47.001 26.5s30.834 9.83301 45.501 11.5s27 2.5 37 2.5c14 0 27 -1.16699 39 -3.5s22.333 -4.83301 31 -7.5c10 -3.33301 19 -7 27 -11v-103c-10.667 4 -21.334 7.66699 -32.001 11c-9.33301 2.66699 -19.5 5.16699 -30.5 7.5s-21.5 3.5 -31.5 3.5
s-20.167 -2.16699 -30.5 -6.5s-19.666 -12.666 -27.999 -24.999s-15 -30 -20 -53s-7.5 -53.167 -7.5 -90.5c0 -33.333 2.16699 -60.833 6.5 -82.5s10 -38.667 17 -51s15.167 -20.833 24.5 -25.5s19.333 -7 30 -7c12 0 24 1 36 3s23 4.66699 33 8
c11.333 3.33301 22.333 7.33301 33 12v-107v0z" />
    <glyph glyph-name="egrave" unicode="&#xe8;" horiz-adv-x="445" 
d="M174 620l-154 160h158l118 -160h-122zM414 222l-250 -0.00292969c0 -28 2.5 -50.5 7.5 -67.5s11.833 -30 20.5 -39s18.334 -14.833 29.001 -17.5s22 -4 34 -4c11.333 0 24.666 1 39.999 3s29.666 4.33301 42.999 7c16 2.66699 32.333 6.33398 49 11.001v-103
c-12.667 -4.66699 -26 -8.33398 -40 -11.001c-12 -3.33301 -26 -6 -42 -8s-32.667 -3 -50 -3c-26 0 -52 2.33301 -78 7s-49.5 16.334 -70.5 35.001s-38.167 46.334 -51.5 83.001s-20 86.667 -20 150c0 56 5.5 101.833 16.5 137.5s25.667 63.667 44 84
s39.666 34.333 63.999 42s49.5 11.5 75.5 11.5c26.667 0 51.334 -4.33301 74.001 -13s42 -23.5 58 -44.5s28.333 -49.167 37 -84.5s12.334 -79.666 11.001 -132.999zM288 303.997c0 52 -3.16699 89.667 -9.5 113s-20.833 35 -43.5 35c-12 0 -22.333 -1.83301 -31 -5.5
s-16 -10.834 -22 -21.501s-10.333 -25.667 -13 -45s-4 -44.666 -4 -75.999h123v0z" />
    <glyph glyph-name="eacute" unicode="&#xe9;" horiz-adv-x="445" 
d="M282 620h-122l118 160h158zM414 222l-250 -0.00292969c0 -28 2.5 -50.5 7.5 -67.5s11.833 -30 20.5 -39s18.334 -14.833 29.001 -17.5s22 -4 34 -4c11.333 0 24.666 1 39.999 3s29.666 4.33301 42.999 7c16 2.66699 32.333 6.33398 49 11.001v-103
c-12.667 -4.66699 -26 -8.33398 -40 -11.001c-12 -3.33301 -26 -6 -42 -8s-32.667 -3 -50 -3c-26 0 -52 2.33301 -78 7s-49.5 16.334 -70.5 35.001s-38.167 46.334 -51.5 83.001s-20 86.667 -20 150c0 56 5.5 101.833 16.5 137.5s25.667 63.667 44 84
s39.666 34.333 63.999 42s49.5 11.5 75.5 11.5c26.667 0 51.334 -4.33301 74.001 -13s42 -23.5 58 -44.5s28.333 -49.167 37 -84.5s12.334 -79.666 11.001 -132.999zM288 303.997c0 52 -3.16699 89.667 -9.5 113s-20.833 35 -43.5 35c-12 0 -22.333 -1.83301 -31 -5.5
s-16 -10.834 -22 -21.501s-10.333 -25.667 -13 -45s-4 -44.666 -4 -75.999h123v0z" />
    <glyph glyph-name="ecircumflex" unicode="&#xea;" horiz-adv-x="445" 
d="M277 620l-51 72l-51 -72h-142l138 160h110l138 -160h-142zM414 222l-250 -0.00292969c0 -28 2.5 -50.5 7.5 -67.5s11.833 -30 20.5 -39s18.334 -14.833 29.001 -17.5s22 -4 34 -4c11.333 0 24.666 1 39.999 3s29.666 4.33301 42.999 7
c16 2.66699 32.333 6.33398 49 11.001v-103c-12.667 -4.66699 -26 -8.33398 -40 -11.001c-12 -3.33301 -26 -6 -42 -8s-32.667 -3 -50 -3c-26 0 -52 2.33301 -78 7s-49.5 16.334 -70.5 35.001s-38.167 46.334 -51.5 83.001s-20 86.667 -20 150c0 56 5.5 101.833 16.5 137.5
s25.667 63.667 44 84s39.666 34.333 63.999 42s49.5 11.5 75.5 11.5c26.667 0 51.334 -4.33301 74.001 -13s42 -23.5 58 -44.5s28.333 -49.167 37 -84.5s12.334 -79.666 11.001 -132.999zM288 303.997c0 52 -3.16699 89.667 -9.5 113s-20.833 35 -43.5 35
c-12 0 -22.333 -1.83301 -31 -5.5s-16 -10.834 -22 -21.501s-10.333 -25.667 -13 -45s-4 -44.666 -4 -75.999h123v0z" />
    <glyph glyph-name="edieresis" unicode="&#xeb;" horiz-adv-x="445" 
d="M389 690c0 -19.333 -6.66699 -35.833 -20 -49.5s-29.666 -20.5 -48.999 -20.5s-35.666 6.83301 -48.999 20.5s-20 30.167 -20 49.5s6.66699 35.833 20 49.5s29.666 20.5 48.999 20.5s35.666 -6.83301 48.999 -20.5s20 -30.167 20 -49.5zM200 690
c0 -19.333 -6.66699 -35.833 -20 -49.5s-29.666 -20.5 -48.999 -20.5s-35.666 6.83301 -48.999 20.5s-20 30.167 -20 49.5s6.66699 35.833 20 49.5s29.666 20.5 48.999 20.5s35.666 -6.83301 48.999 -20.5s20 -30.167 20 -49.5zM414 222l-250 -0.00292969
c0 -28 2.5 -50.5 7.5 -67.5s11.833 -30 20.5 -39s18.334 -14.833 29.001 -17.5s22 -4 34 -4c11.333 0 24.666 1 39.999 3s29.666 4.33301 42.999 7c16 2.66699 32.333 6.33398 49 11.001v-103c-12.667 -4.66699 -26 -8.33398 -40 -11.001c-12 -3.33301 -26 -6 -42 -8
s-32.667 -3 -50 -3c-26 0 -52 2.33301 -78 7s-49.5 16.334 -70.5 35.001s-38.167 46.334 -51.5 83.001s-20 86.667 -20 150c0 56 5.5 101.833 16.5 137.5s25.667 63.667 44 84s39.666 34.333 63.999 42s49.5 11.5 75.5 11.5c26.667 0 51.334 -4.33301 74.001 -13
s42 -23.5 58 -44.5s28.333 -49.167 37 -84.5s12.334 -79.666 11.001 -132.999zM288 303.997c0 52 -3.16699 89.667 -9.5 113s-20.833 35 -43.5 35c-12 0 -22.333 -1.83301 -31 -5.5s-16 -10.834 -22 -21.501s-10.333 -25.667 -13 -45s-4 -44.666 -4 -75.999h123v0z" />
    <glyph glyph-name="igrave" unicode="&#xec;" 
d="M67 620l-154 160h158l118 -160h-122zM65 0v530h130v-530h-130z" />
    <glyph glyph-name="iacute" unicode="&#xed;" 
d="M192 620h-122l118 160h158zM65 0v530h130v-530h-130z" />
    <glyph glyph-name="icircumflex" unicode="&#xee;" 
d="M181 620l-51 72l-51 -72h-142l138 160h110l138 -160h-142zM65 0v530h130v-530h-130z" />
    <glyph glyph-name="idieresis" unicode="&#xef;" 
d="M294 690c0 -19.333 -6.66699 -35.833 -20 -49.5s-29.666 -20.5 -48.999 -20.5s-35.666 6.83301 -48.999 20.5s-20 30.167 -20 49.5s6.66699 35.833 20 49.5s29.666 20.5 48.999 20.5s35.666 -6.83301 48.999 -20.5s20 -30.167 20 -49.5zM105 690
c0 -19.333 -6.66699 -35.833 -20 -49.5s-29.666 -20.5 -48.999 -20.5s-35.666 6.83301 -48.999 20.5s-20 30.167 -20 49.5s6.66699 35.833 20 49.5s29.666 20.5 48.999 20.5s35.666 -6.83301 48.999 -20.5s20 -30.167 20 -49.5zM65 0v530h130v-530h-130z" />
    <glyph glyph-name="eth" unicode="&#xf0;" horiz-adv-x="490" 
d="M455 290c0 -64.667 -6.16602 -116.67 -18.499 -156.003s-28.5 -69.666 -48.5 -90.999s-42.833 -35.5 -68.5 -42.5s-52.167 -10.5 -79.5 -10.5c-24.667 0 -49.167 2.83301 -73.5 8.5s-46.333 17 -66 34s-35.5 41 -47.5 72s-18 71.833 -18 122.5
c0 46.667 5.16699 85.334 15.5 116.001s24 55 41 73s36.333 30.667 58 38s43.5 11 65.5 11c19.333 0 35.666 -2.16699 48.999 -6.5s24.333 -9.16602 33 -14.499c10 -6 18.333 -12.667 25 -20c-8 50 -24 90.333 -48 121l-114 -65v82l56 32c-34.667 18.667 -77.667 28 -129 28
v98c97.333 0 175.333 -22.333 234 -67l114 65v-82l-62 -35c54.667 -71.333 82 -175 82 -311zM325.001 269.997c0 4.66699 -0.166992 11 -0.5 19s-0.5 15.667 -0.5 23c-0.666992 8.66699 -1 17.667 -1 27c-6 6 -12.667 11.333 -20 16c-6.66699 4 -14.667 7.66699 -24 11
s-19.666 5 -30.999 5c-13.333 0 -25.166 -2 -35.499 -6s-19 -11.333 -26 -22s-12.333 -24.834 -16 -42.501s-5.5 -40.167 -5.5 -67.5c0 -30 1.66699 -54.5 5 -73.5s8.16602 -34.167 14.499 -45.5s14.166 -19.166 23.499 -23.499s20 -6.5 32 -6.5c14 0 26.333 2.66699 37 8
s19.5 15 26.5 29s12.333 33 16 57s5.5 54.667 5.5 92z" />
    <glyph glyph-name="ntilde" unicode="&#xf1;" horiz-adv-x="525" 
d="M423 650c-27.333 -17.333 -51.666 -26 -72.999 -26c-18 0 -33.667 2.33301 -47 7s-26.333 10 -39 16s-25.5 11.333 -38.5 16s-28.5 7 -46.5 7c-11.333 0 -23 -2.5 -35 -7.5s-25.667 -12.5 -41 -22.5v110c15.333 9.33301 30.166 16.333 44.499 21s28.5 7 42.5 7
c20.667 0 38.5 -2.33301 53.5 -7s28.667 -9.66699 41 -15l36 -15c11.667 -4.66699 24.5 -7 38.5 -7c9.33301 0 19 2.16699 29 6.5s21.667 10.5 35 18.5v-109v0zM335 0v376.001c0 18.667 -2.33301 32 -7 40s-15.667 12 -33 12c-11.333 0 -23 -1.83301 -35 -5.5
s-22.667 -7.5 -32 -11.5c-11.333 -4.66699 -22.333 -10 -33 -16v-395h-130v530h102l25 -45c11.333 10 24.333 19 39 27c12.667 7.33301 27.5 13.833 44.5 19.5s36.167 8.5 57.5 8.5c42 0 74.5 -10.833 97.5 -32.5s34.5 -56.834 34.5 -105.501v-402h-130z" />
    <glyph glyph-name="ograve" unicode="&#xf2;" horiz-adv-x="484" 
d="M174 620l-154 160h158l118 -160h-122zM454 265c0 -57.333 -5.99805 -103.833 -17.998 -139.5s-27.833 -63.5 -47.5 -83.5s-42.334 -33.667 -68.001 -41s-51.834 -11 -78.501 -11c-27.333 0 -53.666 3.66699 -78.999 11s-47.833 21.166 -67.5 41.499
s-35.5 48.333 -47.5 84s-18 81.834 -18 138.501c0 54.667 6 99.667 18 135s27.833 63.333 47.5 84s42.167 35.167 67.5 43.5s51.666 12.5 78.999 12.5c26.667 0 52.667 -3.83301 78 -11.5s48 -21.667 68 -42s36 -48.333 48 -84s18 -81.5 18 -137.5zM324.002 265
c0 39.333 -1.83105 71.0029 -5.49805 95.0029s-9 42.667 -16 56s-15.5 22.166 -25.5 26.499s-21.667 6.5 -35 6.5c-14 0 -26 -2.66699 -36 -8s-18.5 -15 -25.5 -29s-12.167 -32.833 -15.5 -56.5s-5 -53.834 -5 -90.501c0 -37.333 2.16699 -68 6.5 -92
s10.166 -42.667 17.499 -56s16 -22.5 26 -27.5s20.667 -7.5 32 -7.5s22 2.16699 32 6.5s18.667 13.166 26 26.499s13.166 31.833 17.499 55.5s6.5 55.167 6.5 94.5z" />
    <glyph glyph-name="oacute" unicode="&#xf3;" horiz-adv-x="484" 
d="M292 620h-122l118 160h158zM454 265c0 -57.333 -5.99805 -103.833 -17.998 -139.5s-27.833 -63.5 -47.5 -83.5s-42.334 -33.667 -68.001 -41s-51.834 -11 -78.501 -11c-27.333 0 -53.666 3.66699 -78.999 11s-47.833 21.166 -67.5 41.499s-35.5 48.333 -47.5 84
s-18 81.834 -18 138.501c0 54.667 6 99.667 18 135s27.833 63.333 47.5 84s42.167 35.167 67.5 43.5s51.666 12.5 78.999 12.5c26.667 0 52.667 -3.83301 78 -11.5s48 -21.667 68 -42s36 -48.333 48 -84s18 -81.5 18 -137.5zM324.002 265
c0 39.333 -1.83105 71.0029 -5.49805 95.0029s-9 42.667 -16 56s-15.5 22.166 -25.5 26.499s-21.667 6.5 -35 6.5c-14 0 -26 -2.66699 -36 -8s-18.5 -15 -25.5 -29s-12.167 -32.833 -15.5 -56.5s-5 -53.834 -5 -90.501c0 -37.333 2.16699 -68 6.5 -92
s10.166 -42.667 17.499 -56s16 -22.5 26 -27.5s20.667 -7.5 32 -7.5s22 2.16699 32 6.5s18.667 13.166 26 26.499s13.166 31.833 17.499 55.5s6.5 55.167 6.5 94.5z" />
    <glyph glyph-name="ocircumflex" unicode="&#xf4;" horiz-adv-x="484" 
d="M293 620l-51 72l-51 -72h-142l138 160h110l138 -160h-142zM454 265c0 -57.333 -5.99805 -103.833 -17.998 -139.5s-27.833 -63.5 -47.5 -83.5s-42.334 -33.667 -68.001 -41s-51.834 -11 -78.501 -11c-27.333 0 -53.666 3.66699 -78.999 11s-47.833 21.166 -67.5 41.499
s-35.5 48.333 -47.5 84s-18 81.834 -18 138.501c0 54.667 6 99.667 18 135s27.833 63.333 47.5 84s42.167 35.167 67.5 43.5s51.666 12.5 78.999 12.5c26.667 0 52.667 -3.83301 78 -11.5s48 -21.667 68 -42s36 -48.333 48 -84s18 -81.5 18 -137.5zM324.002 265
c0 39.333 -1.83105 71.0029 -5.49805 95.0029s-9 42.667 -16 56s-15.5 22.166 -25.5 26.499s-21.667 6.5 -35 6.5c-14 0 -26 -2.66699 -36 -8s-18.5 -15 -25.5 -29s-12.167 -32.833 -15.5 -56.5s-5 -53.834 -5 -90.501c0 -37.333 2.16699 -68 6.5 -92
s10.166 -42.667 17.499 -56s16 -22.5 26 -27.5s20.667 -7.5 32 -7.5s22 2.16699 32 6.5s18.667 13.166 26 26.499s13.166 31.833 17.499 55.5s6.5 55.167 6.5 94.5z" />
    <glyph glyph-name="otilde" unicode="&#xf5;" horiz-adv-x="484" 
d="M402 650c-27.333 -17.333 -51.666 -26 -72.999 -26c-18 0 -33.667 2.33301 -47 7s-26.333 10 -39 16s-25.5 11.333 -38.5 16s-28.5 7 -46.5 7c-11.333 0 -23 -2.5 -35 -7.5s-25.667 -12.5 -41 -22.5v110c15.333 9.33301 30.166 16.333 44.499 21s28.5 7 42.5 7
c20.667 0 38.5 -2.33301 53.5 -7s28.667 -9.66699 41 -15l36 -15c11.667 -4.66699 24.5 -7 38.5 -7c9.33301 0 19 2.16699 29 6.5s21.667 10.5 35 18.5v-109v0zM454 265c0 -57.333 -5.99805 -103.833 -17.998 -139.5s-27.833 -63.5 -47.5 -83.5s-42.334 -33.667 -68.001 -41
s-51.834 -11 -78.501 -11c-27.333 0 -53.666 3.66699 -78.999 11s-47.833 21.166 -67.5 41.499s-35.5 48.333 -47.5 84s-18 81.834 -18 138.501c0 54.667 6 99.667 18 135s27.833 63.333 47.5 84s42.167 35.167 67.5 43.5s51.666 12.5 78.999 12.5
c26.667 0 52.667 -3.83301 78 -11.5s48 -21.667 68 -42s36 -48.333 48 -84s18 -81.5 18 -137.5zM324.002 265c0 39.333 -1.83105 71.0029 -5.49805 95.0029s-9 42.667 -16 56s-15.5 22.166 -25.5 26.499s-21.667 6.5 -35 6.5c-14 0 -26 -2.66699 -36 -8s-18.5 -15 -25.5 -29
s-12.167 -32.833 -15.5 -56.5s-5 -53.834 -5 -90.501c0 -37.333 2.16699 -68 6.5 -92s10.166 -42.667 17.499 -56s16 -22.5 26 -27.5s20.667 -7.5 32 -7.5s22 2.16699 32 6.5s18.667 13.166 26 26.499s13.166 31.833 17.499 55.5s6.5 55.167 6.5 94.5z" />
    <glyph glyph-name="odieresis" unicode="&#xf6;" horiz-adv-x="484" 
d="M406 690c0 -19.333 -6.66699 -35.833 -20 -49.5s-29.666 -20.5 -48.999 -20.5s-35.666 6.83301 -48.999 20.5s-20 30.167 -20 49.5s6.66699 35.833 20 49.5s29.666 20.5 48.999 20.5s35.666 -6.83301 48.999 -20.5s20 -30.167 20 -49.5zM217 690
c0 -19.333 -6.66699 -35.833 -20 -49.5s-29.666 -20.5 -48.999 -20.5s-35.666 6.83301 -48.999 20.5s-20 30.167 -20 49.5s6.66699 35.833 20 49.5s29.666 20.5 48.999 20.5s35.666 -6.83301 48.999 -20.5s20 -30.167 20 -49.5zM454 265
c0 -57.333 -5.99805 -103.833 -17.998 -139.5s-27.833 -63.5 -47.5 -83.5s-42.334 -33.667 -68.001 -41s-51.834 -11 -78.501 -11c-27.333 0 -53.666 3.66699 -78.999 11s-47.833 21.166 -67.5 41.499s-35.5 48.333 -47.5 84s-18 81.834 -18 138.501
c0 54.667 6 99.667 18 135s27.833 63.333 47.5 84s42.167 35.167 67.5 43.5s51.666 12.5 78.999 12.5c26.667 0 52.667 -3.83301 78 -11.5s48 -21.667 68 -42s36 -48.333 48 -84s18 -81.5 18 -137.5zM324.002 265c0 39.333 -1.83105 71.0029 -5.49805 95.0029
s-9 42.667 -16 56s-15.5 22.166 -25.5 26.499s-21.667 6.5 -35 6.5c-14 0 -26 -2.66699 -36 -8s-18.5 -15 -25.5 -29s-12.167 -32.833 -15.5 -56.5s-5 -53.834 -5 -90.501c0 -37.333 2.16699 -68 6.5 -92s10.166 -42.667 17.499 -56s16 -22.5 26 -27.5s20.667 -7.5 32 -7.5
s22 2.16699 32 6.5s18.667 13.166 26 26.499s13.166 31.833 17.499 55.5s6.5 55.167 6.5 94.5z" />
    <glyph glyph-name="divide" unicode="&#xf7;" horiz-adv-x="541" 
d="M356 563c0 -24 -8 -44.667 -24 -62s-36.333 -26 -61 -26s-45.167 8.66699 -61.5 26s-24.5 38 -24.5 62s8.16699 44.5 24.5 61.5s36.833 25.5 61.5 25.5s45 -8.5 61 -25.5s24 -37.5 24 -61.5zM55 278v115h431v-115h-431zM356 109c0 -24 -8 -44.667 -24 -62
s-36.333 -26 -61 -26s-45.167 8.66699 -61.5 26s-24.5 38 -24.5 62s8.16699 44.5 24.5 61.5s36.833 25.5 61.5 25.5s45 -8.5 61 -25.5s24 -37.5 24 -61.5z" />
    <glyph glyph-name="oslash" unicode="&#xf8;" horiz-adv-x="484" 
d="M454 265c0 -57.333 -5.99707 -103.83 -17.9971 -139.497s-27.833 -63.5 -47.5 -83.5s-42.334 -33.667 -68.001 -41s-51.834 -11 -78.501 -11c-11.333 0 -22.666 0.5 -33.999 1.5s-22.666 3.16699 -33.999 6.5l-42 -108h-72l53 137c-24.667 18.667 -44.667 46.667 -60 84
s-23 88.666 -23 153.999c0 54.667 6 99.667 18 135s27.833 63.333 47.5 84s42.167 35.167 67.5 43.5s51.666 12.5 78.999 12.5c11.333 0 22.666 -0.5 33.999 -1.5s22.666 -3.16699 33.999 -6.5l42 108h72l-53 -137c24.667 -18.667 44.667 -46.834 60 -84.501
s23 -88.834 23 -153.501zM276.003 444.003c-8.66699 3.33301 -20 5.00098 -34 5.00098s-26 -2.66699 -36 -8s-18.5 -15 -25.5 -29s-12.167 -32.833 -15.5 -56.5s-5 -53.834 -5 -90.501c0 -20.667 0.666992 -39 2 -55s3.33301 -30.333 6 -43l108 277v0zM324.003 265.004
c0 42.667 -2 77.001 -6 103.001l-108 -278c8.66699 -5.33301 19.334 -8 32.001 -8c11.333 0 22 2.16699 32 6.5s18.667 13.166 26 26.499s13.166 31.833 17.499 55.5s6.5 55.167 6.5 94.5z" />
    <glyph glyph-name="ugrave" unicode="&#xf9;" horiz-adv-x="515" 
d="M214 620l-154 160h158l118 -160h-122zM342 0l-16.001 40.999c-10.667 -10 -22 -18.667 -34 -26c-10.667 -6.66699 -23 -12.5 -37 -17.5s-29 -7.5 -45 -7.5c-20 0 -39 2 -57 6s-33.833 11.833 -47.5 23.5s-24.667 28.334 -33 50.001s-12.5 50.167 -12.5 85.5v375h130v-375
c0 -22.667 3.83301 -37.5 11.5 -44.5s17.834 -10.5 30.501 -10.5c10.667 0 21.167 1.66699 31.5 5s19.833 7 28.5 11c10 4.66699 19.333 10 28 16v398h130v-530h-108z" />
    <glyph glyph-name="uacute" unicode="&#xfa;" horiz-adv-x="515" 
d="M302 620h-122l118 160h158zM342 0l-16.001 40.999c-10.667 -10 -22 -18.667 -34 -26c-10.667 -6.66699 -23 -12.5 -37 -17.5s-29 -7.5 -45 -7.5c-20 0 -39 2 -57 6s-33.833 11.833 -47.5 23.5s-24.667 28.334 -33 50.001s-12.5 50.167 -12.5 85.5v375h130v-375
c0 -22.667 3.83301 -37.5 11.5 -44.5s17.834 -10.5 30.501 -10.5c10.667 0 21.167 1.66699 31.5 5s19.833 7 28.5 11c10 4.66699 19.333 10 28 16v398h130v-530h-108z" />
    <glyph glyph-name="ucircumflex" unicode="&#xfb;" horiz-adv-x="515" 
d="M309 620l-51 72l-51 -72h-142l138 160h110l138 -160h-142zM342 0l-16.001 40.999c-10.667 -10 -22 -18.667 -34 -26c-10.667 -6.66699 -23 -12.5 -37 -17.5s-29 -7.5 -45 -7.5c-20 0 -39 2 -57 6s-33.833 11.833 -47.5 23.5s-24.667 28.334 -33 50.001
s-12.5 50.167 -12.5 85.5v375h130v-375c0 -22.667 3.83301 -37.5 11.5 -44.5s17.834 -10.5 30.501 -10.5c10.667 0 21.167 1.66699 31.5 5s19.833 7 28.5 11c10 4.66699 19.333 10 28 16v398h130v-530h-108z" />
    <glyph glyph-name="udieresis" unicode="&#xfc;" horiz-adv-x="515" 
d="M421 690c0 -19.333 -6.66699 -35.833 -20 -49.5s-29.666 -20.5 -48.999 -20.5s-35.666 6.83301 -48.999 20.5s-20 30.167 -20 49.5s6.66699 35.833 20 49.5s29.666 20.5 48.999 20.5s35.666 -6.83301 48.999 -20.5s20 -30.167 20 -49.5zM232 690
c0 -19.333 -6.66699 -35.833 -20 -49.5s-29.666 -20.5 -48.999 -20.5s-35.666 6.83301 -48.999 20.5s-20 30.167 -20 49.5s6.66699 35.833 20 49.5s29.666 20.5 48.999 20.5s35.666 -6.83301 48.999 -20.5s20 -30.167 20 -49.5zM342 0l-16.001 40.999
c-10.667 -10 -22 -18.667 -34 -26c-10.667 -6.66699 -23 -12.5 -37 -17.5s-29 -7.5 -45 -7.5c-20 0 -39 2 -57 6s-33.833 11.833 -47.5 23.5s-24.667 28.334 -33 50.001s-12.5 50.167 -12.5 85.5v375h130v-375c0 -22.667 3.83301 -37.5 11.5 -44.5
s17.834 -10.5 30.501 -10.5c10.667 0 21.167 1.66699 31.5 5s19.833 7 28.5 11c10 4.66699 19.333 10 28 16v398h130v-530h-108z" />
    <glyph glyph-name="yacute" unicode="&#xfd;" horiz-adv-x="425" 
d="M272 620h-122l118 160h158zM283 -55c-7.33301 -28 -15.6699 -51.334 -25.0029 -70.001s-20.666 -33.5 -33.999 -44.5s-28.833 -18.833 -46.5 -23.5s-38.5 -7 -62.5 -7c-15.333 0 -29.166 0.833008 -41.499 2.5s-23.166 3.83398 -32.499 6.50098
c-11.333 2.66699 -21.333 5.66699 -30 9v100l35 -8c10 -2 20.333 -3.83301 31 -5.5s20 -2.5 28 -2.5c16.667 0 29.667 3.5 39 10.5s16 19.167 20 36.5l12 49l-181 532h155l77 -377l61 377h142z" />
    <glyph glyph-name="thorn" unicode="&#xfe;" horiz-adv-x="500" 
d="M465 271c0 -65.333 -6.83398 -116.831 -20.501 -154.498s-30.167 -65.834 -49.5 -84.501s-40 -30.334 -62 -35.001s-41.333 -7 -58 -7c-9.33301 0 -18.833 0.833008 -28.5 2.5s-18.167 3.5 -25.5 5.5l-26 8v-196h-130v910h130v-223c7.33301 7.33301 16.333 14.333 27 21
c9.33301 5.33301 20.333 10.333 33 15s27.667 7 45 7c18.667 0 37.834 -2.5 57.501 -7.5s37.5 -16.667 53.5 -35s29 -45.333 39 -81s15 -84.167 15 -145.5zM334.999 271.002c0 37.333 -1.50098 67.168 -4.50098 89.501s-7.16699 39.333 -12.5 51
s-12.166 19.167 -20.499 22.5s-17.5 5 -27.5 5c-11.333 0 -21.5 -1.66699 -30.5 -5s-16.833 -7 -23.5 -11c-7.33301 -4.66699 -14.333 -9.66699 -21 -15v-313c6.66699 -2 13.667 -3.66699 21 -5c6 -1.33301 12.333 -2.33301 19 -3s12.667 -1 18 -1
c9.33301 0 18.833 1.83301 28.5 5.5s18.5 12 26.5 25s14.5 31.667 19.5 56s7.5 57.166 7.5 98.499z" />
    <glyph glyph-name="ydieresis" unicode="&#xff;" horiz-adv-x="425" 
d="M376 690c0 -19.333 -6.66699 -35.833 -20 -49.5s-29.666 -20.5 -48.999 -20.5s-35.666 6.83301 -48.999 20.5s-20 30.167 -20 49.5s6.66699 35.833 20 49.5s29.666 20.5 48.999 20.5s35.666 -6.83301 48.999 -20.5s20 -30.167 20 -49.5zM187 690
c0 -19.333 -6.66699 -35.833 -20 -49.5s-29.666 -20.5 -48.999 -20.5s-35.666 6.83301 -48.999 20.5s-20 30.167 -20 49.5s6.66699 35.833 20 49.5s29.666 20.5 48.999 20.5s35.666 -6.83301 48.999 -20.5s20 -30.167 20 -49.5zM283 -55
c-7.33301 -28 -15.6699 -51.334 -25.0029 -70.001s-20.666 -33.5 -33.999 -44.5s-28.833 -18.833 -46.5 -23.5s-38.5 -7 -62.5 -7c-15.333 0 -29.166 0.833008 -41.499 2.5s-23.166 3.83398 -32.499 6.50098c-11.333 2.66699 -21.333 5.66699 -30 9v100l35 -8
c10 -2 20.333 -3.83301 31 -5.5s20 -2.5 28 -2.5c16.667 0 29.667 3.5 39 10.5s16 19.167 20 36.5l12 49l-181 532h155l77 -377l61 377h142z" />
    <glyph glyph-name="OE" unicode="&#x152;" horiz-adv-x="600" 
d="M570 591l-165 -0.00195312v-171h155v-98h-155v-213h170v-109h-272c-6 -2 -12 -3.66699 -18 -5c-11.333 -3.33301 -23 -5 -35 -5c-16.667 0 -33.667 1.33301 -51 4s-34.166 8.16699 -50.499 16.5s-31.666 20.5 -45.999 36.5s-26.833 37.333 -37.5 64
s-19.167 59.5 -25.5 98.5s-9.5 85.833 -9.5 140.5c0 54 3.16699 100.333 9.5 139s14.833 71.334 25.5 98.001s23.167 48.167 37.5 64.5s29.666 28.833 45.999 37.5s33.166 14.334 50.499 17.001s34.333 4 51 4c5.33301 0 11 -0.5 17 -1.5s11.667 -2.16699 17 -3.5
c6 -2 11.667 -3.66699 17 -5h279zM275 610.998c-3.33301 0.666992 -6.33301 1.33301 -9 2c-6.66699 1.33301 -12 2 -16 2c-14 0 -26.667 -3.5 -38 -10.5s-20.833 -20.333 -28.5 -40s-13.5 -46.667 -17.5 -81s-6 -78.833 -6 -133.5c0 -56.667 2.33301 -102.334 7 -137.001
s11 -61.5 19 -80.5s17.5 -31.667 28.5 -38s22.833 -9.5 35.5 -9.5c4 0 9.33301 0.666992 16 2c2.66699 0.666992 5.66699 1.33398 9 2.00098v522z" />
    <glyph glyph-name="oe" unicode="&#x153;" horiz-adv-x="734" 
d="M703 222l-250.001 -0.00195312c0 -28 2.5 -50.5 7.5 -67.5s11.833 -30 20.5 -39s18.334 -14.833 29.001 -17.5s22 -4 34 -4c11.333 0 24.666 1 39.999 3s29.666 4.33301 42.999 7c16 2.66699 32.333 6.33398 49 11.001v-103c-12.667 -4.66699 -26 -8.33398 -40 -11.001
c-12 -3.33301 -26 -6 -42 -8s-32.667 -3 -50 -3c-39.333 0 -70.5 4.5 -93.5 13.5s-44.167 24.5 -63.5 46.5c-15.333 -19.333 -35.333 -34.166 -60 -44.499s-53 -15.5 -85 -15.5c-27.333 0 -53.666 3.66699 -78.999 11s-47.833 21.166 -67.5 41.499s-35.5 48.333 -47.5 84
s-18 81.834 -18 138.501c0 54.667 6 99.667 18 135s27.833 63.333 47.5 84s42.167 35.167 67.5 43.5s51.666 12.5 78.999 12.5c36 0 65.333 -5.33301 88 -16s41.667 -25.667 57 -45c11.333 17.333 28 31.833 50 43.5s51 17.5 87 17.5c26.667 0 51.334 -4.33301 74.001 -13
s42 -23.5 58 -44.5s28.333 -49.167 37 -84.5s12.334 -79.666 11.001 -132.999zM576.999 303.998c0 32 -1 57.667 -3 77s-5.16699 34.333 -9.5 45s-9.83301 17.667 -16.5 21s-14.667 5 -24 5c-12 0 -22.333 -1.83301 -31 -5.5s-16 -10.834 -22 -21.501
s-10.333 -25.667 -13 -45s-4 -44.666 -4 -75.999h123v0zM323.999 264.998c0 40 -1.66504 72.002 -4.99805 96.002s-8.5 42.5 -15.5 55.5s-15.5 21.667 -25.5 26s-22 6.5 -36 6.5s-26 -2.66699 -36 -8s-18.5 -15 -25.5 -29s-12.167 -32.833 -15.5 -56.5
s-5 -53.834 -5 -90.501c0 -37.333 2.16699 -68 6.5 -92s10.166 -42.667 17.499 -56s16 -22.5 26 -27.5s20.667 -7.5 32 -7.5s22 2.16699 32 6.5s18.667 13.166 26 26.499s13.166 31.833 17.499 55.5s6.5 55.167 6.5 94.5z" />
    <glyph glyph-name="Scaron" unicode="&#x160;" horiz-adv-x="386" 
d="M278 750h-110l-138 130h142l51 -62l51 62h142zM361 186c0 -42 -5.99707 -75.833 -17.9971 -101.5s-27.833 -45.5 -47.5 -59.5s-42 -23.333 -67 -28s-50.167 -7 -75.5 -7c-17.333 0 -33.333 0.833008 -48 2.5s-27.667 3.83398 -39 6.50098
c-12.667 2.66699 -24.667 5.66699 -36 9v109c14.667 -4 28.667 -7.33301 42 -10c11.333 -2.66699 23.5 -5 36.5 -7s24.5 -3 34.5 -3c11.333 0 22.333 1.16699 33 3.5s20 6.66602 28 12.999s14.5 14.833 19.5 25.5s7.5 24.334 7.5 41.001c0 13.333 -1.33301 24.833 -4 34.5
s-6.66699 18.5 -12 26.5s-11.833 15.667 -19.5 23l-25.5 24l-58 53c-10 9.33301 -19.833 19.666 -29.5 30.999s-18.334 24 -26.001 38s-13.834 29.833 -18.501 47.5s-7 37.167 -7 58.5c0 37.333 6 68.333 18 93s27.5 44.5 46.5 59.5s40.167 25.667 63.5 32
s46.666 9.5 69.999 9.5c19.333 0 36.333 -1.16699 51 -3.5s27 -4.83301 37 -7.5c12 -2.66699 22 -6 30 -10v-106c-10.667 4 -22 7.66699 -34 11c-10 3.33301 -21.5 6.16602 -34.5 8.49902s-26.167 3.5 -39.5 3.5c-23.333 0 -42.5 -6.33301 -57.5 -19
s-22.5 -33.334 -22.5 -62.001c0 -12.667 1.5 -23.667 4.5 -33s7 -17.833 12 -25.5s11 -15 18 -22s14.5 -13.833 22.5 -20.5l51 -44c12 -10.667 23.667 -22.167 35 -34.5s21.333 -26.166 30 -41.499s15.667 -32.666 21 -51.999s8 -41.333 8 -66z" />
    <glyph glyph-name="scaron" unicode="&#x161;" horiz-adv-x="354" 
d="M242 620h-110l-138 160h142l51 -72l51 72h142zM329 158c0 -34.667 -5.33301 -63.001 -16 -85.001s-24.834 -39.167 -42.501 -51.5s-37.5 -20.666 -59.5 -24.999s-44 -6.5 -66 -6.5c-14.667 0 -28.834 1 -42.501 3s-25.834 4.33301 -36.501 7
c-12.667 2.66699 -24.667 6.33398 -36 11.001v106c14 -4.66699 27.333 -8.66699 40 -12c11.333 -3.33301 23 -6 35 -8s22 -3 30 -3c22 0 38.833 4.33301 50.5 13s17.5 23.334 17.5 44.001c0 17.333 -4.66699 30 -14 38s-20.666 15.667 -33.999 23l-36 20
c-8 4.66699 -17.333 10.5 -28 17.5s-21 16.167 -31 27.5s-18.333 25.166 -25 41.499s-10 35.833 -10 58.5c0 30 4.83301 55.333 14.5 76s22.834 37.5 39.501 50.5s35.667 22.333 57 28s44 8.5 68 8.5c15.333 0 29.333 -1.16699 42 -3.5s23.667 -4.83301 33 -7.5
c11.333 -3.33301 21.333 -7 30 -11v-101c-10 4 -20.667 7.33301 -32 10c-9.33301 2.66699 -20 5.16699 -32 7.5s-24.667 3.5 -38 3.5c-17.333 0 -31.166 -4.66699 -41.499 -14s-15.5 -21.666 -15.5 -36.999c0 -9.33301 1.33301 -17 4 -23s6.5 -11.333 11.5 -16
s10.833 -8.83398 17.5 -12.501s14 -7.5 22 -11.5l41 -23c9.33301 -5.33301 19 -11.833 29 -19.5s19 -17.334 27 -29.001s14.5 -25.167 19.5 -40.5s7.5 -33.333 7.5 -54z" />
    <glyph glyph-name="Ydieresis" unicode="&#x178;" horiz-adv-x="450" 
d="M399 820c0 -19.333 -6.66699 -35.833 -20 -49.5s-29.666 -20.5 -48.999 -20.5s-35.666 6.83301 -48.999 20.5s-20 30.167 -20 49.5s6.66699 35.833 20 49.5s29.666 20.5 48.999 20.5s35.666 -6.83301 48.999 -20.5s20 -30.167 20 -49.5zM190 820
c0 -19.333 -6.66699 -35.833 -20 -49.5s-29.666 -20.5 -48.999 -20.5s-35.666 6.83301 -48.999 20.5s-20 30.167 -20 49.5s6.66699 35.833 20 49.5s29.666 20.5 48.999 20.5s35.666 -6.83301 48.999 -20.5s20 -30.167 20 -49.5zM290 288v-288h-130v288l-170 412h150l85 -300
l85 300h150z" />
    <glyph glyph-name="florin" unicode="&#x192;" horiz-adv-x="360" 
d="M396 547c-10.667 4.66699 -20.998 8.66699 -30.998 12c-8.66699 3.33301 -17.834 6.16602 -27.501 8.49902s-18.5 3.5 -26.5 3.5c-18.667 0 -33 -4.33301 -43 -13s-17 -22.667 -21 -42l-9 -46h100l-31 -91h-85l-64 -369c-7.33301 -40 -17.333 -72.833 -30 -98.5
s-29.834 -46 -51.501 -61s-48.167 -25.5 -79.5 -31.5s-69.333 -9 -114 -9l16 97c21.333 1.33301 39.5 4.33301 54.5 9s27.5 11.334 37.5 20.001s17.833 19.5 23.5 32.5s10.167 28.5 13.5 46.5l64 364h-70l16 91h70l8 42c6 30.667 14.333 56.167 25 76.5s23.667 36.5 39 48.5
s32.833 20.5 52.5 25.5s41.5 7.5 65.5 7.5c16.667 0 32 -1.5 46 -4.5s26.333 -6.16699 37 -9.5c12 -4 23 -8.66699 33 -14z" />
    <glyph glyph-name="circumflex" unicode="&#x2c6;" horiz-adv-x="426" 
d="M264 620l-51 72l-51 -72h-142l138 160h110l138 -160h-142z" />
    <glyph glyph-name="tilde" unicode="&#x2dc;" horiz-adv-x="360" 
d="M340 650c-27.333 -17.333 -51.666 -26 -72.999 -26c-18 0 -33.667 2.33301 -47 7s-26.333 10 -39 16s-25.5 11.333 -38.5 16s-28.5 7 -46.5 7c-11.333 0 -23 -2.5 -35 -7.5s-25.667 -12.5 -41 -22.5v110c15.333 9.33301 30.166 16.333 44.499 21s28.5 7 42.5 7
c20.667 0 38.5 -2.33301 53.5 -7s28.667 -9.66699 41 -15l36 -15c11.667 -4.66699 24.5 -7 38.5 -7c9.33301 0 19 2.16699 29 6.5s21.667 10.5 35 18.5v-109v0z" />
    <glyph glyph-name="endash" unicode="&#x2013;" horiz-adv-x="550" 
d="M55 270v115h440v-115h-440z" />
    <glyph glyph-name="emdash" unicode="&#x2014;" horiz-adv-x="650" 
d="M55 270v115h540v-115h-540z" />
    <glyph glyph-name="quoteleft" unicode="&#x2018;" horiz-adv-x="261" 
d="M195 425h-155l79 305h92z" />
    <glyph glyph-name="quoteright" unicode="&#x2019;" horiz-adv-x="261" 
d="M142 425h-92l16 305h155z" />
    <glyph glyph-name="quotesinglbase" unicode="&#x201a;" horiz-adv-x="261" 
d="M142 -170h-92l16 305h155z" />
    <glyph glyph-name="quotedblleft" unicode="&#x201c;" horiz-adv-x="461" 
d="M395 425h-155l79 305h92zM195 425h-155l79 305h92z" />
    <glyph glyph-name="quotedblright" unicode="&#x201d;" horiz-adv-x="461" 
d="M342 425h-92l16 305h155zM142 425h-92l16 305h155z" />
    <glyph glyph-name="quotedblbase" unicode="&#x201e;" horiz-adv-x="461" 
d="M342 -170h-92l16 305h155zM142 -170h-92l16 305h155z" />
    <glyph glyph-name="dagger" unicode="&#x2020;" horiz-adv-x="490" 
d="M315 415v-415h-130v415h-155v115h155v190h130v-190h145v-115h-145z" />
    <glyph glyph-name="daggerdbl" unicode="&#x2021;" horiz-adv-x="490" 
d="M315 180v-180h-130v180h-155v115h155v130h-155v115h155v180h130v-180h145v-115h-145v-130h145v-115h-145z" />
    <glyph glyph-name="bullet" unicode="&#x2022;" horiz-adv-x="361" 
d="M296 378c0 -34 -10.667 -62.001 -32 -84.001s-49 -33 -83 -33c-16.667 0 -32 2.83301 -46 8.5s-26.167 13.834 -36.5 24.501s-18.5 23 -24.5 37s-9 29.667 -9 47c0 34.667 11 62.667 33 84s49.667 32 83 32s60.833 -11 82.5 -33s32.5 -49.667 32.5 -83z" />
    <glyph glyph-name="ellipsis" unicode="&#x2026;" horiz-adv-x="843" 
d="M778 78c0 -24 -8 -44.667 -24 -62s-36.333 -26 -61 -26s-45.167 8.66699 -61.5 26s-24.5 38 -24.5 62s8.16699 44.5 24.5 61.5s36.833 25.5 61.5 25.5s45 -8.5 61 -25.5s24 -37.5 24 -61.5zM507 78c0 -24 -8 -44.667 -24 -62s-36.333 -26 -61 -26
s-45.167 8.66699 -61.5 26s-24.5 38 -24.5 62s8.16699 44.5 24.5 61.5s36.833 25.5 61.5 25.5s45 -8.5 61 -25.5s24 -37.5 24 -61.5zM236 78c0 -24 -8 -44.667 -24 -62s-36.333 -26 -61 -26s-45.167 8.66699 -61.5 26s-24.5 38 -24.5 62s8.16699 44.5 24.5 61.5
s36.833 25.5 61.5 25.5s45 -8.5 61 -25.5s24 -37.5 24 -61.5z" />
    <glyph glyph-name="perthousand" unicode="&#x2030;" horiz-adv-x="1155" 
d="M1130 175c0 -35.333 -3.83301 -64.832 -11.5 -88.499s-18.334 -42.667 -32.001 -57s-29.667 -24.5 -48 -30.5s-38.5 -9 -60.5 -9c-21.333 0 -41.166 2.83301 -59.499 8.5s-34.333 15.5 -48 29.5s-24.5 32.833 -32.5 56.5s-12 53.834 -12 90.501
c0 35.333 4 64.833 12 88.5s18.833 42.667 32.5 57s29.667 24.5 48 30.5s38.166 9 59.499 9c22 0 42.333 -3 61 -9s34.834 -16.333 48.501 -31s24.167 -33.834 31.5 -57.501s11 -52.834 11 -87.501zM776 175.001c0 -35.333 -3.83301 -64.832 -11.5 -88.499
s-18.334 -42.667 -32.001 -57s-29.667 -24.5 -48 -30.5s-38.5 -9 -60.5 -9c-21.333 0 -41.166 2.83301 -59.499 8.5s-34.333 15.5 -48 29.5s-24.5 32.833 -32.5 56.5s-12 53.834 -12 90.501c0 35.333 4 64.833 12 88.5s18.833 42.667 32.5 57s29.667 24.5 48 30.5
s38.166 9 59.499 9c22 0 42.333 -3 61 -9s34.834 -16.333 48.501 -31s24.167 -33.834 31.5 -57.501s11 -52.834 11 -87.501zM317 -9.99805h-113l280 720h113zM329 525.002c0 -35.333 -3.83301 -64.832 -11.5 -88.499s-18.334 -42.667 -32.001 -57s-29.667 -24.5 -48 -30.5
s-38.5 -9 -60.5 -9c-21.333 0 -41.166 2.83301 -59.499 8.5s-34.333 15.5 -48 29.5s-24.5 32.833 -32.5 56.5s-12 53.834 -12 90.501c0 35.333 4 64.833 12 88.5s18.833 42.667 32.5 57s29.667 24.5 48 30.5s38.166 9 59.499 9c22 0 42.333 -3 61 -9
s34.834 -16.333 48.501 -31s24.167 -33.834 31.5 -57.501s11 -52.834 11 -87.501zM1020 175.003c0 23.333 -0.667969 42.502 -2.00098 57.502s-3.66602 26.833 -6.99902 35.5s-7.66602 14.667 -12.999 18s-12 5 -20 5c-15.333 0 -26.166 -8.5 -32.499 -25.5
s-9.5 -47.167 -9.5 -90.5c0 -36.667 2.66699 -64.834 8 -84.501s16.666 -29.5 33.999 -29.5s28.666 9.66699 33.999 29s8 47.666 8 84.999zM665.999 175.005c0 23.333 -0.667969 42.502 -2.00098 57.502s-3.66602 26.833 -6.99902 35.5s-7.66602 14.667 -12.999 18
s-12 5 -20 5c-15.333 0 -26.166 -8.5 -32.499 -25.5s-9.5 -47.167 -9.5 -90.5c0 -36.667 2.66699 -64.834 8 -84.501s16.666 -29.5 33.999 -29.5s28.666 9.66699 33.999 29s8 47.666 8 84.999zM218.998 525.007c0 23.333 -0.667969 42.502 -2.00098 57.502
s-3.66602 26.833 -6.99902 35.5s-7.66602 14.667 -12.999 18s-12 5 -20 5c-15.333 0 -26.166 -8.5 -32.499 -25.5s-9.5 -47.167 -9.5 -90.5c0 -36.667 2.66699 -64.834 8 -84.501s16.666 -29.5 33.999 -29.5s28.666 9.66699 33.999 29s8 47.666 8 84.999z" />
    <glyph glyph-name="guilsinglleft" unicode="&#x2039;" 
d="M30 297v76l190 227v-186l-81 -77l81 -81v-186z" />
    <glyph glyph-name="guilsinglright" unicode="&#x203a;" 
d="M40 70v186l81 81l-81 77v186l190 -227v-76z" />
    <glyph glyph-name="trademark" unicode="&#x2122;" horiz-adv-x="755" 
d="M598 280l-1 242l-92 -163l-90 159l-3 -238h-109l14 329h-94v-329h-109v329h-94v91h383l102 -178l100 178h84l16 -420h-107z" />
    <glyph glyph-name=".null" horiz-adv-x="0" 
 />
    <glyph glyph-name="nonmarkingreturn" 
 />
    </font>
</defs>
</svg>
